<?xml version="1.0" encoding="UTF-8" standalone="no"?>
<svg
   height="48"
   width="48"
   version="1.1"
   id="svg4"
   sodipodi:docname="follow_the_signs_FILL1_wght700_GRAD200_opsz48.svg"
   inkscape:version="1.1.2 (0a00cf5339, 2022-02-04)"
   xmlns:inkscape="http://www.inkscape.org/namespaces/inkscape"
   xmlns:sodipodi="http://sodipodi.sourceforge.net/DTD/sodipodi-0.dtd"
   xmlns="http://www.w3.org/2000/svg"
   xmlns:svg="http://www.w3.org/2000/svg">
  <defs
     id="defs8" />
  <sodipodi:namedview
     id="namedview6"
     pagecolor="#ffffff"
     bordercolor="#666666"
     borderopacity="1.0"
     inkscape:pageshadow="2"
     inkscape:pageopacity="0.0"
     inkscape:pagecheckerboard="0"
     showgrid="false"
     inkscape:zoom="18.020833"
     inkscape:cx="13.068208"
     inkscape:cy="23.972254"
     inkscape:window-width="1920"
     inkscape:window-height="1127"
     inkscape:window-x="0"
     inkscape:window-y="0"
     inkscape:window-maximized="1"
     inkscape:current-layer="svg4" />
  <path
     d="M19.05 9.75q-1.7 0-2.9-1.25t-1.2-2.9q0-1.7 1.2-2.95 1.2-1.25 2.9-1.25t2.975 1.25Q23.3 3.9 23.3 5.6q0 1.7-1.275 2.925Q20.75 9.75 19.05 9.75ZM5 46.45l5.85-29.2-4.45 2V26H2.35v-9.45L12.6 12.3q1.7-.7 3.425-.275 1.725.425 2.725 1.875l2.2 3.25q1.55 2.35 3.85 3.625t4.95 1.275V26q-3.3 0-6.025-1.35Q21 23.3 18.75 20.55L16.9 27.1l4.6 4.1v15.25h-3.95V34.2l-4.65-4.1L9 46.45Zm28.8 0v-28.5h-8.05V1.45H46v16.5h-8.1v28.5Zm2.7-31.3 5.45-5.4L36.5 4.3l-2.1 2.1 1.85 1.85H29.4v3h6.85L34.4 13.1Z"
     id="path2" />
  <path
     style="fill:#002e41;fill-opacity:0.98039216;stroke:#000000;stroke-width:0.083237;stroke-linecap:round;stroke-linejoin:round;stop-color:#000000"
     d="M 33.849711,32.184971 V 17.923699 H 29.82659 25.803468 V 9.7109827 1.4982659 h 10.071677 10.071676 v 8.2127168 8.2127163 h -4.050867 -4.050867 v 14.261272 14.261272 h -1.997688 -1.997688 z m 5.409532,-19.717828 c 1.480711,-1.459833 2.692202,-2.6835133 2.692202,-2.7192869 0,-0.035774 -1.223512,-1.2883644 -2.718914,-2.7835335 L 36.513616,4.2458328 35.431414,5.3269677 34.349212,6.4081025 35.250276,7.3104094 36.15134,8.2127168 H 32.753126 29.354913 V 9.7387283 11.26474 h 3.426383 3.426383 l -0.917005,0.917004 -0.917003,0.917004 1.028193,1.025699 c 0.565507,0.564134 1.059015,1.019228 1.096685,1.011319 0.03767,-0.0079 1.279983,-1.208789 2.760694,-2.668623 z"
     id="path1203" />
  <path
     style="fill:#002e41;fill-opacity:0.980392;stroke:#000000;stroke-width:0.083237;stroke-linecap:round;stroke-linejoin:round;stop-color:#000000"
     d="m 5.049711,46.395405 c 0,-0.02796 1.3124774,-6.598027 2.9166165,-14.600147 1.6041389,-8.002119 2.9088785,-14.556372 2.8994215,-14.565007 -0.0095,-0.0086 -1.0222808,0.43558 -2.2507201,0.987143 l -2.233526,1.00284 v 3.374854 3.374854 H 4.383815 2.3861272 l 0.00104,-4.70289 0.00104,-4.70289 5.0897724,-2.108671 c 2.7993744,-1.159768 5.3221034,-2.187154 5.6060634,-2.283078 1.181883,-0.399249 2.457582,-0.358799 3.630914,0.115131 1.098028,0.443513 1.505994,0.8741 3.171442,3.347292 1.747343,2.594808 2.183337,3.134825 3.257292,4.034454 1.677543,1.405239 3.591436,2.186088 5.808919,2.369978 l 0.790752,0.06557 v 1.93255 1.932549 l -0.346821,-4.6e-5 c -0.466187,-5.6e-5 -1.454749,-0.09501 -2.067052,-0.198528 -2.217503,-0.374906 -4.176366,-1.260196 -6.048555,-2.733592 -0.420146,-0.33065 -1.920308,-1.806614 -2.291267,-2.254308 -0.125549,-0.151519 -0.239092,-0.263889 -0.252316,-0.249711 -0.01718,0.01842 -1.488268,5.17787 -1.851203,6.492606 -0.01569,0.05684 0.745867,0.770009 2.281377,2.136416 l 2.304931,2.051094 0.0013,7.616185 0.0013,7.616185 h -1.942197 -1.942197 v -6.128852 -6.128853 l -2.335732,-2.06027 c -1.284653,-1.133149 -2.348312,-2.047692 -2.363685,-2.032319 -0.02708,0.02708 -3.9017383,16.221377 -3.9017383,16.307483 0,0.02355 -0.886474,0.04281 -1.9699422,0.04281 -1.1560862,0 -1.9699422,-0.021 -1.9699422,-0.05084 z"
     id="path1316" />
  <path
     style="fill:#002e41;fill-opacity:0.980392;stroke:#000000;stroke-width:0.083237;stroke-linecap:round;stroke-linejoin:round;stop-color:#000000"
     d="M 18.116143,9.6068066 C 16.954368,9.3209696 15.947003,8.4857291 15.397395,7.3526012 14.410761,5.3184538 15.266021,2.869693 17.325121,1.833182 c 0.61984,-0.3120154 1.131956,-0.4118595 1.924261,-0.3751618 0.450162,0.02085 0.752927,0.066389 1.004953,0.1511556 1.337256,0.4497706 2.411029,1.5093444 2.839939,2.8023849 0.111247,0.3353783 0.128734,0.4983515 0.128013,1.1930636 -7.54e-4,0.7291864 -0.01476,0.8441452 -0.149347,1.226157 -0.376669,1.0691203 -1.168573,1.9441309 -2.249972,2.4860953 -0.75233,0.3770452 -1.867332,0.4964737 -2.706825,0.28993 z"
     id="path1355" />
</svg>
