<?xml version="1.0" encoding="utf-8"?>
<!-- Generator: Adobe Illustrator 28.1.0, SVG Export Plug-In . SVG Version: 6.00 Build 0)  -->
<svg version="1.1"
	 id="svg2" xmlns:rdf="http://www.w3.org/1999/02/22-rdf-syntax-ns#" xmlns:cc="http://creativecommons.org/ns#" xmlns:dc="http://purl.org/dc/elements/1.1/" xmlns:svg="http://www.w3.org/2000/svg"
	 xmlns="http://www.w3.org/2000/svg" xmlns:xlink="http://www.w3.org/1999/xlink" x="0px" y="0px" viewBox="0 0 793.7 559.4"
	 style="enable-background:new 0 0 793.7 559.4;" xml:space="preserve">
<style type="text/css">
	.st0{clip-path:url(#SVGID_00000059296408606693354350000018329415366511719847_);}
	.st1{fill:#FFFFFF;}
	.st2{fill:#9B9B9B;}
	.st3{fill:none;stroke:#9B9B9B;stroke-width:1.6224;stroke-linecap:round;stroke-linejoin:round;stroke-miterlimit:7.2727;}
	.st4{fill:#D20000;fill-opacity:0.1;}
	.st5{fill:none;stroke:#000000;stroke-width:1.7008;stroke-linecap:round;stroke-linejoin:round;stroke-miterlimit:7.2727;}
	.st6{fill:none;stroke:#000000;stroke-width:1.6224;stroke-linecap:round;stroke-linejoin:round;stroke-miterlimit:7.2727;}
	.st7{fill:#007AFF;fill-opacity:0.5;}
	.st8{fill:none;stroke:#007AFF;stroke-width:3.0236;stroke-linecap:round;stroke-linejoin:round;stroke-miterlimit:7.2727;}
	.st9{fill:none;stroke:#D20000;stroke-width:3.0236;stroke-linecap:round;stroke-linejoin:round;stroke-miterlimit:7.2727;}
	.st10{fill:none;stroke:#007355;stroke-width:3.0236;stroke-linecap:round;stroke-linejoin:round;stroke-miterlimit:7.2727;}
	.st11{opacity:0.5;}
	.st12{fill:#FF0000;}
</style>
<g id="g10" transform="matrix(1.3333333,0,0,-1.3333333,0,559.37067)">
	<g id="g12">
	</g>
	<g id="g14">
		<g>
			<defs>
				<rect id="SVGID_1_" x="-99.2" y="-69.9" width="793.7" height="559.4"/>
			</defs>
			<clipPath id="SVGID_00000041296448825271947500000010636740900269727126_">
				<use xlink:href="#SVGID_1_"  style="overflow:visible;"/>
			</clipPath>
			<g id="g16" style="clip-path:url(#SVGID_00000041296448825271947500000010636740900269727126_);">
				<path id="path22" class="st1" d="M0,0h595.3v419.5H0V0z"/>
			</g>
		</g>
	</g>
	<g id="g24">
		<path id="path26" class="st2" d="M140.1,100.2c0.8,0.5,1.5,1,2.3,1.5c0.3,0.2,0.4,0.6,0.2,0.8c-0.2,0.3-0.6,0.4-0.8,0.2
			c-0.8-0.5-1.6-1-2.4-1.5C139.7,100.8,139.9,100.5,140.1,100.2L140.1,100.2z"/>
		<g id="g28" transform="matrix(0.5454546,0,0,-0.5454546,13.92851,424.6949)">
			<path id="path30" class="st3" d="M235,591.2c2.7-1.7,5.3-3.4,8-5.1c2.7-1.7,5.3-3.4,8-5.1c2.7-1.7,5.3-3.4,8-5.1
				c2.7-1.7,5.3-3.4,8-5.1c2.7-1.7,5.3-3.4,8-5.1c2.7-1.7,5.3-3.4,8-5.1c2.7-1.7,5.3-3.4,8-5.1c2.7-1.7,5.3-3.4,8-5.1
				c2.7-1.7,5.3-3.4,8-5.1c2.7-1.7,5.3-3.4,8-5.1c2.7-1.7,5.3-3.4,8-5.1c2.7-1.7,5.3-3.4,8-5.1c2.7-1.7,5.3-3.4,8-5.1
				c2.7-1.7,5.3-3.4,8-5.1c2.7-1.7,5.3-3.4,8-5.1c2.7-1.7,5.3-3.4,8-5.1c2.7-1.7,5.3-3.4,8-5.1c2.7-1.7,5.3-3.4,8-5.1
				c2.7-1.7,5.3-3.4,8-5.1c2.7-1.7,5.3-3.4,8-5.1c2.7-1.7,5.3-3.4,8-5.1c2.7-1.7,5.3-3.4,8-5.1c2.7-1.7,5.3-3.4,8-5.1
				c2.7-1.7,5.3-3.4,8-5.1c2.7-1.7,5.3-3.4,8-5.1c2.7-1.7,5.3-3.4,8-5.1c2.7-1.7,5.3-3.4,8-5.1c2.7-1.7,5.3-3.4,8-5.1
				c2.7-1.7,5.3-3.4,8-5.1c2.7-1.7,5.3-3.4,8-5.1c2.7-1.7,5.3-3.4,8-5.1c2.7-1.7,5.3-3.4,8-5.1c2.7-1.7,5.3-3.4,8-5.1
				c2.7-1.7,5.3-3.4,8-5.1c2.7-1.7,5.3-3.4,8-5.1c2.7-1.7,5.3-3.4,8-5.1c2.7-1.7,5.3-3.4,8-5.1c2.7-1.7,5.3-3.4,8-5.1
				c2.7-1.7,5.3-3.4,8-5.1c2.7-1.7,5.3-3.4,8-5.1c2.7-1.7,5.3-3.4,8-5.1c2.7-1.7,5.3-3.4,8-5.1c2.7-1.7,5.3-3.4,8-5.1
				c2.7-1.7,5.3-3.4,8-5.1s5.3-3.4,8-5.1c2.7-1.7,5.3-3.4,8-5.1c2.7-1.7,5.3-3.4,8-5.1c2.7-1.7,5.3-3.4,8-5.1c2.7-1.7,5.3-3.4,8-5.1
				c2.7-1.7,5.3-3.4,8-5.1c2.7-1.7,5.3-3.4,8-5.1c2.7-1.7,5.3-3.4,8-5.1c2.7-1.7,5.3-3.4,8-5.1s5.3-3.4,8-5.1c2.7-1.7,5.3-3.4,8-5.1
				c2.7-1.7,5.3-3.4,8-5.1c2.7-1.7,5.3-3.4,8-5.1c2.7-1.7,5.3-3.4,8-5.1c2.7-1.7,5.3-3.4,8-5.1c2.7-1.7,5.3-3.4,8-5.1
				c2.7-1.7,5.3-3.4,8-5.1c2.7-1.7,5.3-3.4,8-5.1c2.7-1.7,5.3-3.4,8-5.1c2.7-1.7,5.3-3.4,8-5.1c2.7-1.7,5.3-3.4,8-5.1
				c2.7-1.7,5.3-3.4,8-5.1c2.7-1.7,5.3-3.4,8-5.1s5.3-3.4,8-5.1s5.3-3.4,8-5.1c2.7-1.7,5.3-3.4,8-5.1c2.7-1.7,5.3-3.4,8-5.1
				c2.7-1.7,5.3-3.4,8-5.1c2.7-1.7,5.3-3.4,8-5.1c2.7-1.7,5.3-3.4,8-5.1c2.7-1.7,5.3-3.4,8-5.1c2.7-1.7,5.3-3.4,8-5.1
				c2.7-1.7,5.3-3.4,8-5.1c2.7-1.7,5.3-3.4,8-5.1c2.7-1.7,5.3-3.4,8-5.1c2.7-1.7,5.3-3.4,8-5.1c2.7-1.7,5.3-3.4,8-5.1
				c2.7-1.7,5.3-3.4,8-5.1"/>
		</g>
		<path id="path32" class="st4" d="M368.3,207.6l0.8,3.4L368.3,207.6z"/>
		<path id="path34" d="M300.1,357.9c-0.1-0.2-0.1-0.4,0-0.6c0,0.1,0,0.2,0,0.2v0C300.1,357.6,300.1,357.7,300.1,357.9L300.1,357.9z"
			/>
		<g id="g36" transform="matrix(0.5454546,0,0,-0.5454546,0,419.528)">
			<path id="path38" class="st5" d="M972.5,362.5c-0.2,0.9-0.3,2.7-0.3,5.4c0,2.7,0,4.2,0,4.3l0,0.2l0,0c0-0.1,0-0.6,0-1.6
				c0-1,0-2,0.1-3.1c0-1,0.1-2.2,0.1-3.5c0-1.3-0.1-2.1-0.2-2.4s-0.3-0.5-0.6-0.5c-0.2,0-0.3,0.2-0.3,0.7c0,0.5,0.2,1,0.6,1.4
				c0.4,0.4,0.9,0.8,1.6,1.3c0.7,0.4,1.5,0.9,2.5,1.4c1,0.5,2,1,3,1.5c1,0.5,1.8,1,2.4,1.4s0.9,0.7,1.1,1c0.2,0.3-0.3,0.6-1.3,1
				c-1,0.4-2,0.8-2.8,1.1c-0.8,0.3-1.7,0.7-2.8,1.1c-1,0.4-1.8,0.7-2.3,0.8c-0.5,0.2-0.8,0.2-0.8,0.2c0,0,0,0,0,0
				c0,0,0.2-0.2,0.5-0.4c0.3-0.3,0.7-0.6,1-1.1c0.3-0.5,0.5-1,0.7-1.6c0.2-0.6,0.2-1.3,0.3-2.1c0-0.8-0.2-1.5-0.6-2
				s-0.6-0.7-0.6-0.7c0,0,0,0,0,0c0,0,0.3,0.2,0.7,0.5c0.5,0.3,0.9,0.6,1.4,0.8c0.5,0.2,1,0.3,1.4,0.3c0.4,0,0.7,0,0.9,0
				c0.2,0,0.2,0,0.1-0.1c-0.1-0.1-0.3-0.2-0.6-0.4c-0.3-0.2-0.8-0.5-1.5-0.8c-0.7-0.3-1.2-0.5-1.4-0.6s-0.3-0.1-0.4-0.1
				c-0.1,0-0.1,0,0,0.1s0.2,0.2,0.5,0.5c0.2,0.3,0.6,0.6,1,0.9c0.4,0.3,0.9,0.6,1.3,0.9s0.7,0.4,0.8,0.5c0.1,0.1-0.2,0.3-0.8,0.4
				c-0.7,0.2-1.4,0.3-2.3,0.5c-0.9,0.1-1.4,0.3-1.7,0.5c-0.2,0.2-0.3,0.4-0.3,0.5c0,0.2,0.2,0.3,0.7,0.3c0.4,0,0.8,0,1.1-0.1
				c0.3-0.1,0.8-0.3,1.4-0.8s1.1-0.9,1.5-1.3c0.4-0.4,0.6-0.7,0.6-0.9c0-0.2-0.1-0.2-0.4-0.1c-0.3,0.1-0.5,0.5-0.8,1
				c-0.3,0.5-0.4,0.8-0.5,1s0,0.2,0.2,0.1c0.2-0.1,0.4,0,0.7,0.2c0.3,0.2,0.7,0.4,1.3,0.5c0.7,0.1,1.1-0.1,1.1-0.8"/>
		</g>
		<g id="g40" transform="matrix(0.5454546,0,0,-0.5454546,0,419.528)">
			<path id="path42" class="st5" d="M978.3,381.5c0,0.1,0,0.2,0,0.4"/>
		</g>
		<g id="g44" transform="matrix(0.5454546,0,0,-0.5454546,0,419.528)">
			<path id="path46" class="st5" d="M976.9,380.5c0.5,0.7,1.4,1.6,2.7,2.7c0.8,0.7,1.4,1.2,2,1.6c0.5,0.4,1.3,0.9,2.2,1.6
				c1,0.7,1.8,1.2,2.4,1.6c0.6,0.4,1.1,0.7,1.6,0.9"/>
		</g>
		<g id="g48" transform="matrix(0.5454546,0,0,-0.5454546,0,419.528)">
			<path id="path50" class="st5" d="M975.9,388.5c0.4-1.1,0.9-2.1,1.4-2.8c0.3-0.5,0.8-1,1.3-1.6c0.7-0.8,2.7-2.7,5.9-5.5"/>
		</g>
		<g id="g52" transform="matrix(0.5454546,0,0,-0.5454546,0,419.528)">
			<path id="path54" class="st5" d="M571.5,51.1l0,643.5"/>
		</g>
		<g id="g56" transform="matrix(0.5454546,0,0,-0.5454546,0,419.528)">
			<path id="path58" class="st5" d="M570,47.7c0-0.9,0-1.4,0-1.6c0-0.1-0.1,0-0.3,0.5s-0.6,1.4-1.2,3c-0.7,1.6-1.4,3.3-2.3,5
				l-1.1,2.1l0.1-0.1c0.2-0.4,0.8-1.5,1.7-3.3c0.9-1.8,1.7-3.5,2.4-5.1c0.7-1.6,1.3-2.9,1.7-4c0.4-1.1,0.6-1.8,0.8-2.3
				c0.1-0.5,0.2-0.7,0.1-0.6c0,0.1-0.1,0.3-0.2,0.7c-0.1,0.4,0.8,2.4,2.9,6.1c2.1,3.7,3.5,6.3,4.4,7.7c0.9,1.5,1.4,2.5,1.7,3
				c0.3,0.6-0.8,0.6-3.3,0.3c-2.5-0.4-4.1-0.6-4.8-0.7c-0.8-0.1-1.6-0.3-2.5-0.6c-0.9-0.3-1.7-0.6-2.3-0.9c-0.7-0.3-1.1-0.5-1.2-0.6
				c-0.1-0.1,0-0.1,0.3-0.1c0.3,0,1.2-0.1,2.8-0.3c1.5-0.2,2.8-0.3,3.8-0.3c1-0.1,1.7-0.2,2-0.3c0.3-0.1,0.5-0.2,0.6-0.2
				c0,0-0.1,0-0.3,0c-0.3,0-1.3,0-3.1,0c-1.8,0-3-0.1-3.6-0.2s-0.9-0.4-1.1-0.9c-0.2-0.5,0-1,0.6-1.6c0.6-0.6,1.3-1.4,2.2-2.5
				c0.9-1.1,1.5-1.8,1.6-1.9c0.2-0.1,0.2,0.2,0.1,0.9c-0.1,0.7-0.3,1.8-0.3,3.1l-0.1,1.7l0,0c0-0.2,0.1-0.7,0.1-1.5
				c0.1-0.8,0.1-1.8,0.1-3.1s0-1.9,0-2c0-0.1,0-0.1,0.1,0.1c0,0.1,0.3,1.1,0.9,3c0.5,1.9,1,3.3,1.3,4.3c0.4,1,0.7,1.7,0.9,2.2
				c0.3,0.5,0.4,0.6,0.4,0.5c0-0.1,0-0.3-0.1-0.7c-0.1-0.4-0.5-0.9-1.3-1.7c-0.8-0.8-1.2-1.1-1.1-0.9c0.1,0.2,0.4,0.6,0.9,1.2
				c0.5,0.7,0.9,1.1,1.3,1.4s0.6,0.5,0.8,0.5c0.2,0.1,0.2,0.1,0.3,0.1c0,0,0-0.1-0.3-0.3c-0.2-0.2-0.7-0.7-1.4-1.4
				c-0.7-0.7-1.4-1.3-2-1.7c-0.6-0.4-1.1-0.7-1.6-0.9c-0.5-0.2-1-0.2-1.4-0.2c-0.5,0-0.7,0.2-0.8,0.5c0,0.3,0.1,0.5,0.6,0.7
				c0.4,0.2,1,0.3,1.9,0.3c0.8,0,1.7,0.1,2.4,0.3c0.8,0.2,1.4,0.4,1.7,0.6s0.6,0.6,0.7,1.2c0.2,0.8-0.1,0.8-0.9,0.2"/>
		</g>
		<g id="g60" transform="matrix(0.5454546,0,0,-0.5454546,0,419.528)">
			<path id="path62" class="st5" d="M588.4,39.1c-0.1-1.1-0.2-1.6-0.2-1.8c0-0.1,0.1,0,0.2,0.3c0.1,0.3,0.7,1.4,1.6,3.4
				c0.9,2,1.6,3.4,2,4.1c0.4,0.7,0.8,1.1,1.3,1.2c0.5,0.1,0.9-0.4,1.5-1.4c0.5-1.1,1.1-2.4,1.7-4.1c0.6-1.7,1-2.8,1.1-3.4
				c0.2-0.6,0.3-0.9,0.3-1l0,0l0,0.1c0,0.1-0.2,0.7-0.6,1.9c-0.4,1.2-0.7,2.7-1.1,4.4c-0.3,1.7-0.7,3.6-1,5.6c-0.3,2-0.7,4-0.9,5.8
				c-0.3,1.8-0.4,3.3-0.5,4.4c-0.1,1.1-0.2,1.8-0.2,2.2"/>
		</g>
		<g id="g64" transform="matrix(0.5454546,0,0,-0.5454546,13.92851,424.6949)">
			<path id="path66" class="st6" d="M204.8,482.2c2.2-1.3,4.3-2.6,6.5-3.9c2.2-1.3,4.3-2.6,6.5-3.9c2.2-1.3,4.3-2.6,6.5-3.9
				c2.2-1.3,4.3-2.6,6.5-3.9 M342.3,651.1c-2.2,1.3-4.3,2.6-6.5,3.9c-2.2,1.3-4.3,2.6-6.5,3.9c-2.2,1.3-4.3,2.6-6.5,3.9
				c-2.2,1.3-4.3,2.6-6.5,3.9c-1.6-2.7-3.2-5.3-4.9-8c-1.6-2.7-3.2-5.3-4.9-8c-1.6-2.7-3.2-5.3-4.9-8c-1.6-2.7-3.2-5.3-4.9-8
				c-1.6-2.7-3.2-5.3-4.9-8c-1.6-2.7-3.2-5.3-4.9-8c-1.6-2.7-3.2-5.3-4.9-8c-1.6-2.7-3.2-5.3-4.9-8c-1.6-2.7-3.2-5.3-4.9-8
				c-1.6-2.7-3.2-5.3-4.9-8c-1.6-2.7-3.2-5.3-4.9-8c-1.6-2.7-3.2-5.3-4.9-8c-1.6-2.7-3.2-5.3-4.9-8c-1.6-2.7-3.2-5.3-4.9-8
				c-1.6-2.7-3.2-5.3-4.9-8c-1.6-2.7-3.2-5.3-4.9-8c-1.6-2.7-3.2-5.3-4.9-8c-1.6-2.7-3.2-5.3-4.9-8c-1.6-2.7-3.2-5.3-4.9-8
				c-1.6-2.7-3.2-5.3-4.9-8c-1.6-2.7-3.2-5.3-4.9-8c-1.6-2.7-3.2-5.3-4.9-8c-1.6-2.7-3.2-5.3-4.9-8"/>
		</g>
		<g id="g68" transform="matrix(0.5454546,0,0,-0.5454546,13.92851,424.6949)">
			<path id="path70" class="st6" d="M748.3,140.1c2.2-1.3,4.3-2.6,6.5-3.9c2.2-1.3,4.3-2.6,6.5-3.9c2.2-1.3,4.3-2.6,6.5-3.9
				c2.2-1.3,4.3-2.6,6.5-3.9c1.6,2.7,3.2,5.3,4.9,8c1.6,2.7,3.2,5.3,4.9,8c1.6,2.7,3.2,5.3,4.9,8c1.6,2.7,3.2,5.3,4.9,8
				c1.6,2.7,3.2,5.3,4.9,8c1.6,2.7,3.2,5.3,4.9,8c1.6,2.7,3.2,5.3,4.9,8c1.6,2.7,3.2,5.3,4.9,8c1.6,2.7,3.2,5.3,4.9,8
				c1.6,2.7,3.2,5.3,4.9,8c1.6,2.7,3.2,5.3,4.9,8c1.6,2.7,3.2,5.3,4.9,8c1.6,2.7,3.2,5.3,4.9,8c1.6,2.7,3.2,5.3,4.9,8
				c1.6,2.7,3.2,5.3,4.9,8c1.6,2.7,3.2,5.3,4.9,8c1.6,2.7,3.2,5.3,4.9,8c1.6,2.7,3.2,5.3,4.9,8s3.2,5.3,4.9,8c1.6,2.7,3.2,5.3,4.9,8
				c1.6,2.7,3.2,5.3,4.9,8c1.6,2.7,3.2,5.3,4.9,8c1.6,2.7,3.2,5.3,4.9,8c-2.2,1.3-4.3,2.6-6.5,3.9c-2.2,1.3-4.3,2.6-6.5,3.9
				s-4.3,2.6-6.5,3.9c-2.2,1.3-4.3,2.6-6.5,3.9"/>
		</g>
		<g id="g72" transform="matrix(0.5454546,0,0,-0.5454546,13.92851,424.6949)">
			<path id="path74" class="st6" d="M232.2,467.2c20.8,69.9,57.2,131.4,109.3,184.4"/>
		</g>
		<g id="g76" transform="matrix(0.5454546,0,0,-0.5454546,13.92851,424.6949)">
			<path id="path78" class="st6" d="M749.2,140.4c52.4,51.4,89.7,113,111.6,184.6"/>
		</g>
		<path id="path80" d="M84.1,204.7c1,0,1.9,0.1,2.9,0.1c0.4,0,0.6,0.3,0.6,0.7c0,0.4-0.3,0.6-0.7,0.6c-1,0-2-0.1-3-0.1
			C84,205.6,84,205.2,84.1,204.7L84.1,204.7z"/>
		<g id="g82" transform="matrix(0.5454546,0,0,-0.5454546,1.281269,419.5846)">
			<path id="path84" class="st5" d="M157.1,392.5c3.3-0.1,6.6-0.2,9.9-0.3c3.3-0.1,6.6-0.2,9.9-0.3c3.3-0.1,6.6-0.2,9.9-0.3
				s6.6-0.2,9.9-0.3c3.3-0.1,6.6-0.2,9.9-0.3c3.3-0.1,6.6-0.2,9.9-0.3c3.3-0.1,6.6-0.2,9.9-0.3c3.3-0.1,6.6-0.2,9.9-0.3
				c3.3-0.1,6.6-0.2,9.9-0.3s6.6-0.2,9.9-0.3s6.6-0.2,9.9-0.3c3.3-0.1,6.6-0.2,9.9-0.3c3.3-0.1,6.6-0.2,9.9-0.3
				c3.3-0.1,6.6-0.2,9.9-0.3s6.6-0.2,9.9-0.3c3.3-0.1,6.6-0.2,9.9-0.3c3.3-0.1,6.6-0.2,9.9-0.3c3.3-0.1,6.6-0.2,9.9-0.3
				c3.3-0.1,6.6-0.2,9.9-0.3s6.6-0.2,9.9-0.3s6.6-0.2,9.9-0.3s6.6-0.2,9.9-0.3c3.3-0.1,6.6-0.2,9.9-0.3s6.6-0.2,9.9-0.3
				c3.3-0.1,6.6-0.2,9.9-0.3s6.6-0.2,9.9-0.3s6.6-0.2,9.9-0.3s6.6-0.2,9.9-0.3c3.3-0.1,6.6-0.2,9.9-0.3c3.3-0.1,6.6-0.2,9.9-0.3
				c3.3-0.1,6.6-0.2,9.9-0.3c3.3-0.1,6.6-0.2,9.9-0.3s6.6-0.2,9.9-0.3c3.3-0.1,6.6-0.2,9.9-0.3s6.6-0.2,9.9-0.3s6.6-0.2,9.9-0.3
				s6.6-0.2,9.9-0.3c3.3-0.1,6.6-0.2,9.9-0.3s6.6-0.2,9.9-0.3c3.3-0.1,6.6-0.2,9.9-0.3c3.3-0.1,6.6-0.2,9.9-0.3
				c3.3-0.1,6.6-0.2,9.9-0.3s6.6-0.2,9.9-0.3c3.3-0.1,6.6-0.2,9.9-0.3c3.3-0.1,6.6-0.2,9.9-0.3c3.3-0.1,6.6-0.2,9.9-0.3
				s6.6-0.2,9.9-0.3s6.6-0.2,9.9-0.3s6.6-0.2,9.9-0.3c3.3-0.1,6.6-0.2,9.9-0.3c3.3-0.1,6.6-0.2,9.9-0.3c3.3-0.1,6.6-0.2,9.9-0.3
				c3.3-0.1,6.6-0.2,9.9-0.3s6.6-0.2,9.9-0.3s6.6-0.2,9.9-0.3c3.3-0.1,6.6-0.2,9.9-0.3c3.3-0.1,6.6-0.2,9.9-0.3s6.6-0.2,9.9-0.3
				c3.3-0.1,6.6-0.2,9.9-0.3c3.3-0.1,6.6-0.2,9.9-0.3c3.3-0.1,6.6-0.2,9.9-0.3s6.6-0.2,9.9-0.3s6.6-0.2,9.9-0.3s6.6-0.2,9.9-0.3
				s6.6-0.2,9.9-0.3c3.3-0.1,6.6-0.2,9.9-0.3c3.3-0.1,6.6-0.2,9.9-0.3c3.3-0.1,6.6-0.2,9.9-0.3c3.3-0.1,6.6-0.2,9.9-0.3
				c3.3-0.1,6.6-0.2,9.9-0.3s6.6-0.2,9.9-0.3s6.6-0.2,9.9-0.3c3.3-0.1,6.6-0.2,9.9-0.3c3.3-0.1,6.6-0.2,9.9-0.3s6.6-0.2,9.9-0.3
				s6.6-0.2,9.9-0.3c3.3-0.1,6.6-0.2,9.9-0.3c3.3-0.1,6.6-0.2,9.9-0.3c3.3-0.1,6.6-0.2,9.9-0.3c3.3-0.1,6.6-0.2,9.9-0.3
				c3.3-0.1,6.6-0.2,9.9-0.3c3.3-0.1,6.6-0.2,9.9-0.3"/>
		</g>
		<g>
			<path id="path86" class="st7" d="M203.5,349.1c1.1-1.5,2.1-2.9,3.2-4.4c3.6-4.9,10.4-5.9,15.3-2.3c4.9,3.6,5.9,10.4,2.3,15.3
				c-1.1,1.5-2.1,2.9-3.2,4.4c-3.6,4.9-10.4,5.9-15.3,2.3S200,353.9,203.5,349.1z M206.7,344.7c1.1-1.5,2.1-2.9,3.2-4.4
				c3.6-4.9,10.4-5.9,15.3-2.3c4.9,3.6,5.9,10.4,2.3,15.3c-1.1,1.5-2.1,2.9-3.2,4.4c-2.3,3.1-6.1,4.8-10,4.4s-7.2-2.9-8.8-6.5
				C204,352,204.4,347.8,206.7,344.7L206.7,344.7z M209.9,340.3c1.1-1.5,2.1-2.9,3.2-4.4c3.6-4.9,10.4-5.9,15.3-2.3
				c4.9,3.6,5.9,10.4,2.3,15.3c-1.1,1.5-2.1,2.9-3.2,4.4c-2.3,3.1-6.1,4.8-10,4.4s-7.2-2.9-8.8-6.5
				C207.2,347.6,207.6,343.5,209.9,340.3L209.9,340.3z M213.2,335.9c1.1-1.5,2.1-2.9,3.2-4.4c3.6-4.9,10.4-5.9,15.3-2.3
				s5.9,10.4,2.3,15.3c-1.1,1.5-2.1,2.9-3.2,4.4c-3.6,4.9-10.4,5.9-15.3,2.3C210.6,347.6,209.6,340.8,213.2,335.9L213.2,335.9z
				 M216.4,331.5c1.1-1.5,2.1-2.9,3.2-4.4c2.3-3.1,6.1-4.8,10-4.4s7.2,2.9,8.8,6.5c1.6,3.6,1.1,7.7-1.2,10.8
				c-1.1,1.5-2.1,2.9-3.2,4.4c-3.6,4.9-10.4,5.9-15.3,2.3C213.9,343.2,212.8,336.4,216.4,331.5L216.4,331.5z M219.6,327.2
				c1.1-1.5,2.1-2.9,3.2-4.4c3.6-4.9,10.4-5.9,15.3-2.3s5.9,10.4,2.3,15.3c-1.1,1.5-2.1,2.9-3.2,4.4c-3.6,4.9-10.4,5.9-15.3,2.3
				C217.1,338.9,216,332,219.6,327.2L219.6,327.2z M222.8,322.8c1.1-1.5,2.1-2.9,3.2-4.4c3.6-4.9,10.4-5.9,15.3-2.3
				c4.9,3.6,5.9,10.4,2.3,15.3c-1.1,1.5-2.1,2.9-3.2,4.4c-2.3,3.1-6.1,4.8-10,4.4s-7.2-2.9-8.8-6.5
				C220,330.1,220.5,325.9,222.8,322.8z M226,318.4c1.1-1.5,2.1-2.9,3.2-4.4c3.6-4.9,10.4-5.9,15.3-2.3c4.9,3.6,5.9,10.4,2.3,15.3
				c-1.1,1.5-2.1,2.9-3.2,4.4c-2.3,3.1-6.1,4.8-10,4.4s-7.2-2.9-8.8-6.5C223.3,325.7,223.7,321.5,226,318.4L226,318.4z M229.2,314
				c1.1-1.5,2.1-2.9,3.2-4.4c2.3-3.1,6.1-4.8,10-4.4c3.9,0.4,7.2,2.9,8.8,6.5c1.6,3.6,1.1,7.7-1.2,10.8c-1.1,1.5-2.1,2.9-3.2,4.4
				c-2.3,3.1-6.1,4.8-10,4.4c-3.9-0.4-7.2-2.9-8.8-6.5C226.5,321.3,226.9,317.2,229.2,314z M232.5,309.6c1.1-1.5,2.1-2.9,3.2-4.4
				c3.6-4.9,10.4-5.9,15.3-2.3c4.9,3.6,5.9,10.4,2.3,15.3c-1.1,1.5-2.1,2.9-3.2,4.4c-3.6,4.9-10.4,5.9-15.3,2.3
				C229.9,321.3,228.9,314.5,232.5,309.6z M235.7,305.3c1.1-1.5,2.1-2.9,3.2-4.4c3.6-4.9,10.4-5.9,15.3-2.3
				c4.9,3.6,5.9,10.4,2.3,15.3c-1.1,1.5-2.1,2.9-3.2,4.4c-2.3,3.1-6.1,4.8-10,4.4s-7.2-2.9-8.8-6.5
				C232.9,312.5,233.4,308.4,235.7,305.3z M238.9,300.9c1.1-1.5,2.1-2.9,3.2-4.4c2.3-3.1,6.1-4.8,10-4.4c3.9,0.4,7.2,2.9,8.8,6.5
				c1.6,3.6,1.1,7.7-1.2,10.8c-1.1,1.5-2.1,2.9-3.2,4.4c-3.6,4.9-10.4,5.9-15.3,2.3S235.3,305.7,238.9,300.9L238.9,300.9z
				 M242.1,296.5c1.1-1.5,2.1-2.9,3.2-4.4c2.3-3.1,6.1-4.8,10-4.4s7.2,2.9,8.8,6.5c1.6,3.6,1.1,7.7-1.2,10.8
				c-1.1,1.5-2.1,2.9-3.2,4.4c-3.6,4.9-10.4,5.9-15.3,2.3C239.6,308.2,238.5,301.4,242.1,296.5z M245.3,292.1
				c1.1-1.5,2.1-2.9,3.2-4.4c2.3-3.1,6.1-4.8,10-4.4c3.9,0.4,7.2,2.9,8.8,6.5s1.1,7.7-1.2,10.8c-1.1,1.5-2.1,2.9-3.2,4.4
				c-3.6,4.9-10.4,5.9-15.3,2.3C242.8,303.8,241.7,297,245.3,292.1L245.3,292.1z M248.5,287.7c1.1-1.5,2.1-2.9,3.2-4.4
				c3.6-4.9,10.4-5.9,15.3-2.3c4.9,3.6,5.9,10.4,2.3,15.3c-1.1,1.5-2.1,2.9-3.2,4.4c-2.3,3.1-6.1,4.8-10,4.4
				c-3.9-0.4-7.2-2.9-8.8-6.5C245.8,295,246.2,290.9,248.5,287.7z M251.7,283.4c1.1-1.5,2.1-2.9,3.2-4.4c2.3-3.1,6.1-4.8,10-4.4
				s7.2,2.9,8.8,6.5c1.6,3.6,1.1,7.7-1.2,10.8c-1.1,1.5-2.1,2.9-3.2,4.4c-2.3,3.1-6.1,4.8-10,4.4c-3.9-0.4-7.2-2.9-8.8-6.5
				C249,290.6,249.4,286.5,251.7,283.4L251.7,283.4z M255,279c1.1-1.5,2.1-2.9,3.2-4.4c2.3-3.1,6.1-4.8,10-4.4
				c3.9,0.4,7.2,2.9,8.8,6.5c1.6,3.6,1.1,7.7-1.2,10.8c-1.1,1.5-2.1,2.9-3.2,4.4c-3.6,4.9-10.4,5.9-15.3,2.3
				C252.4,290.7,251.4,283.8,255,279z M258.2,274.6c1.1-1.5,2.1-2.9,3.2-4.4c3.6-4.9,10.4-5.9,15.3-2.3c4.9,3.6,5.9,10.4,2.3,15.3
				c-1.1,1.5-2.1,2.9-3.2,4.4c-3.6,4.9-10.4,5.9-15.3,2.3C255.7,286.3,254.6,279.5,258.2,274.6z M261.4,270.2
				c1.1-1.5,2.1-2.9,3.2-4.4c2.3-3.1,6.1-4.8,10-4.4c3.9,0.4,7.2,2.9,8.8,6.5c1.6,3.6,1.1,7.7-1.2,10.8c-1.1,1.5-2.1,2.9-3.2,4.4
				c-2.3,3.1-6.1,4.8-10,4.4s-7.2-2.9-8.8-6.5C258.6,277.5,259.1,273.4,261.4,270.2L261.4,270.2z M264.6,265.8
				c1.1-1.5,2.1-2.9,3.2-4.4c2.3-3.1,6.1-4.8,10-4.4s7.2,2.9,8.8,6.5c1.6,3.6,1.1,7.7-1.2,10.8c-1.1,1.5-2.1,2.9-3.2,4.4
				c-3.6,4.9-10.4,5.9-15.3,2.3S261,270.7,264.6,265.8z M267.8,261.5c1.1-1.5,2.1-2.9,3.2-4.4c2.3-3.1,6.1-4.8,10-4.4
				s7.2,2.9,8.8,6.5c1.6,3.6,1.1,7.7-1.2,10.8c-1.1,1.5-2.1,2.9-3.2,4.4c-2.3,3.1-6.1,4.8-10,4.4s-7.2-2.9-8.8-6.5
				C265.1,268.7,265.5,264.6,267.8,261.5L267.8,261.5z M271,257.1c1.1-1.5,2.1-2.9,3.2-4.4c2.3-3.1,6.1-4.8,10-4.4s7.2,2.9,8.8,6.5
				c1.6,3.6,1.1,7.7-1.2,10.8c-1.1,1.5-2.1,2.9-3.2,4.4c-3.6,4.9-10.4,5.9-15.3,2.3C268.5,268.8,267.5,261.9,271,257.1z
				 M274.2,252.7c1.1-1.5,2.1-2.9,3.2-4.4c3.6-4.9,10.4-5.9,15.3-2.3s5.9,10.4,2.3,15.3c-1.1,1.5-2.1,2.9-3.2,4.4
				c-3.6,4.9-10.4,5.9-15.3,2.3S270.7,257.6,274.2,252.7L274.2,252.7z M277.5,248.3c1.1-1.5,2.1-2.9,3.2-4.4
				c3.6-4.9,10.4-5.9,15.3-2.3c4.9,3.6,5.9,10.4,2.3,15.3c-1.1,1.5-2.1,2.9-3.2,4.4c-3.6,4.9-10.4,5.9-15.3,2.3
				C274.9,260,273.9,253.2,277.5,248.3z M280.7,243.9c1.1-1.5,2.1-2.9,3.2-4.4c3.6-4.9,10.4-5.9,15.3-2.3c4.9,3.6,5.9,10.4,2.3,15.3
				c-1.1,1.5-2.1,2.9-3.2,4.4c-2.3,3.1-6.1,4.8-10,4.4s-7.2-2.9-8.8-6.5C277.9,251.2,278.4,247.1,280.7,243.9L280.7,243.9z
				 M283.9,239.6c1.1-1.5,2.1-2.9,3.2-4.4c3.6-4.9,10.4-5.9,15.3-2.3c4.9,3.6,5.9,10.4,2.3,15.3c-1.1,1.5-2.1,2.9-3.2,4.4
				c-2.3,3.1-6.1,4.8-10,4.4c-3.9-0.4-7.2-2.9-8.8-6.5C281.1,246.8,281.6,242.7,283.9,239.6z M287.1,235.2c1.1-1.5,2.1-2.9,3.2-4.4
				c3.6-4.9,10.4-5.9,15.3-2.3c4.9,3.6,5.9,10.4,2.3,15.3c-1.1,1.5-2.1,2.9-3.2,4.4c-2.3,3.1-6.1,4.8-10,4.4
				c-3.9-0.4-7.2-2.9-8.8-6.5C284.3,242.5,284.8,238.3,287.1,235.2L287.1,235.2z M290.3,230.8c1.1-1.5,2.1-2.9,3.2-4.4
				c2.3-3.1,6.1-4.8,10-4.4c3.9,0.4,7.2,2.9,8.8,6.5c1.6,3.6,1.1,7.7-1.2,10.8c-1.1,1.5-2.1,2.9-3.2,4.4c-2.3,3.1-6.1,4.8-10,4.4
				c-3.9-0.4-7.2-2.9-8.8-6.5C287.6,238.1,288,233.9,290.3,230.8L290.3,230.8z M293.5,226.4c1.1-1.5,2.1-2.9,3.2-4.4
				c3.6-4.9,10.4-5.9,15.3-2.3c4.9,3.6,5.9,10.4,2.3,15.3c-1.1,1.5-2.1,2.9-3.2,4.4c-3.6,4.9-10.4,5.9-15.3,2.3
				S290,231.3,293.5,226.4z M296.8,222c1.1-1.5,2.1-2.9,3.2-4.4c3.6-4.9,10.4-5.9,15.3-2.3c4.9,3.6,5.9,10.4,2.3,15.3
				c-1.1,1.5-2.1,2.9-3.2,4.4c-3.6,4.9-10.4,5.9-15.3,2.3C294.2,233.7,293.2,226.9,296.8,222z M300,217.7c1.1-1.5,2.1-2.9,3.2-4.4
				c3.6-4.9,10.4-5.9,15.3-2.3s5.9,10.4,2.3,15.3c-1.1,1.5-2.1,2.9-3.2,4.4c-2.3,3.1-6.1,4.8-10,4.4c-3.9-0.4-7.2-2.9-8.8-6.5
				S297.7,220.8,300,217.7z M303.2,213.3c1.1-1.5,2.1-2.9,3.2-4.4c3.6-4.9,10.4-5.9,15.3-2.3c4.9,3.6,5.9,10.4,2.3,15.3
				c-1.1,1.5-2.1,2.9-3.2,4.4c-2.3,3.1-6.1,4.8-10,4.4c-3.9-0.4-7.2-2.9-8.8-6.5C300.4,220.6,300.9,216.4,303.2,213.3L303.2,213.3z
				 M306.4,208.9c1.1-1.5,2.1-2.9,3.2-4.4c3.6-4.9,10.4-5.9,15.3-2.3c4.9,3.6,5.9,10.4,2.3,15.3c-1.1,1.5-2.1,2.9-3.2,4.4
				c-2.3,3.1-6.1,4.8-10,4.4c-3.9-0.4-7.2-2.9-8.8-6.5C303.6,216.2,304.1,212,306.4,208.9L306.4,208.9z M309.6,204.5
				c1.1-1.5,2.1-2.9,3.2-4.4c3.6-4.9,10.4-5.9,15.3-2.3c4.9,3.6,5.9,10.4,2.3,15.3c-1.1,1.5-2.1,2.9-3.2,4.4
				c-3.6,4.9-10.4,5.9-15.3,2.3S306,209.4,309.6,204.5z M312.8,200.1c1.1-1.5,2.1-2.9,3.2-4.4c3.6-4.9,10.4-5.9,15.3-2.3
				s5.9,10.4,2.3,15.3c-1.1,1.5-2.1,2.9-3.2,4.4c-2.3,3.1-6.1,4.8-10,4.4s-7.2-2.9-8.8-6.5S310.5,203.3,312.8,200.1L312.8,200.1z
				 M316,195.8c1.1-1.5,2.1-2.9,3.2-4.4c3.6-4.9,10.4-5.9,15.3-2.3c4.9,3.6,5.9,10.4,2.3,15.3c-1.1,1.5-2.1,2.9-3.2,4.4
				c-3.6,4.9-10.4,5.9-15.3,2.3S312.5,200.6,316,195.8z M319.3,191.4c1.1-1.5,2.1-2.9,3.2-4.4c3.6-4.9,10.4-5.9,15.3-2.3
				s5.9,10.4,2.3,15.3c-1.1,1.5-2.1,2.9-3.2,4.4c-3.6,4.9-10.4,5.9-15.3,2.3C316.7,203.1,315.7,196.2,319.3,191.4z M322.5,187
				c1.1-1.5,2.1-2.9,3.2-4.4c2.3-3.1,6.1-4.8,10-4.4c3.9,0.4,7.2,2.9,8.8,6.5c1.6,3.6,1.1,7.7-1.2,10.8c-1.1,1.5-2.1,2.9-3.2,4.4
				c-3.6,4.9-10.4,5.9-15.3,2.3C320,198.7,318.9,191.9,322.5,187L322.5,187z M325.7,182.6c1.1-1.5,2.1-2.9,3.2-4.4
				c3.6-4.9,10.4-5.9,15.3-2.3c4.9,3.6,5.9,10.4,2.3,15.3c-1.1,1.5-2.1,2.9-3.2,4.4c-3.6,4.9-10.4,5.9-15.3,2.3
				C323.2,194.3,322.1,187.5,325.7,182.6L325.7,182.6z M328.9,178.2c1.1-1.5,2.1-2.9,3.2-4.4c2.3-3.1,6.1-4.8,10-4.4
				s7.2,2.9,8.8,6.5c1.6,3.6,1.1,7.7-1.2,10.8c-1.1,1.5-2.1,2.9-3.2,4.4c-3.6,4.9-10.4,5.9-15.3,2.3S325.3,183.1,328.9,178.2
				L328.9,178.2z M332.1,173.9c1.1-1.5,2.1-2.9,3.2-4.4c3.6-4.9,10.4-5.9,15.3-2.3c4.9,3.6,5.9,10.4,2.3,15.3
				c-1.1,1.5-2.1,2.9-3.2,4.4c-2.3,3.1-6.1,4.8-10,4.4c-3.9-0.4-7.2-2.9-8.8-6.5C329.4,181.1,329.8,177,332.1,173.9z M335.3,169.5
				c1.1-1.5,2.1-2.9,3.2-4.4c3.6-4.9,10.4-5.9,15.3-2.3s5.9,10.4,2.3,15.3c-1.1,1.5-2.1,2.9-3.2,4.4c-2.3,3.1-6.1,4.8-10,4.4
				c-3.9-0.4-7.2-2.9-8.8-6.5C332.6,176.8,333,172.6,335.3,169.5L335.3,169.5z M338.5,165.1c1.1-1.5,2.1-2.9,3.2-4.4
				c2.3-3.1,6.1-4.8,10-4.4c3.9,0.4,7.2,2.9,8.8,6.5c1.6,3.6,1.1,7.7-1.2,10.8c-1.1,1.5-2.1,2.9-3.2,4.4c-3.6,4.9-10.4,5.9-15.3,2.3
				S335,170,338.5,165.1L338.5,165.1z M341.8,160.7c1.1-1.5,2.1-2.9,3.2-4.4c2.3-3.1,6.1-4.8,10-4.4c3.9,0.4,7.2,2.9,8.8,6.5
				c1.6,3.6,1.1,7.7-1.2,10.8c-1.1,1.5-2.1,2.9-3.2,4.4c-3.6,4.9-10.4,5.9-15.3,2.3S338.2,165.6,341.8,160.7z M345,156.3
				c1.1-1.5,2.1-2.9,3.2-4.4c3.6-4.9,10.4-5.9,15.3-2.3c4.9,3.6,5.9,10.4,2.3,15.3c-1.1,1.5-2.1,2.9-3.2,4.4
				c-3.6,4.9-10.4,5.9-15.3,2.3C342.5,168,341.4,161.2,345,156.3L345,156.3z M348.2,152c1.1-1.5,2.1-2.9,3.2-4.4
				c3.6-4.9,10.4-5.9,15.3-2.3s5.9,10.4,2.3,15.3c-1.1,1.5-2.1,2.9-3.2,4.4c-3.6,4.9-10.4,5.9-15.3,2.3
				C345.7,163.6,344.6,156.8,348.2,152L348.2,152z M351.4,147.6c1.1-1.5,2.1-2.9,3.2-4.4c3.6-4.9,10.4-5.9,15.3-2.3
				c4.9,3.6,5.9,10.4,2.3,15.3c-1.1,1.5-2.1,2.9-3.2,4.4c-2.3,3.1-6.1,4.8-10,4.4s-7.2-2.9-8.8-6.5S349.1,150.7,351.4,147.6
				L351.4,147.6z M354.6,143.2c1.1-1.5,2.1-2.9,3.2-4.4c3.6-4.9,10.4-5.9,15.3-2.3s5.9,10.4,2.3,15.3c-1.1,1.5-2.1,2.9-3.2,4.4
				c-2.3,3.1-6.1,4.8-10,4.4c-3.9-0.4-7.2-2.9-8.8-6.5C351.9,150.5,352.3,146.3,354.6,143.2L354.6,143.2z M357.8,138.8
				c1.1-1.5,2.1-2.9,3.2-4.4c3.6-4.9,10.4-5.9,15.3-2.3c4.9,3.6,5.9,10.4,2.3,15.3c-1.1,1.5-2.1,2.9-3.2,4.4
				c-3.6,4.9-10.4,5.9-15.3,2.3S354.3,143.7,357.8,138.8z M361.1,134.4c1.1-1.5,2.1-2.9,3.2-4.4c3.6-4.9,10.4-5.9,15.3-2.3
				c4.9,3.6,5.9,10.4,2.3,15.3c-1.1,1.5-2.1,2.9-3.2,4.4c-2.3,3.1-6.1,4.8-10,4.4c-3.9-0.4-7.2-2.9-8.8-6.5
				C358.3,141.7,358.7,137.6,361.1,134.4L361.1,134.4z M364.3,130c1.1-1.5,2.1-2.9,3.2-4.4c3.6-4.9,10.4-5.9,15.3-2.3
				s5.9,10.4,2.3,15.3c-1.1,1.5-2.1,2.9-3.2,4.4c-2.3,3.1-6.1,4.8-10,4.4s-7.2-2.9-8.8-6.5S362,133.2,364.3,130L364.3,130z
				 M367.5,125.7c1.1-1.5,2.1-2.9,3.2-4.4c3.6-4.9,10.4-5.9,15.3-2.3c4.9,3.6,5.9,10.4,2.3,15.3c-1.1,1.5-2.1,2.9-3.2,4.4
				c-3.6,4.9-10.4,5.9-15.3,2.3C365,137.4,363.9,130.5,367.5,125.7z M370.7,121.3c1.1-1.5,2.1-2.9,3.2-4.4
				c3.6-4.9,10.4-5.9,15.3-2.3c4.9,3.6,5.9,10.4,2.3,15.3c-1.1,1.5-2.1,2.9-3.2,4.4c-2.3,3.1-6.1,4.8-10,4.4s-7.2-2.9-8.8-6.5
				C367.9,128.6,368.4,124.4,370.7,121.3L370.7,121.3z M373.9,116.9c1.1-1.5,2.1-2.9,3.2-4.4c3.6-4.9,10.4-5.9,15.3-2.3
				c4.9,3.6,5.9,10.4,2.3,15.3c-1.1,1.5-2.1,2.9-3.2,4.4c-3.6,4.9-10.4,5.9-15.3,2.3C371.4,128.6,370.3,121.8,373.9,116.9
				L373.9,116.9z M377.1,112.5c1.1-1.5,2.1-2.9,3.2-4.4c3.6-4.9,10.4-5.9,15.3-2.3c4.9,3.6,5.9,10.4,2.3,15.3
				c-1.1,1.5-2.1,2.9-3.2,4.4c-3.6,4.9-10.4,5.9-15.3,2.3C374.6,124.2,373.6,117.4,377.1,112.5L377.1,112.5z M380.3,108.1
				c1.1-1.5,2.1-2.9,3.2-4.4c3.6-4.9,10.4-5.9,15.3-2.3c4.9,3.6,5.9,10.4,2.3,15.3c-1.1,1.5-2.1,2.9-3.2,4.4
				c-2.3,3.1-6.1,4.8-10,4.4c-3.9-0.4-7.2-2.9-8.8-6.5C377.6,115.4,378,111.3,380.3,108.1L380.3,108.1z M383.6,103.8
				c1.1-1.5,2.1-2.9,3.2-4.4c3.6-4.9,10.4-5.9,15.3-2.3c4.9,3.6,5.9,10.4,2.3,15.3c-1.1,1.5-2.1,2.9-3.2,4.4
				c-3.6,4.9-10.4,5.9-15.3,2.3C381,115.5,380,108.6,383.6,103.8L383.6,103.8z M386.8,99.4c1.1-1.5,2.1-2.9,3.2-4.4
				c3.6-4.9,10.4-5.9,15.3-2.3c4.9,3.6,5.9,10.4,2.3,15.3c-1.1,1.5-2.1,2.9-3.2,4.4c-3.6,4.9-10.4,5.9-15.3,2.3
				C384.3,111.1,383.2,104.2,386.8,99.4z M390,95c1.1-1.5,2.1-2.9,3.2-4.4c2.3-3.1,6.1-4.8,10-4.4s7.2,2.9,8.8,6.5
				c1.6,3.6,1.1,7.7-1.2,10.8c-1.1,1.5-2.1,2.9-3.2,4.4c-3.6,4.9-10.4,5.9-15.3,2.3C387.5,106.7,386.4,99.9,390,95L390,95z
				 M393.2,90.6c1.1-1.5,2.1-2.9,3.2-4.4c3.6-4.9,10.4-5.9,15.3-2.3c4.9,3.6,5.9,10.4,2.3,15.3c-1.1,1.5-2.1,2.9-3.2,4.4
				c-2.3,3.1-6.1,4.8-10,4.4c-3.9-0.4-7.2-2.9-8.8-6.5C390.4,97.9,390.9,93.8,393.2,90.6L393.2,90.6z M396.4,86.2
				c1.1-1.5,2.1-2.9,3.2-4.4c3.6-4.9,10.4-5.9,15.3-2.3c4.9,3.6,5.9,10.4,2.3,15.3c-1.1,1.5-2.1,2.9-3.2,4.4
				c-2.3,3.1-6.1,4.8-10,4.4c-3.9-0.4-7.2-2.9-8.8-6.5S394.1,89.4,396.4,86.2L396.4,86.2z M399.6,81.9c1.1-1.5,2.1-2.9,3.2-4.4
				c2.3-3.1,6.1-4.8,10-4.4c3.9,0.4,7.2,2.9,8.8,6.5c1.6,3.6,1.1,7.7-1.2,10.8c-1.1,1.5-2.1,2.9-3.2,4.4c-2.3,3.1-6.1,4.8-10,4.4
				c-3.9-0.4-7.2-2.9-8.8-6.5C396.9,89.1,397.3,85,399.6,81.9L399.6,81.9z M402.8,77.5c1.1-1.5,2.1-2.9,3.2-4.4
				c2.3-3.1,6.1-4.8,10-4.4c3.9,0.4,7.2,2.9,8.8,6.5c1.6,3.6,1.1,7.7-1.2,10.8c-1.1,1.5-2.1,2.9-3.2,4.4c-3.6,4.9-10.4,5.9-15.3,2.3
				C400.3,89.2,399.3,82.3,402.8,77.5L402.8,77.5z M406.1,73.1c1.1-1.5,2.1-2.9,3.2-4.4c2.3-3.1,6.1-4.8,10-4.4
				c3.9,0.4,7.2,2.9,8.8,6.5c1.6,3.6,1.1,7.7-1.2,10.8c-1.1,1.5-2.1,2.9-3.2,4.4c-3.6,4.9-10.4,5.9-15.3,2.3
				C403.5,84.8,402.5,78,406.1,73.1L406.1,73.1z M409.3,68.7c1.1-1.5,2.1-2.9,3.2-4.4c3.6-4.9,10.4-5.9,15.3-2.3
				c4.9,3.6,5.9,10.4,2.3,15.3c-1.1,1.5-2.1,2.9-3.2,4.4c-3.6,4.9-10.4,5.9-15.3,2.3C406.8,80.4,405.7,73.6,409.3,68.7z M412.5,64.3
				c1.1-1.5,2.1-2.9,3.2-4.4c3.6-4.9,10.4-5.9,15.3-2.3c4.9,3.6,5.9,10.4,2.3,15.3c-1.1,1.5-2.1,2.9-3.2,4.4
				c-2.3,3.1-6.1,4.8-10,4.4c-3.9-0.4-7.2-2.9-8.8-6.5C409.7,71.6,410.2,67.5,412.5,64.3L412.5,64.3z M415.7,60
				c1.1-1.5,2.1-2.9,3.2-4.4c2-2.7,4.9-4.2,8-4.4c2.4,1.6,4.8,3.1,7.2,4.7c1.3,0.8,2.6,1.6,3.8,2.4c1.2,3.3,0.8,7.2-1.4,10.3
				c-1.1,1.5-2.1,2.9-3.2,4.4c-3.6,4.9-10.4,5.9-15.3,2.3C413.2,71.7,412.1,64.8,415.7,60L415.7,60z M418.9,55.6
				c1.1-1.5,2.1-2.9,3.2-4.4c0.5-0.7,1.2-1.4,1.9-2c0.3,0.2,0.5,0.4,0.8,0.5c0,0,0,0,0,0c3.1,2,6.1,4,9.3,6c2.5,1.5,4.9,3.1,7.4,4.6
				c-0.3,1.3-0.9,2.6-1.8,3.7c-1.1,1.5-2.1,2.9-3.2,4.4c-3.6,4.9-10.4,5.9-15.3,2.3C416.4,67.3,415.4,60.4,418.9,55.6L418.9,55.6z
				 M422.1,51.2c0.5-0.7,1.1-1.4,1.6-2.2c0.4,0.2,0.7,0.5,1.1,0.7c0,0,0,0,0,0c3.1,2,6.1,4,9.3,6c2.7,1.7,5.4,3.3,8.1,5
				c-0.8,1.1-1.6,2.2-2.4,3.3c-2.3,3.1-6.1,4.8-10,4.4c-3.9-0.4-7.2-2.9-8.8-6.5C419.4,58.5,419.8,54.3,422.1,51.2L422.1,51.2z"/>
			<path id="path88" class="st7" d="M427.2,25.7c1.4,0.9,2.9,1.8,4.3,2.7c3.3,2.1,5.2,5.8,5.1,9.7c-0.2,3.9-2.4,7.4-5.9,9.2
				s-7.6,1.6-10.9-0.5c-1.4-0.9-2.9-1.8-4.3-2.7c-5.1-3.2-6.6-10-3.4-15.1C415.4,23.9,422.2,22.4,427.2,25.7z M431.6,28.4
				c1.4,0.9,2.9,1.8,4.3,2.7c3.3,2.1,5.2,5.8,5.1,9.7c-0.2,3.9-2.4,7.4-5.9,9.2c-3.5,1.8-7.6,1.6-10.9-0.5c-1.4-0.9-2.9-1.8-4.3-2.7
				c-5.1-3.2-6.6-10-3.4-15.1C419.7,26.7,426.5,25.2,431.6,28.4z M435.9,31.1c1.4,0.9,2.9,1.8,4.3,2.7c5.1,3.2,6.6,10,3.4,15.1
				c-3.2,5.1-10,6.6-15.1,3.4c-1.4-0.9-2.9-1.8-4.3-2.7c-5.1-3.2-6.6-10-3.4-15.1C424,29.4,430.8,27.9,435.9,31.1L435.9,31.1z
				 M440.2,33.9c1.4,0.9,2.9,1.8,4.3,2.7c5.1,3.2,6.6,10,3.4,15.1s-10,6.6-15.1,3.4c-1.4-0.9-2.9-1.8-4.3-2.7
				c-3.3-2.1-5.2-5.8-5.1-9.7c0.2-3.9,2.4-7.4,5.9-9.2C432.7,31.6,436.9,31.8,440.2,33.9z M444.5,36.6c1.4,0.9,2.9,1.8,4.3,2.7
				c5.1,3.2,6.6,10,3.4,15.1c-3.2,5.1-10,6.6-15.1,3.4c-1.4-0.9-2.9-1.8-4.3-2.7c-5.1-3.2-6.6-10-3.4-15.1
				C432.7,34.9,439.4,33.4,444.5,36.6L444.5,36.6z M448.8,39.3c1.4,0.9,2.9,1.8,4.3,2.7c5.1,3.2,6.6,10,3.4,15.1
				c-3.2,5.1-10,6.6-15.1,3.4c-0.7-0.5-1.4-0.9-2.2-1.4c-0.4-0.2-0.7-0.5-1.1-0.7c-0.7-0.5-1.5-0.9-2.1-1.5
				c-4.4-3.7-5.3-10.2-1.9-14.8C437.5,37.5,443.9,36.3,448.8,39.3L448.8,39.3z M453.1,42.1c1.4,0.9,2.9,1.8,4.3,2.7
				c5.1,3.2,6.6,10,3.4,15.1c-3.2,5.1-10,6.6-15.1,3.4c-1.4-0.9-2.9-1.8-4.3-2.7c-3.3-2.1-5.2-5.8-5.1-9.7c0.2-3.9,2.4-7.4,5.9-9.2
				C445.7,39.8,449.8,40,453.1,42.1z M457.4,44.8c1.4,0.9,2.9,1.8,4.3,2.7c5.1,3.2,6.6,10,3.4,15.1c-3.2,5.1-10,6.6-15.1,3.4
				c-1.4-0.9-2.9-1.8-4.3-2.7c-3.3-2.1-5.2-5.8-5.1-9.7c0.2-3.9,2.4-7.4,5.9-9.2C450,42.5,454.1,42.7,457.4,44.8L457.4,44.8z
				 M465.9,50.1c0.3,1.7,0.5,3.4,0.8,5.1c0.6,3.9-1,7.7-4,10.2c-3.1,2.4-7.2,3-10.8,1.6c-3.6-1.4-6.2-4.7-6.8-8.5
				c-0.3-1.7-0.5-3.4-0.8-5.1c-0.9-6,3.2-11.5,9.2-12.4C459.5,40,465,44.1,465.9,50.1z M465.2,45.1c0.3,1.7,0.5,3.4,0.8,5.1
				c0.9,6-3.2,11.5-9.2,12.4c-6,0.9-11.5-3.2-12.4-9.2c-0.3-1.7-0.5-3.4-0.8-5.1c-0.9-6,3.2-11.5,9.2-12.4
				C458.7,35,464.3,39.1,465.2,45.1z M464.4,40c0.3,1.7,0.5,3.4,0.8,5.1c0.6,3.9-1,7.7-4,10.2c-3.1,2.4-7.2,3-10.8,1.6
				c-3.6-1.4-6.2-4.7-6.8-8.5c-0.3-1.7-0.5-3.4-0.8-5.1c-0.9-6,3.2-11.5,9.2-12.4C458,29.9,463.5,34,464.4,40z M463.7,34.9
				c0.3,1.7,0.5,3.4,0.8,5.1c0.9,6-3.2,11.5-9.2,12.4c-6,0.9-11.5-3.2-12.4-9.2c-0.3-1.7-0.5-3.4-0.8-5.1c-0.9-6,3.2-11.5,9.2-12.4
				C457.2,24.9,462.8,29,463.7,34.9z M462.9,29.9c0.3,1.7,0.5,3.4,0.8,5.1c0.9,6-3.2,11.5-9.2,12.4c-6,0.9-11.5-3.2-12.4-9.2
				c-0.3-1.7-0.5-3.4-0.8-5.1c-0.9-6,3.2-11.5,9.2-12.4C456.5,19.8,462,23.9,462.9,29.9z M462.2,24.8c0.3,1.7,0.5,3.4,0.8,5.1
				c0.6,3.9-1,7.7-4,10.2c-3.1,2.4-7.2,3-10.8,1.6c-3.6-1.4-6.2-4.7-6.8-8.5c-0.3-1.7-0.5-3.4-0.8-5.1c-0.6-3.9,1-7.7,4-10.2
				s7.2-3,10.8-1.6C459,17.7,461.6,21,462.2,24.8z M443.4,17.3c1.7-0.5,3.3-0.9,5-1.4c5.8-1.6,11.8,1.8,13.5,7.6s-1.8,11.8-7.6,13.5
				c-1.7,0.5-3.3,0.9-5,1.4c-5.8,1.6-11.8-1.8-13.5-7.6S437.6,19,443.4,17.3L443.4,17.3z M438.4,18.7c1.7-0.5,3.3-0.9,5-1.4
				c3.8-1.1,7.8,0,10.6,2.7c2.8,2.7,3.9,6.7,3,10.5c-1,3.8-3.9,6.8-7.6,7.8c-0.8,0.2-1.7,0.5-2.5,0.7c-0.4,0.1-0.9,0.2-1.3,0.4
				c-0.8,0.2-1.7,0.5-2.5,0.6c-5.7,0.9-11.1-2.9-12.3-8.5C429.5,25.9,432.9,20.3,438.4,18.7z M433.4,20.2c1.7-0.5,3.3-0.9,5-1.4
				c3.8-1.1,7.8,0,10.6,2.7c2.8,2.7,3.9,6.7,3,10.5c-1,3.8-3.9,6.8-7.6,7.8c-1.7,0.5-3.3,0.9-5,1.4c-5.8,1.6-11.8-1.8-13.5-7.6
				C424.2,27.8,427.6,21.8,433.4,20.2z M428.4,21.6c1.7-0.5,3.3-0.9,5-1.4c3.8-1.1,7.8,0,10.6,2.7c2.8,2.7,3.9,6.7,3,10.5
				c-1,3.8-3.9,6.8-7.6,7.8c-1.7,0.5-3.3,0.9-5,1.4c-3.8,1.1-7.8,0-10.6-2.7c-2.8-2.7-3.9-6.7-3-10.5
				C421.8,25.6,424.7,22.6,428.4,21.6z M423.4,23c1.7-0.5,3.3-0.9,5-1.4c5.8-1.6,11.8,1.8,13.5,7.6c1.6,5.8-1.8,11.8-7.6,13.5
				c-1.7,0.5-3.3,0.9-5,1.4c-5.8,1.6-11.8-1.8-13.5-7.6S417.6,24.6,423.4,23L423.4,23z M418.4,24.4c1.7-0.5,3.3-0.9,5-1.4
				c3.8-1.1,7.8,0,10.6,2.7c2.8,2.7,3.9,6.7,3,10.5c-1,3.8-3.9,6.8-7.6,7.8c-1.7,0.5-3.3,0.9-5,1.4c-3.8,1.1-7.8,0-10.6-2.7
				c-2.8-2.7-3.9-6.7-3-10.5C411.8,28.4,414.7,25.4,418.4,24.4z"/>
		</g>
		<g>
			<g id="g94" transform="matrix(0.5454546,0,0,-0.5454546,0,419.528)">
				<path id="path96" class="st8" d="M887.9,639.9c-0.8,1-1.4,2.1-2,3.3c-0.5,1.2-1.1,2.5-1.7,4.1c-0.6,1.5-1.1,3.2-1.6,5
					c-0.4,1.9-0.7,3.7-0.8,5.6c-0.1,1.9,0.1,3.4,0.7,4.8c0.6,1.3,1.7,2.4,3.4,3.2c1.7,0.8,3.6,1.4,5.5,1.7c2,0.3,4,0.4,6.2,0.2
					c2.2-0.2,3.6-0.3,4.4-0.5c1.1-0.2,3-1.2,5.7-2.8"/>
			</g>
			<g id="g98" transform="matrix(0.5454546,0,0,-0.5454546,0,419.528)">
				<path id="path100" class="st8" d="M885.2,649.6c1.4,0,3,0,4.9,0.1c1.2,0.1,2.5,0,3.8-0.1c1.3-0.1,2.2-0.2,2.6-0.3
					c0.6-0.1,1.9-1,3.7-2.6"/>
			</g>
			<g id="g102" transform="matrix(0.5454546,0,0,-0.5454546,0,419.528)">
				<path id="path104" class="st8" d="M886.7,633.5c1.1-0.3,2.3-0.4,3.5-0.5c1.7-0.1,6.6-0.9,14.7-2.4"/>
			</g>
			<g id="g106" transform="matrix(0.5454546,0,0,-0.5454546,0,419.528)">
				<path id="path108" class="st8" d="M918.6,657.7c0,3.8,0,6.5,0,8c0,1.6,0.2,2.8,0.6,3.5"/>
			</g>
			<g id="g110" transform="matrix(0.5454546,0,0,-0.5454546,0,419.528)">
				<path id="path112" class="st8" d="M916.8,649.4c-0.1-0.8-0.1-1.3,0.2-1.5"/>
			</g>
			<g id="g114" transform="matrix(0.5454546,0,0,-0.5454546,0,419.528)">
				<path id="path116" class="st8" d="M925.9,656.5c0,4.2,0,6.9,0.1,8c0,0.8,0.1,1.5,0.2,2.2c0.1,0.7,0.2,1,0.4,1s0.3-0.5,0.6-1.3
					c0.3-0.8,0.6-1.9,1.1-3.1c0.4-1.2,0.9-2.3,1.4-3.2c0.5-0.9,0.8-1.6,1.1-2c0.3-0.4,0.7-1,1.3-1.7c0.6-0.7,1.1-1.1,1.4-1.4
					c0.3-0.2,0.8-0.5,1.5-0.7c0.7-0.2,1.2-0.4,1.5-0.4c0.3,0,0.7,0,1.3,0.2c0.6,0.1,1,0.3,1.2,0.5c0.2,0.2,0.5,0.6,0.9,1.3
					c0.4,0.7,0.6,1.2,0.7,1.6c0.1,0.4,0.2,1.1,0.3,2.1s0.1,2.2,0,3.5c-0.1,2-0.6,3.7-1.6,5"/>
			</g>
		</g>
		<g>
			<g id="g118" transform="matrix(0.5454546,0,0,-0.5454546,0,419.528)">
				<path id="path120" class="st9" d="M217.6,121.8c-0.2-1.9,0-3.7,0.6-5.4c0.4-1.1,0.7-1.8,0.9-2.2c0.2-0.3,0.6-0.8,1.3-1.6
					c0.7-0.7,1.2-1.2,1.4-1.4s0.9-0.4,1.7-0.7s1.5-0.4,1.9-0.5c0.4,0,1,0,1.9,0.1c0.9,0.1,1.5,0.2,1.8,0.4c0.3,0.2,0.8,0.6,1.5,1.4
					c0.7,0.8,1.1,1.3,1.3,1.7c0.2,0.4,0.4,1.1,0.7,2.2s0.4,1.8,0.5,2.2c0,0.4,0,1.1-0.1,2c-0.1,0.9-0.3,1.5-0.4,1.8
					c-0.2,0.3-0.6,0.8-1.4,1.5c-0.8,0.7-1.4,1.1-1.8,1.3c-0.4,0.2-1.4,0.4-2.8,0.6c-1.5,0.2-2.5,0.3-3.2,0.3c-0.7,0-1.6-0.1-2.9-0.4
					c-1.3-0.3-2.1-0.6-2.4-0.7c-0.4-0.2-0.8-0.6-1.2-1.3c-0.5-0.7-0.7-1.5-0.8-2.5c-0.1-1.5,0.3-2.6,1.2-3.3"/>
			</g>
			<g id="g122" transform="matrix(0.5454546,0,0,-0.5454546,0,419.528)">
				<path id="path124" class="st9" d="M243.4,110.4c0.2-0.6,0.2-1,0.3-1.1c0-0.1,0,0-0.1,0.1c-0.1,0.1-0.4,0.6-0.8,1.3
					c-0.5,0.7-0.9,1.7-1.4,2.9c-0.5,1.2-0.8,2.4-1,3.6c-0.2,1.2-0.3,2-0.3,2.3c0,0.3,0.1,0.8,0.4,1.4c0.3,0.6,0.5,1,0.8,1.2
					c0.2,0.2,0.6,0.4,1.3,0.7c0.7,0.2,1.2,0.4,1.5,0.4c0.3,0,0.8-0.1,1.6-0.4c0.8-0.3,1.3-0.6,1.6-0.9c0.3-0.3,0.9-0.9,1.6-1.9
					c0.7-1,1.2-1.6,1.5-2.1c0.3-0.4,0.6-1.2,1.1-2.2c0.4-1,0.7-2,0.9-3c0.1-1,0.1-1.5-0.2-1.5c-0.3,0-0.5,0.2-0.7,0.7
					c-0.2,0.5-0.3,1.5-0.4,2.9c-0.1,1.4,0,2.4,0.1,3.1c0.2,0.7,0.3,1.2,0.4,1.5s0.4,0.7,0.9,1.2c0.5,0.5,0.8,0.9,1,1
					c0.2,0.2,0.6,0.3,1.2,0.5c0.8,0.3,1.7,0.3,2.6,0"/>
			</g>
			<g id="g126" transform="matrix(0.5454546,0,0,-0.5454546,0,419.528)">
				<path id="path128" class="st9" d="M264.8,101.8c0.1-0.7,0.1-1.1,0.1-1.2c0,0,0,0,0,0.1c0,0.1,0,1.1,0,3c0,1.9,0,4.2,0,6.9
					c0,2.7,0,4.8-0.1,6.2c-0.1,2.1-0.1,4.2-0.2,6.4"/>
			</g>
			<g id="g130" transform="matrix(0.5454546,0,0,-0.5454546,0,419.528)">
				<path id="path132" class="st9" d="M261.6,105.2c-0.2,0-0.4,0-0.4,0c0,0,0,0,0.1,0.1c0.1,0,0.2,0.1,0.4,0.2
					c0.2,0.1,0.6,0.2,1.2,0.3c0.6,0.1,1.6,0.1,3,0.2c2.1,0,4.9-0.3,8.3-0.9"/>
			</g>
			<g id="g134" transform="matrix(0.5454546,0,0,-0.5454546,0,419.528)">
				<path id="path136" class="st9" d="M190.8,99.6c-0.9,1.4-1.9,3-3.1,5c-0.8,1.3-1.5,2.8-2.2,4.7c-0.7,1.8-1.2,3.7-1.5,5.7
					c-0.3,1.9-0.3,3.7,0,5.2c0.3,1.5,1.3,2.8,2.9,3.8c1.6,1,3.7,1.7,6.2,2.1c2.5,0.3,4.9,0.3,7.3-0.1c2.4-0.4,4.6-1.1,6.5-2
					c3-1.4,4.9-3,5.8-4.9"/>
			</g>
			<g id="g138" transform="matrix(0.5454546,0,0,-0.5454546,0,419.528)">
				<path id="path140" class="st9" d="M184.6,109.6c1.5-0.1,3-0.1,4.5-0.3c1.5-0.1,3.1-0.3,4.9-0.5c2.6-0.3,4.7-1.3,6.2-2.8"/>
			</g>
			<g id="g142" transform="matrix(0.5454546,0,0,-0.5454546,0,419.528)">
				<path id="path144" class="st9" d="M185.4,94.6c0.3-0.3,0.8-0.6,1.4-0.7c0.6-0.2,2-0.4,4.3-0.8c2.3-0.4,4.2-0.7,5.8-1
					c2.3-0.5,6.8-1.1,13.5-2"/>
			</g>
		</g>
		<g id="g146" transform="matrix(0.5454546,0,0,-0.5454546,0,419.528)">
			<path id="path148" class="st10" d="M696.9,306.3c21.1,17.9,28,39.7,20.7,65.4"/>
		</g>
		<g id="g150" transform="matrix(0.5454546,0,0,-0.5454546,0,419.528)">
			<path id="path152" class="st10" d="M751.2,327.9c0.2-0.8,0-1.4-0.6-1.7c-0.4-0.2-1-0.3-1.8-0.4c-0.8,0-1.4,0-1.8,0.2
				c-0.4,0.2-0.8,0.5-1.2,0.8c-0.4,0.3-1,0.9-1.7,1.7c-0.7,0.8-1.2,1.5-1.6,2c-0.3,0.5-0.6,1-0.9,1.5c-0.3,0.5-0.6,1.3-0.8,2.4
				c-0.3,1.1-0.4,2-0.4,2.7c0,0.7,0,1.4,0.1,1.9c0.1,0.6,0.3,1.2,0.6,1.7s0.7,1.1,1.1,1.6c0.4,0.5,0.8,0.8,1,1
				c0.3,0.2,0.8,0.4,1.6,0.7c0.8,0.3,1.7,0.5,2.5,0.5c0.9,0,1.7,0,2.5-0.1c0.8-0.1,1.4-0.3,1.8-0.4c0.4-0.1,1-0.5,1.8-1
				s1.4-1.2,1.9-1.9c0.5-0.7,0.8-1.2,1-1.5c0.2-0.3,0.6-0.2,1.2,0.2s1.1,0.7,1.4,0.8c0.3,0.1,0.9,0.2,1.7,0.2c0.8,0,1.5,0,2-0.2
				c0.5-0.1,1-0.3,1.5-0.6s0.8-0.5,1.2-0.8c0.3-0.3,0.6-0.9,1-2c0.3-1,0.4-1.9,0.3-2.5s-0.6-1.3-1.5-2c-0.9-0.7-1.8-1.2-2.9-1.6
				c-1.1-0.3-2.1-0.5-3-0.4c-0.9,0.1-1.6,0.4-2.2,1.1c-0.6,0.6-1.1,1.5-1.5,2.6c-0.4,1.1-0.6,2.2-0.6,3.5c0,1.2,0.2,2.4,0.7,3.3
				c0.5,1,1.2,1.7,2.2,2.1c1,0.4,2.2,0.6,3.8,0.4c1.6-0.2,3.1-0.7,4.4-1.6c1.3-0.9,2.3-1.9,2.9-3.1s0.9-2.3,1-3.2
				c0.1-0.9,0.2-1.6,0.2-2.1l0-0.5l0,0c0,0.1,0,0.3-0.1,0.7c0,0.4,0,1,0.1,1.7c0.1,0.7,0.4,1.4,0.8,2.1c0.4,0.7,0.9,1.2,1.6,1.6
				c1,0.6,2.5,0.8,4.8,0.5"/>
		</g>
		<g id="g154" transform="matrix(0.5454546,0,0,-0.5454546,0,419.528)">
			<path id="path156" class="st10" d="M778.9,331.2c-0.1-0.7-0.1-1-0.1-1c0,0,0,0,0,0c0,0,0.1,0.4,0.3,1c0.2,0.6,0.4,1.5,0.8,2.7
				s0.7,2.2,1,2.9c0.3,0.8,0.6,1.5,0.9,2.1c0.3,0.6,0.5,1,0.7,1.3c0.2,0.2,0.4,0.5,0.9,0.9c0.4,0.3,0.8,0.5,1.1,0.6
				c0.3,0,0.6,0,0.9-0.2s0.5-0.5,0.8-0.9c0.3-0.4,0.5-0.9,0.8-1.5c0.3-0.6,0.6-1.5,0.9-2.8c0.3-1.3,0.6-2.5,0.8-3.7
				c0.2-1.1,0.3-2,0.3-2.4c0-0.5,0.1-0.7,0.1-0.8c0,0,0,0,0,0c0,0-0.1,0.3-0.3,0.9"/>
		</g>
		<g id="g158" transform="matrix(0.5454546,0,0,-0.5454546,0,419.528)">
			<path id="path160" class="st10" d="M796.5,332.2c-0.1,0.6-0.1,1.5,0.1,2.9c0.2,1.2,0.4,3.3,0.7,6.4"/>
		</g>
		<g id="g162" transform="matrix(0.5454546,0,0,-0.5454546,0,419.528)">
			<path id="path164" class="st10" d="M806.2,319c0-0.4,0-0.6,0-0.7c0,0,0,0,0,0.1c0,0,0.1,0.4,0.2,1.2c0.1,0.7,0.2,1.6,0.4,2.7
				c0.1,1,0.2,2.1,0.3,3.3c0.1,1.1,0.3,2.8,0.5,5c0.3,3.3,0.8,6.7,1.5,10.1"/>
		</g>
		<g id="g166" transform="matrix(0.5454546,0,0,-0.5454546,0,419.528)">
			<path id="path168" class="st10" d="M797.8,321.8c1.1-0.5,2.3-0.9,3.8-1.1c2.2-0.4,5-0.9,8.3-1.4"/>
		</g>
		<g id="g170" transform="matrix(0.5454546,0,0,-0.5454546,0,419.528)">
			<path id="path172" class="st10" d="M816.4,331.2c0.1,0.6,0.4,1.4,0.9,2.5c0.4,1.1,0.9,2.2,1.3,3.3c0.4,1.1,0.7,1.8,0.8,2.2
				c0.1,0.3,0.4,0.7,0.7,1.2c0.3,0.4,0.6,0.7,0.9,0.9s0.6,0.1,0.8,0c0.2-0.1,0.5-0.4,0.8-0.9c0.3-0.4,0.8-1.4,1.5-2.7
				c0.7-1.4,1.1-2.3,1.3-2.7c0.2-0.4,0.5-1.1,0.9-2c0.4-0.9,0.6-1.4,0.6-1.5l0,0l0,0.1c0,0.1-0.3,0.7-0.7,1.9
				c-0.4,1.2-0.9,2.8-1.4,4.7c-0.5,2-0.8,3.4-1,4.3c-0.2,0.9-0.4,2.1-0.7,3.5c-0.2,1.4-0.5,2.9-0.6,4.5s-0.4,2.9-0.6,3.9"/>
		</g>
		<g id="g174" transform="matrix(0.5454546,0,0,-0.5454546,0,419.528)">
			<path id="path176" class="st10" d="M835.9,343.5c1,0,2.1,0,3.2-0.1c1.6-0.1,3.5-0.4,5.6-0.9"/>
		</g>
		<g id="g178" transform="matrix(0.5454546,0,0,-0.5454546,0,419.528)">
			<path id="path180" class="st10" d="M862.8,334.5c-0.1-0.2-0.3-0.3-0.5-0.3c-0.1,0-0.3,0.1-0.5,0.3c-0.2,0.2-0.4,0.5-0.5,1.1
				c-0.2,0.5-0.3,1.2-0.4,2.2c-0.1,1-0.1,1.9,0,2.9c0.1,1,0.4,1.9,1.1,2.7s1.7,1.3,3.1,1.5c1.4,0.2,2.8,0.1,4.2-0.4
				c1.3-0.5,2.3-1.3,3-2.3c0.7-1,1.1-1.8,1.2-2.2c0.1-0.4,0.2-1.1,0.3-2.1c0.1-0.9,0.1-1.9-0.1-2.8c-0.1-1-0.5-1.7-1.2-2.2
				c-0.7-0.5-1.5-0.8-2.4-0.9c-1-0.1-2,0.1-3.1,0.5c-1.1,0.4-2,1-2.8,1.8c-0.8,0.8-1.4,1.8-1.8,2.9s-0.7,2.2-0.8,3.3
				c-0.1,1.1,0,2,0.4,2.8c0.4,0.8,1.1,1.4,2.2,1.9c1.1,0.5,1.9,0.8,2.3,0.8c0.5,0.1,1.3,0,2.4-0.1c1.1-0.2,2.2-0.7,3.3-1.5
				c1.1-0.9,1.9-1.9,2.6-3.1c0.7-1.2,1.1-2.4,1.4-3.4s0.4-1.8,0.4-2.2c0-0.4-0.1-0.6-0.3-0.5c-0.2,0.1-0.4,0.6-0.5,1.4
				c-0.1,0.8-0.2,1.8-0.1,2.9c0,1.1,0.4,2.1,1,3c0.6,0.9,1.6,1.6,2.8,2s2.5,0.5,3.8,0.3c1.9-0.3,3.5-1.5,4.8-3.9"/>
		</g>
		<g id="g182" transform="matrix(0.5454546,0,0,-0.5454546,0,419.528)">
			<path id="path184" class="st10" d="M889.4,332.3c-0.2,0.3-0.2,0.9-0.2,1.7c0.1,0.8,0.2,1.9,0.4,3.2s0.4,2.8,0.5,4.4
				c0.2,1.7,0.3,2.4,0.4,2.2c0.1-0.2,0.4-0.7,0.8-1.5c0.5-0.8,1.2-1.9,2.2-3.3c1-1.4,2-2.7,3.1-3.7c1-1,1.9-1.7,2.7-2.1
				c0.8-0.4,1.4-0.4,1.9-0.1c0.5,0.3,0.8,1,0.9,2.2c0.1,1.7-0.2,4-0.9,6.9"/>
		</g>
		<g id="g186" transform="matrix(0.5454546,0,0,-0.5454546,0,419.528)">
			<path id="path188" class="st10" d="M907.9,332.6c-0.4,0.3-0.7,0.8-1,1.3c-0.3,0.5-0.5,1.2-0.5,1.9s0.2,1.5,0.8,2.3
				c0.6,0.7,1.4,1.2,2.4,1.5c1,0.2,2.2,0.1,3.4-0.3c1.3-0.5,2.4-1.2,3.4-2.3c1-1.1,1.6-2.2,2-3.3c0.4-1.2,0.4-2.2,0.1-3.2
				s-0.9-1.6-1.8-2.1c-0.9-0.4-1.9-0.4-2.8,0c-0.9,0.5-1.8,1.3-2.5,2.4c-0.8,1.2-1.4,2.4-1.8,3.7c-0.4,1.3-0.6,2.5-0.6,3.6
				s0.4,1.9,1,2.5c0.7,0.6,1.6,0.9,2.7,1c1.2,0.1,2.4,0.2,3.8,0.2s2.4,0.1,3.2,0.3c0.8,0.2,1.5,0.5,2.2,0.9c0.7,0.4,1.2,0.8,1.5,1.2
				c0.3,0.4,0.8,1.3,1.5,2.8c0.7,1.5,1.2,3.2,1.4,4.9c0.3,1.7,0.2,3.4-0.1,5.1c-0.3,1.7-1.2,3.2-2.7,4.5c-1.5,1.4-3.4,2.4-5.7,3
				c-2.3,0.6-4.2,0.8-5.7,0.5c-1.5-0.3-2.5-0.6-3.1-0.9s-1.2-1-1.9-2c-0.7-1-1.2-1.8-1.4-2.3c-0.2-0.5-0.2-1.4,0.1-2.8
				s1-2.9,2.3-4.4c1.9-2.2,6.6-5,14.3-8.4"/>
		</g>
		<g id="g190" transform="matrix(0.5454546,0,0,-0.5454546,0,419.528)">
			<path id="path192" class="st10" d="M931,311c-0.6,0.8-0.9,2.8-0.8,6.1c0,2.1,0.3,4.7,0.7,7.8c0.6,4.6,1.8,11,3.4,19.1"/>
		</g>
		<g id="g194" transform="matrix(0.5454546,0,0,-0.5454546,0,419.528)">
			<path id="path196" class="st10" d="M940.3,335.7c-0.1,0.3,0.1,0.6,0.6,0.8c0.3,0.1,0.9,0.1,1.7-0.1c0.8-0.2,1.6-0.6,2.6-1.2
				c0.9-0.6,1.6-1.3,2.1-2.1c0.5-0.8,0.7-1.5,0.7-2.1c0-0.6-0.3-1.1-0.8-1.3c-0.6-0.2-1.3,0-2.3,0.6c-1,0.6-1.9,1.7-2.6,3.3
				c-0.8,1.6-1.3,3.3-1.5,5.3c-0.2,2,0.1,3.8,0.8,5.4c0.7,1.6,2,2.9,3.7,3.6c1.7,0.8,3.6,0.9,5.5,0.5c1.9-0.4,3.6-1.2,5.1-2.3
				c2.3-1.6,3.7-3.2,4.4-4.7"/>
		</g>
		<g id="g198" transform="matrix(0.5454546,0,0,-0.5454546,0,419.528)">
			<path id="path200" class="st10" d="M696,307.3c0-0.4,0-0.5,0.1-0.5c0,0,0.1,0.1,0.1,0.3c0.1,0.2,0.1,0.6,0.2,1.2
				c0.1,0.7,0.1,1.5,0.1,2.6c0,1.1,0,1.6,0,1.7l0,0l0,0c0-0.1,0-0.6,0.1-1.7c0-1.1,0.1-1.8,0.1-2.2c0-0.4,0-0.8-0.1-1.3
				c-0.1-0.4-0.2-0.8-0.3-1c-0.1-0.2-0.3-0.4-0.5-0.5c-0.2-0.1-0.3-0.2-0.4-0.2c0,0,0.1,0,0.5,0c0.4,0,1.5,0,3.4,0
				c1.9,0,3.1,0,3.8,0c0.7,0,1.2-0.1,1.7-0.2c0.5-0.1,0.9-0.3,1.3-0.4c0.4-0.2,0.7-0.3,0.8-0.5c0.1-0.1,0.2-0.2,0.1-0.1
				c-0.1,0-0.2,0-0.4,0.1c-0.2,0-0.5,0.2-0.8,0.4c-0.3,0.2-0.8,0.6-1.3,1.1c-0.5,0.5-1.1,1.1-1.7,1.7c-0.6,0.6-1.2,1.2-1.7,1.8
				c-0.5,0.5-1,1.1-1.4,1.6c-0.4,0.5-0.7,1.1-1,1.7c-0.3,0.6-0.5,1-0.5,1.1c-0.1,0.2-0.1,0.3-0.1,0.3l0,0l0,0c0-0.1,0.3-0.8,0.9-2.2
				"/>
		</g>
		<g id="g202" transform="matrix(0.5454546,0,0,-0.5454546,0,419.528)">
			<path id="path204" class="st10" d="M528.7,274c71.4-7.5,107.2,26.2,107.5,100.9"/>
		</g>
		<g id="g206" transform="matrix(0.5454546,0,0,-0.5454546,0,419.528)">
			<path id="path208" class="st10" d="M527.9,273.7c0.3,0,0.7,0.2,1.1,0.4c0.4,0.2,0.9,0.6,1.6,1c0.6,0.4,1.2,0.8,1.8,1.1
				s1,0.5,1.3,0.6c0.3,0.1,0.5,0.1,0.5,0.2c0.1,0,0.1,0,0,0c0,0-0.1-0.1-0.3-0.3c-0.2-0.2-0.5-0.3-1-0.6c-0.5-0.2-1.2-0.5-1.9-0.7
				s-1.7-0.5-2.7-0.8c-1.1-0.3-1.7-0.5-1.9-0.6s-0.3-0.3-0.3-0.5c0-0.2,0.1-0.5,0.4-0.9c0.3-0.3,0.6-0.7,1-1
				c0.4-0.3,0.8-0.6,1.3-0.9c0.5-0.3,1.1-0.7,2.1-1.1c0.9-0.5,1.6-0.8,2-0.9c0.4-0.1,0.7-0.3,0.9-0.5c0.2-0.2,0.3,0.5,0.3,2.3
				c0,1.7,0,2.9,0.1,3.4c0,0.5,0.1,1.2,0.3,1.9c0.2,0.7,0.3,0.9,0.3,0.4"/>
		</g>
		<g id="g210" transform="matrix(0.5454546,0,0,-0.5454546,0,419.528)">
			<path id="path212" class="st10" d="M531.9,273c0-0.3,0-0.6,0-0.9"/>
		</g>
		<g id="g214" transform="matrix(0.5454546,0,0,-0.5454546,0,419.528)">
			<path id="path216" class="st10" d="M584.7,233.5c-0.2,0.9-0.3,2.4-0.3,4.5c0,2,0,3.9,0.2,5.6c0.1,1.7,0.3,3.8,0.5,6.3
				c0.4,3.8,0.6,7.1,0.6,10"/>
		</g>
		<g id="g218" transform="matrix(0.5454546,0,0,-0.5454546,0,419.528)">
			<path id="path220" class="st10" d="M583.6,233.5c-0.2-0.3-0.3-0.9-0.3-1.9c0-0.6,0-1.4,0.1-2.3c0.1-1,0.2-1.6,0.3-1.9
				c0.1-0.3,0.3-0.7,0.6-1.2c0.3-0.5,0.6-0.8,0.7-1c0.2-0.2,0.5-0.3,1.1-0.5c0.5-0.2,0.9-0.3,1.2-0.3c0.3,0,0.9,0.1,1.7,0.2
				c0.8,0.2,1.4,0.3,1.8,0.5c0.3,0.2,0.9,0.5,1.5,1.1c0.7,0.6,1.1,1,1.3,1.3c0.2,0.3,0.4,0.7,0.6,1.4c0.2,0.6,0.3,1.1,0.3,1.4
				c0,0.3-0.1,0.7-0.4,1.3s-0.5,1-0.8,1.3c-0.3,0.3-0.9,0.7-1.8,1.2s-1.7,0.9-2.1,1.1c-0.5,0.2-1.1,0.4-2,0.6
				c-0.9,0.2-1.4,0.3-1.8,0.3c-0.4,0-1.1-0.3-2.1-1"/>
		</g>
		<g id="g222" transform="matrix(0.5454546,0,0,-0.5454546,0,419.528)">
			<path id="path224" class="st10" d="M594.3,240.6c-0.2-0.2-0.3,0-0.3,0.6s0,1.2,0,1.7c0,0.6,0.1,1.3,0.2,2.2
				c0.2,0.9,0.4,1.8,0.8,2.7c0.4,0.9,0.7,1.5,0.8,1.6c0.1,0.2,0.4,0.4,0.8,0.6c0.4,0.2,0.7,0.3,0.9,0.4c0.2,0,0.5-0.1,1-0.5
				c0.4-0.3,1-1.1,1.7-2.2c0.7-1.1,1.1-1.9,1.3-2.3c0.2-0.4,0.4-1.1,0.8-2c0.3-0.9,0.5-1.7,0.6-2.3c0.1-0.6,0.2-1,0.2-1.1
				s0-0.1,0-0.1c0,0-0.1,0.2-0.2,0.4c-0.1,0.2-0.2,0.7-0.4,1.4c-0.1,0.7-0.2,1.5-0.2,2.5c0,1,0,1.7,0.1,2c0.1,0.3,0.3,0.7,0.7,1.3
				s0.7,0.9,0.9,1.1c0.2,0.2,0.6,0.4,1.2,0.6c0.9,0.3,1.6,0.4,2.3,0.2"/>
		</g>
		<g id="g226" transform="matrix(0.5454546,0,0,-0.5454546,0,419.528)">
			<path id="path228" class="st10" d="M612,238.9c-0.4,0.4-0.6,0.9-0.7,1.5c-0.1,0.6-0.1,1.4-0.1,2.2c0,0.9,0.1,1.4,0.1,1.7
				c0.1,0.3,0.3,0.7,0.6,1.2c0.3,0.5,0.6,0.9,0.8,1.1c0.2,0.2,0.6,0.4,1.1,0.6c0.6,0.2,1,0.3,1.2,0.4c0.2,0,0.6-0.1,1.1-0.3
				s0.9-0.4,1.1-0.6c0.2-0.2,0.5-0.7,0.9-1.5c0.4-0.8,0.6-1.3,0.8-1.7c0.1-0.4,0.3-0.9,0.5-1.7c0.2-0.8,0.4-1.6,0.4-2.3
				c0.1-0.7,0.1-1.1,0.1-1.1l0,0l0,0c0,0-0.1,0.4-0.1,1.1c-0.1,0.7-0.1,1.6-0.1,2.7c0,1.1,0,1.8,0,2.1c0,0.3,0.2,0.7,0.4,1.2
				c0.3,0.5,0.5,0.8,0.6,0.9c0.2,0.1,0.5,0.2,1,0.3c0.5,0,1.2-0.2,2.1-0.7c0.9-0.5,1.5-0.9,1.8-1.2c0.3-0.3,0.8-0.9,1.5-1.7
				c0.7-0.9,1.3-1.8,1.9-2.7c0.6-0.9,1-1.4,1-1.5c0.1-0.1,0.1,0.4,0.1,1.3c0,0.9,0,1.7,0,2.4c0,1,0.5,2.1,1.3,3.2"/>
		</g>
		<g id="g230" transform="matrix(0.5454546,0,0,-0.5454546,0,419.528)">
			<path id="path232" class="st10" d="M636.4,244.7c0,1.7,0.1,3.9,0.2,6.7c0.1,1.8,0.2,3.3,0.3,4.8s0.2,2.7,0.2,4"/>
		</g>
		<g id="g234" transform="matrix(0.5454546,0,0,-0.5454546,0,419.528)">
			<path id="path236" class="st10" d="M636.3,236.7c-0.1-0.5-0.1-1.1,0.2-2c0.2-0.5,0.5-1.1,1.1-1.7s1-1,1.2-1.1
				c0.3-0.2,0.8-0.3,1.5-0.5c0.8-0.2,1.3-0.3,1.7-0.3c0.3,0,0.9,0.1,1.6,0.2s1.3,0.4,1.5,0.6c0.3,0.2,0.6,0.6,1,1.2
				c0.4,0.6,0.6,1.1,0.7,1.4c0.1,0.3,0.1,0.8,0.1,1.6c0,0.8-0.1,1.3-0.2,1.7s-0.5,0.9-1,1.7c-0.6,0.8-1,1.3-1.4,1.6
				c-0.3,0.3-0.9,0.6-1.8,1c-1.3,0.6-2.9,0.5-5-0.2"/>
		</g>
		<g id="g238" transform="matrix(0.5454546,0,0,-0.5454546,0,419.528)">
			<path id="path240" class="st10" d="M648.3,245.6c1.3,0.1,3.7,0,7.5-0.4"/>
		</g>
		<g id="g242" transform="matrix(0.5454546,0,0,-0.5454546,0,419.528)">
			<path id="path244" class="st10" d="M666.1,235.4c0-0.2-0.1-0.3-0.3-0.3c-0.2,0-0.4,0.2-0.7,0.6c-0.3,0.4-0.5,0.8-0.7,1.4
				s-0.3,1.2-0.4,2.2c-0.1,0.9-0.1,1.5-0.1,1.8c0,0.3,0.1,0.7,0.4,1.3c0.2,0.6,0.4,0.9,0.6,1.2s0.5,0.5,1.1,0.7
				c0.6,0.3,1,0.5,1.3,0.5s0.7,0.1,1.4,0s1.1-0.1,1.4-0.3c0.2-0.1,0.6-0.5,1.1-1.1c0.5-0.6,0.9-1.1,1-1.4c0.2-0.3,0.4-0.9,0.7-1.7
				c0.3-0.8,0.5-1.4,0.5-1.7c0.1-0.3,0.1-0.8,0.1-1.5c0-0.7,0-1.1,0-1.4c0-0.2-0.2-0.6-0.6-1c-0.4-0.4-0.6-0.7-0.8-0.9
				c-0.2-0.1-0.6-0.3-1.3-0.5c-0.7-0.2-1.4-0.2-2-0.1c-0.6,0.1-1.4,0.4-2.2,1c-0.8,0.6-1.3,1-1.5,1.2c-0.2,0.2-0.5,0.8-0.8,1.6
				c-0.3,0.8-0.5,1.6-0.5,2.3c0,0.7,0,1.2,0.1,1.4c0.1,0.3,0.4,0.6,1,1.2c0.5,0.5,0.9,0.8,1.2,1c0.3,0.2,0.8,0.3,1.6,0.4
				c0.8,0.1,1.4,0.2,1.7,0.2c0.4,0,1-0.3,2-0.8c0.9-0.5,1.6-1,2-1.3c0.4-0.3,1-0.9,1.8-1.8c0.8-0.9,1.3-1.4,1.5-1.7
				c0.2-0.3,0.4-0.7,0.7-1.3c0.2-0.6,0.3-1,0.3-1.3c0-0.3-0.2-0.2-0.5,0.1c-0.3,0.3-0.5,0.9-0.6,1.8c-0.1,0.9-0.2,1.4-0.2,1.7
				c0,0.3,0.2,0.8,0.6,1.5c0.4,0.7,0.9,1.3,1.4,1.6c0.9,0.5,1.8,0.8,2.9,0.9"/>
		</g>
		<g id="g246" transform="matrix(0.5454546,0,0,-0.5454546,0,419.528)">
			<path id="path248" class="st10" d="M684.3,234.6c0,0.4,0,1,0,1.7c0,0.5,0.1,1.2,0.3,2.2c0.1,1,0.3,1.9,0.4,2.7
				c0.1,0.8,0.3,1.4,0.4,1.6c0.1,0.3,0.7-0.3,1.6-1.7c0.9-1.4,1.6-2.4,2.1-2.9c0.5-0.5,0.9-1,1.3-1.4c0.4-0.4,0.7-0.7,0.9-0.8
				c0.2-0.2,0.5-0.4,0.9-0.6c0.4-0.2,0.8-0.3,1.2-0.3c0.4,0,0.6,0.1,0.7,0.3c0.1,0.1,0.2,0.6,0.3,1.3c0.1,1.1,0.1,2.4,0,3.7"/>
		</g>
		<g id="g250" transform="matrix(0.5454546,0,0,-0.5454546,0,419.528)">
			<path id="path252" class="st10" d="M700.2,236.2c-0.1,0.6,0.3,1,1,1.3c0.5,0.2,1.1,0.3,1.8,0.4c0.7,0,1.1,0.1,1.3,0
				c0.2,0,0.5-0.2,0.8-0.5c0.3-0.3,0.6-0.6,0.7-0.9c0.1-0.3,0.3-0.6,0.3-1c0.1-0.4,0.1-0.9,0.1-1.6s0-1.2-0.1-1.4
				c-0.1-0.2-0.3-0.5-0.8-0.8s-1.1-0.5-1.8-0.5c-0.7,0-1.3,0.2-1.8,0.6c-0.5,0.4-0.9,0.8-1.3,1.1c-0.3,0.4-0.7,0.9-1.2,1.5
				s-0.8,1.2-1.1,1.7c-0.3,0.5-0.4,1.1-0.5,1.6c-0.1,0.6,0,0.9,0.3,0.9c0.3,0.1,0.6,0.1,0.9,0.1c0.3,0,1-0.1,2.1-0.3
				c1.1-0.2,2-0.3,2.7-0.4c0.7,0,1.2,0,1.3,0.1c0.1,0.1,0.3,0.2,0.3,0.4c0.1,0.2,0.3,0.3,0.5,0.4c0.3,0.1,0.5-0.1,0.8-0.4
				c0.3-0.3,0.4-0.3,0.5,0.2c0,0.5,0.1,2.4,0.1,6s0,5.9-0.1,7.1c-0.1,1.2-0.1,2-0.2,2.4c-0.1,0.4-0.2,1.1-0.6,2.2
				c-0.3,1-0.7,1.9-1.1,2.5c-0.4,0.7-1,1.3-1.6,1.8c-0.6,0.5-1.4,1-2.2,1.5c-0.8,0.4-1.7,0.8-2.5,1c-0.8,0.2-1.6,0.4-2.3,0.4
				c-0.7,0-1.4-0.1-2-0.3c-0.6-0.2-1-0.5-1.3-0.7c-0.3-0.3-0.6-0.9-1-1.8c-0.4-1-0.6-1.6-0.7-2.1c-0.1-0.4-0.1-1.2,0-2.1
				c0.1-1,0.3-1.9,0.6-2.6c0.3-0.7,0.7-1.4,1.1-2c0.4-0.6,0.7-1.1,1-1.4c0.3-0.3,0.9-0.8,1.8-1.4c1-0.6,1.7-1.1,2.2-1.3
				c0.7-0.3,2.7-0.9,5.8-1.6"/>
		</g>
		<g id="g254" transform="matrix(0.5454546,0,0,-0.5454546,0,419.528)">
			<path id="path256" class="st10" d="M711.7,217.7c0,0.8,0.1,2.1,0.3,3.8c0.2,1.1,0.3,1.9,0.4,2.5c0.1,0.6,0.2,2,0.4,4.2
				c0.2,2.2,0.3,4.7,0.5,7.4c0.2,2.7,0.2,5.1,0.2,7.2"/>
		</g>
		<g id="g258" transform="matrix(0.5454546,0,0,-0.5454546,0,419.528)">
			<path id="path260" class="st10" d="M716.7,239.4c1-0.1,1.9-0.2,2.6-0.3c0.5-0.1,1.2-0.4,2-0.8c0.8-0.4,1.5-1,2-1.6
				c0.5-0.6,1-1.1,1.3-1.6c0.3-0.5,0.6-0.8,0.7-1c0.1-0.2,0-0.3-0.4-0.2c-0.4,0.1-0.9,0.3-1.4,0.6c-0.5,0.3-1,0.6-1.3,1
				c-0.3,0.4-0.6,0.7-0.7,1.1c-0.1,0.3-0.2,0.8-0.2,1.4c0,0.6,0.1,1.2,0.3,1.8c0.2,0.6,0.4,1.1,0.6,1.3c0.2,0.3,0.6,0.6,1.2,1.1
				c0.7,0.4,1.2,0.7,1.5,0.9c0.3,0.1,1,0.2,2,0.3c1,0.1,1.7,0.1,2.1,0.1c0.4,0,1.2-0.2,2.2-0.7c1.1-0.5,2-0.9,2.8-1.5
				c0.8-0.5,1.6-1,2.2-1.6c1-0.8,2.2-2,3.7-3.9"/>
		</g>
		<g id="g262" transform="matrix(0.5454546,0,0,-0.5454546,0,419.528)">
			<path id="path264" class="st10" d="M185.1,610.1c-0.3-0.8-0.5-1.7-0.6-2.7c-0.1-1-0.2-2.4-0.2-4.1c0-1.7,0.1-3.4,0.4-5
				c0.3-1.7,0.6-3.1,1-4.3s0.8-2.1,1.2-2.6s0.7-0.8,1.1-0.7c0.4,0,0.8,0.4,1.4,1.1c0.5,0.7,1.1,1.5,1.7,2.4c0.6,0.9,1,1.5,1.3,1.8
				c0.2,0.3,0.8,0.7,1.6,1.3s1.5,0.9,1.9,1.1c0.4,0.2,1.2,0.4,2.2,0.6c1,0.2,2.1,0.3,3.1,0.2c1.1-0.1,1.9-0.5,2.5-1.1
				s1.1-1.4,1.5-2.4c0.4-1,0.7-2.2,0.9-3.7s0.3-3,0.4-4.4c0-1.4,0-2.5-0.1-3.3c-0.1-0.8-0.1-1.7-0.1-2.8c0-1,0-1.9,0.1-2.5
				c0.1-0.6,0.3-1.1,0.6-1.3c0.3-0.2,0.7-0.4,1.2-0.3c0.5,0,1,0.3,1.6,0.8c0.6,0.5,1.2,1.2,1.8,1.9s1.2,1.5,1.8,2.1
				c0.6,0.6,1,1,1.2,1.2c0.2,0.2,0.5,0.3,1,0.4c0.4,0.1,1,0.1,1.6,0c0.6-0.1,1.2-0.5,1.9-1.1c0.7-0.6,1.1-1.1,1.3-1.4
				c0.2-0.3,0.5-0.9,0.9-1.7c0.4-0.9,0.7-1.9,1.1-3.1c0.3-1.2,0.7-2.4,0.9-3.7s0.5-2.2,0.7-2.8c0.2-0.6,0.3-0.9,0.5-1.1
				c0.2-0.2,0.3-0.3,0.5-0.3s0.5,0.1,0.9,0.5c0.4,0.3,0.9,0.8,1.4,1.3c0.6,0.5,1.3,1.1,2.2,1.7c0.9,0.6,2,1,3.3,1.2
				c1.3,0.2,2.3,0.3,3.1,0.1c0.7-0.1,1.4-0.6,2-1.5c0.6-0.9,1.1-2.1,1.5-3.7c0.4-1.6,0.6-3.1,0.8-4.7c0.2-1.5,0.3-2.8,0.4-3.8
				c0.1-1,0.2-1.7,0.2-2.1c0.1-0.4,0.2-0.5,0.3-0.4c0.2,0.1,0.4,0.4,0.7,0.8c0.3,0.4,0.8,1,1.6,1.7c0.8,0.7,1.3,1.2,1.6,1.3
				c0.3,0.2,0.9,0.4,1.9,0.8s1.9,0.6,2.6,0.6c0.7,0.1,1.6-0.1,2.4-0.4c0.9-0.3,1.4-0.5,1.7-0.7c0.3-0.3,0.6-1.3,0.9-3"/>
		</g>
		<g id="g266" transform="matrix(0.5454546,0,0,-0.5454546,0,419.528)">
			<path id="path268" class="st10" d="M179.4,596.6c-0.4-1.1-0.6-1.7-0.6-1.8l0,0l0,0c0,0,0.1,0.3,0.3,0.9c0.2,0.6,0.5,1.2,0.8,1.8
				s0.9,1.8,1.8,3.4c0.9,1.6,1.7,2.8,2.3,3.7c0.7,0.9,1.3,1.7,1.9,2.5c0.6,0.8,1.1,1.4,1.5,1.8c0.4,0.4,0.8,1,1.3,1.7
				c0.5,0.7,0.9,1.3,1,1.7c0.2,0.4,0.3,0.7,0.3,0.8c0,0.1,0,0.1,0,0.1c-0.1-0.1-0.2-0.2-0.5-0.4c-0.2-0.2-0.6-0.7-1.2-1.4
				c-0.6-0.7-1.4-1.7-2.6-3c-1.2-1.3-2.3-2.7-3.3-4.3c-1.1-1.6-1.7-2.6-2-3c-0.3-0.4-0.6-1-0.9-1.5c-0.4-0.6-0.7-1-0.9-1.2
				c-0.2-0.3-0.5-0.6-1-0.9c-0.5-0.3-0.9-0.5-1.3-0.6c-0.4-0.1-0.7,0.1-1,0.4c-0.3,0.4-0.9,1.7-1.8,4.1c-0.9,2.3-1.6,4.1-2.1,5.4
				c-0.5,1.3-0.9,2.4-1.2,3.2c-0.3,0.9-0.4,1.7-0.5,2.3c-0.1,0.7,0,1.1,0.2,1.3c0.2,0.2,0.7,0.4,1.4,0.6c0.7,0.2,1.3,0.3,1.9,0.4
				s1.2,0.1,2,0.2c0.8,0,1.7,0.1,2.7,0c1,0,1.8-0.1,2.4-0.3c0.6-0.2,1.4-0.5,2.5-0.9c1.1-0.4,1.9-0.7,2.4-0.9c0.5-0.2,1.2-0.3,2-0.5
				c0.8-0.1,1.3-0.2,1.5-0.3c0.3-0.1,0.2-0.2-0.1-0.4c-0.3-0.2-1-0.5-1.9-0.8c-1-0.4-1.8-0.7-2.4-0.9c-0.6-0.3-1.3-0.6-2-1
				c-0.7-0.4-1.3-0.8-1.8-1.1c-0.5-0.4-0.9-0.8-1.2-1.1c-0.3-0.4-0.6-0.8-0.8-1.2c-0.2-0.4-0.4-0.9-0.5-1.4c-0.1-0.5-0.2-0.8-0.2-1
				s0-0.2,0-0.2c0,0,0,0,0,0c0,0,0.1,0.3,0.2,0.8c0.1,0.5,0.2,1.1,0.2,1.7s0.1,1.3,0.1,1.9c0,0.7,0,1.4,0,2.2c0,0.8,0,1.4-0.1,1.7
				c-0.1,0.3-0.1,0.4-0.2,0.3c-0.1-0.1-0.2-0.7-0.3-1.9c-0.1-1.1-0.1-2.9-0.2-5.3c0-2.4,0-3.8-0.1-4.2c-0.1-0.4-0.2-0.6-0.3-0.6
				c-0.2,0-0.4,0.4-0.7,1s-0.7,1.8-1.3,3.7c-0.6,1.9-1,3.1-1.1,3.7c-0.1,0.6-0.2,0.9-0.2,0.9c0,0,0,0,0,0c0,0,0-0.2,0.1-0.6
				s0.2-1.4,0.6-3.1c0.3-1.7,0.6-3.1,0.9-4.3c0.2-1.2,0.4-1.9,0.5-2.3c0.1-0.4,0.2-0.6,0.2-0.6c0,0,0,0,0,0c0,0,0,0.2,0,0.4
				c0,0.2,0,0.6-0.1,1.1c-0.1,0.5-0.2,1-0.4,1.7s-0.4,1.3-0.6,2c-0.3,0.7-0.7,1.7-1.2,3c-0.6,1.3-0.9,2.2-1,2.5
				c-0.1,0.3-0.3,0.9-0.5,1.6c-0.2,0.7-0.4,1.4-0.5,2c-0.1,0.6,0,1,0.3,1.1c0.3,0.1,0.6,0.1,1-0.1c0.4-0.2,0.8-0.5,1.2-0.9
				c0.4-0.4,1.3-1.4,2.7-2.9c1.4-1.6,2.2-2.5,2.5-2.6c0.3-0.2,0.5,0,0.5,0.6c0,0.6,0,1-0.1,1.3c-0.1,0.3-0.3,0.5-0.4,0.7
				s-0.4,0.4-0.6,0.6c-0.2,0.2-0.5,0.3-1,0.3c-0.5,0.1-0.7,0.1-0.8,0.1l0,0l0.1,0c0.1,0,0.4,0,1,0c0.6,0,1.5,0,2.8,0.1
				c1.2,0.1,2.1,0.2,2.7,0.2c0.6,0,0.9,0,1.1,0c0.1,0,0.1-0.1-0.1-0.2c-0.2-0.1-0.6-0.5-1.3-1c-0.7-0.5-1.3-0.9-1.8-1.2
				c-0.7-0.5-1.2-0.7-1.5-0.7"/>
		</g>
		<g id="g270" transform="matrix(0.5454546,0,0,-0.5454546,0,419.528)">
			<path id="path272" class="st10" d="M60.3,651.1c0.5,0.1,0.7-0.1,0.6-0.4c-0.1-0.3-0.3-0.6-0.7-0.9c-0.4-0.3-1.1-0.5-2-0.6
				c-0.9-0.1-1.6-0.2-1.9-0.1c-0.4,0-1.1,0.2-2.2,0.6c-1.1,0.4-2.2,1-3.4,1.8c-1.2,0.8-2.1,1.7-2.9,2.8c-0.8,1-1.3,2.2-1.7,3.5
				c-0.4,1.3-0.5,2.7-0.4,4.1c0.1,1.4,0.5,2.6,1.4,3.6c0.8,1,2.2,1.7,4.1,2c1.9,0.3,3.8,0.3,5.8-0.1c2-0.4,3.6-1,4.8-1.6
				c1.2-0.7,2.2-1.2,2.7-1.5c0.6-0.3,1-0.3,1.2-0.1c0.2,0.2,0.5,0.7,0.7,1.4c0.2,0.7,0.6,1.3,1.1,1.9c0.5,0.6,1.1,0.9,2,1.1
				c0.9,0.1,1.9-0.1,3.1-0.6c1.2-0.6,1.9-1,2.4-1.2c0.4-0.3,1-0.8,1.7-1.6c0.7-0.8,1.2-1.3,1.5-1.7c0.2-0.4,0.5-1,0.8-1.9
				c0.3-0.9,0.4-1.5,0.5-1.8c0-0.3,0-0.9-0.2-1.6c-0.2-0.7-0.8-1.4-1.8-2.1c-1-0.7-2.2-1.2-3.5-1.4c-1.3-0.2-2.6-0.2-3.8,0.1
				c-1.2,0.3-2.4,1-3.6,2c-1.2,1-2.1,2.2-2.7,3.6c-0.6,1.4-0.9,2.7-0.8,3.8s0.2,1.8,0.4,2.1c0.2,0.3,0.8,0.6,1.7,1
				c0.9,0.4,1.6,0.6,2.1,0.7c0.5,0.1,1.3,0.1,2.5,0.1c1.2,0,2-0.1,2.5-0.3c0.5-0.1,1.4-0.6,2.8-1.4c1.4-0.8,2.3-1.4,2.8-1.7
				c0.5-0.4,1.1-1,1.9-2c0.8-1,1.4-1.9,1.8-2.9c0.4-1,0.6-1.7,0.6-2.1c0-0.4-0.1-0.5-0.3-0.3c-0.2,0.2-0.4,0.6-0.5,1.4
				c-0.1,0.8-0.2,1.3-0.2,1.6c0,0.3,0.1,0.7,0.3,1.3c0.2,0.6,0.3,1,0.5,1.2c0.1,0.2,0.5,0.5,0.9,0.8c0.5,0.3,1.1,0.6,1.9,0.8
				c1.2,0.3,2.4,0.3,3.4,0.2"/>
		</g>
		<g id="g274" transform="matrix(0.5454546,0,0,-0.5454546,0,419.528)">
			<path id="path276" class="st10" d="M89,649.9c-0.2,0.6-0.4,1.4-0.4,2.2c0,0.8-0.1,1.5-0.1,1.9c0,0.4,0.1,1.2,0.4,2.4
				c0.3,1.2,0.5,2,0.7,2.5c0.2,0.5,0.6,1.4,1.2,2.5s1.1,1.9,1.4,2.3c0.3,0.4,0.8,0.7,1.5,1.1c0.7,0.3,1.5,0.3,2.4-0.2
				c0.9-0.5,1.9-1.5,3.1-3.1c1.2-1.6,2.3-3.1,3.2-4.6c1-1.5,1.6-2.8,2-3.8c0.3-1,0.4-1.6,0-2"/>
		</g>
		<g id="g278" transform="matrix(0.5454546,0,0,-0.5454546,0,419.528)">
			<path id="path280" class="st10" d="M110.5,655.8c-0.1,0.5,0,1.6,0.2,3.1c0.2,1.4,0.4,3.6,0.7,6.6"/>
		</g>
		<g id="g282" transform="matrix(0.5454546,0,0,-0.5454546,0,419.528)">
			<path id="path284" class="st10" d="M121,636.3c0.1,0.7,0,3.5-0.3,8.5c-0.2,2.8-0.2,5.8-0.3,9c0,3.2,0.1,5.9,0.3,8.2
				c0.2,2.3,0.4,3.8,0.5,4.7c0.1,0.8,0.2,1.3,0.3,1.5"/>
		</g>
		<g id="g286" transform="matrix(0.5454546,0,0,-0.5454546,0,419.528)">
			<path id="path288" class="st10" d="M108.9,645.3c0-0.2,0.3-0.4,0.8-0.5c0.5-0.1,1.6-0.3,3.4-0.5c1.7-0.2,3-0.3,3.7-0.4
				c0.7,0,1.9-0.1,3.5-0.1c2.4,0,5,0.3,8,0.9"/>
		</g>
		<g id="g290" transform="matrix(0.5454546,0,0,-0.5454546,0,419.528)">
			<path id="path292" class="st10" d="M126.4,655.7c0.5,0.8,1.1,1.7,1.6,2.6c0.4,0.6,0.8,1.5,1.4,2.6c0.6,1.1,1.1,2,1.7,2.6
				c0.6,0.6,0.9,1,1.1,1.1c0.2,0.1,0.4,0.1,0.6,0.1s0.7-0.7,1.3-2.1c0.6-1.4,1.1-2.6,1.6-3.8c0.5-1.1,0.9-1.9,1.2-2.3
				s0.4-0.5,0.5-0.4c0.1,0.1,0.1,0.6-0.1,1.3c-0.1,0.8-0.6,2.3-1.3,4.6c-0.7,2.3-1.3,4.1-1.7,5.4c-0.4,1.3-0.8,2.8-1.4,4.6
				c-0.5,1.8-1,3.4-1.4,4.6c-0.4,1.3-0.8,2.3-1.1,3.2"/>
		</g>
		<g id="g294" transform="matrix(0.5454546,0,0,-0.5454546,0,419.528)">
			<path id="path296" class="st10" d="M145.3,665.8c2.9,0,6.1-0.2,9.6-0.5"/>
		</g>
		<g id="g298" transform="matrix(0.5454546,0,0,-0.5454546,0,419.528)">
			<path id="path300" class="st10" d="M189.5,635.5c0,3,0,6.5,0.1,10.3c0,2.5,0.2,5.1,0.5,7.7s0.6,4.8,0.9,6.6
				c0.3,1.8,0.6,3,0.7,3.6c0.1,0.6,0.2,0.9,0.2,0.9c0,0.1,0,0.1,0,0c0,0-0.1-0.2-0.3-0.6c-0.2-0.4-0.6-1-1.1-1.8s-1.1-1.4-1.4-1.8
				c-0.3-0.4-1.1-0.9-2.1-1.6c-1.1-0.7-1.8-1.1-2.2-1.3s-1.1-0.3-2-0.5c-0.9-0.1-1.6-0.2-2-0.1c-0.4,0-1.1,0.4-2.1,1
				s-1.8,1.1-2.2,1.4c-0.4,0.3-1.1,1-1.9,2.1c-0.8,1-1.4,1.7-1.6,2.1c-0.2,0.4-0.5,1-0.7,1.9c-0.2,0.9-0.4,1.5-0.4,1.8
				c0,0.3,0.1,0.8,0.4,1.4c0.3,0.7,0.6,1.1,0.9,1.3c0.3,0.2,1.1,0.5,2.4,0.7c1.3,0.3,2.3,0.4,2.9,0.4c0.6,0,1.8-0.1,3.5-0.5
				c2.5-0.5,5.9-1.7,10.1-3.6"/>
		</g>
		<g id="g302" transform="matrix(0.5454546,0,0,-0.5454546,0,419.528)">
			<path id="path304" class="st10" d="M196.6,656.2c-0.2,0.6,0.2,1.1,1.2,1.6c0.7,0.3,1.7,0.6,3.1,0.7c1.3,0.1,2.5,0.1,3.4,0
				c0.9-0.1,1.6-0.3,1.8-0.4s0.6-0.5,0.8-1c0.3-0.5,0.5-1.2,0.5-1.9c0-0.7,0-1.2-0.1-1.4c-0.1-0.2-0.4-0.5-0.9-0.9s-0.9-0.7-1.2-0.8
				c-0.3-0.1-0.9-0.3-1.9-0.4c-1-0.1-1.7-0.1-2.2-0.2c-0.5,0-1.2,0.2-2.3,0.6s-1.8,0.8-2.2,1c-0.4,0.3-0.9,0.8-1.6,1.7
				c-0.7,0.9-1.2,1.5-1.4,2s-0.5,1.3-0.8,2.5c-0.3,1.2-0.5,2.1-0.5,2.6c0,0.5,0,1.4,0.2,2.5c0.2,1.1,0.4,1.9,0.6,2.4
				c0.2,0.4,0.8,1.1,1.7,1.9s1.7,1.4,2.3,1.6c0.6,0.3,1.9,0.5,3.7,0.6c2.7,0.2,6.4-0.5,11.3-2.2"/>
		</g>
		<g id="g306" transform="matrix(0.5454546,0,0,-0.5454546,0,419.528)">
			<path id="path308" class="st10" d="M222,655.6c0.4,0,0.8-0.2,1.2-0.5c0.3-0.2,0.4-0.4,0.4-0.5c0-0.1-0.3-0.4-1.1-0.7
				c-0.7-0.3-1.5-0.5-2.3-0.6c-0.8-0.1-1.3-0.1-1.7-0.1c-0.3,0-1,0.2-1.9,0.5c-1,0.4-1.6,0.6-2,0.8c-0.4,0.2-1,0.7-1.8,1.4
				c-0.9,0.8-1.4,1.3-1.7,1.7c-0.3,0.4-0.6,1.1-1,2.2s-0.6,1.9-0.7,2.4c-0.1,0.5-0.1,1.2,0,2.2c0.1,1,0.2,1.8,0.4,2.1
				c0.2,0.4,0.8,0.9,1.8,1.5c1,0.6,1.7,1,2.2,1.2c0.5,0.2,1.4,0.3,2.6,0.4c1.2,0.1,2.1,0.1,2.6,0.1s1.4-0.3,2.8-0.9
				c1.4-0.6,2.4-1,2.9-1.3c0.5-0.3,1.1-0.8,1.8-1.4c0.7-0.6,1.1-1.1,1.4-1.5c0.3-0.4,0.4-0.6,0.5-0.6c0,0,0,0,0,0c0,0,0,0.1-0.1,0.4
				c-0.1,0.2-0.1,0.7-0.2,1.5c0,0.8,0.1,1.3,0.3,1.8c0.2,0.4,0.4,0.7,0.6,0.8c0.2,0.1,0.8,0.2,1.8,0.3c1,0.1,2.1-0.1,3.4-0.5
				c1.3-0.4,2.2-0.7,2.7-1c0.5-0.2,1.3-0.7,2.3-1.4s1.6-1.2,2-1.6c0.3-0.3,0.7-0.9,1-1.8c0.3-0.9,0.5-1.5,0.5-1.8
				c0-0.3,0-0.9-0.2-1.7c-0.2-0.8-0.4-1.3-0.6-1.6c-0.2-0.3-0.8-0.7-1.7-1.2c-0.9-0.5-1.6-0.9-2.1-1c-0.4-0.1-1.2-0.2-2.4-0.2
				c-1.1,0-1.9,0.1-2.3,0.2c-0.4,0.1-1.1,0.6-1.9,1.4c-0.8,0.8-1.4,1.4-1.7,1.7c-0.3,0.4-0.7,1.1-1.3,2.1c-0.6,1-0.9,1.8-1.1,2.3
				c-0.2,0.5-0.3,1.2-0.4,2.2c-0.1,1,0.1,2,0.6,3c0.5,1,1,1.6,1.3,1.8s0.9,0.4,1.8,0.6c0.9,0.2,1.6,0.3,2.1,0.3c0.5,0,1.5-0.3,3-1
				s2.6-1.2,3.2-1.5c0.6-0.4,1.4-1,2.4-1.9c1-0.9,1.6-1.5,1.9-1.9s0.6-1,0.9-1.8c0.3-0.8,0.5-1.5,0.5-2.1c0-0.6-0.1-0.8-0.4-0.7
				c-0.3,0.1-0.5,0.5-0.8,1.2c-0.2,0.8-0.4,1.6-0.4,2.5c0,0.9,0,1.4,0.1,1.7c0.1,0.2,0.3,0.5,0.6,0.9s0.6,0.7,0.8,0.8
				c0.2,0.1,0.6,0.3,1.2,0.4c0.9,0.2,1.8,0.3,2.7,0.1"/>
		</g>
		<g id="g310" transform="matrix(0.5454546,0,0,-0.5454546,0,419.528)">
			<path id="path312" class="st10" d="M251.1,654.5c-0.5-0.2-0.7-0.1-0.8,0.4c0,0.3,0.1,0.8,0.3,1.4c0.2,0.6,0.4,1,0.5,1.3
				c0.1,0.3,0.5,0.9,1.1,1.9c0.6,1,1.3,1.7,2,2.3s1.3,1,1.6,1.1c0.3,0.2,1.1,0.2,2.4,0c1.3-0.1,2.5-0.6,3.5-1.4c1-0.8,1.6-1.5,2-1.8
				c0.3-0.4,0.8-1.1,1.4-2.1c0.6-1,1.1-2,1.5-3c0.4-1,0.6-1.6,0.7-1.8c0.1-0.2,0.1-0.4,0.1-0.4c0,0,0,0-0.1,0.1c0,0.1-0.3,0.4-0.6,1
				c-0.4,0.6-0.7,1.1-0.9,1.5c-0.2,0.4-0.7,1.4-1.5,3c-0.7,1.6-1.3,2.7-1.6,3.5c-0.3,0.7-0.8,2.1-1.5,3.9c-0.7,1.9-1.1,3.2-1.3,4
				s-0.5,2.2-0.9,4.2c-0.4,1.9-0.6,3.3-0.7,3.9c-0.1,0.9-0.3,3.2-0.6,6.9"/>
		</g>
		<g id="g314" transform="matrix(0.7731552,0,0,-0.5454546,208.008,401.0177)">
		</g>
		<g id="g316" transform="matrix(1.303128,0,0,-0.5454546,307.4671,397.7248)">
		</g>
		<g id="g318" transform="matrix(0.5683611,0,0,-0.6687769,320.1968,400.3092)">
		</g>
		<g id="g320" transform="matrix(2.000684,0,0,-0.5454546,421.4844,357.4007)">
		</g>
		<g id="g322" transform="matrix(5.199407,0,0,-0.5454546,83.66201,335.5978)">
		</g>
		<g id="g324" transform="matrix(0.6042277,0,0,-0.8432483,142.5017,357.6943)">
		</g>
		<g id="g326" transform="matrix(0.5983017,0,0,-1.46209,389.77,293.1286)">
		</g>
		<g id="g328" transform="matrix(2.343875,0,0,-0.5454546,139.3617,333.1621)">
		</g>
		<g id="g330" transform="matrix(3.013738,0,0,-0.5454546,91.45031,170.7927)">
		</g>
		<g id="g332" transform="matrix(0.5932278,0,0,-0.6508698,23.661,74.00822)">
		</g>
		<g>
			<g>
				<g id="path86_00000168116517155961744390000007567176290097303938_">
					<g class="st11">
						<path class="st12" d="M430.8,45.7c4.9,3.6,5.9,10.4,2.4,15.2c-1.1,1.5-2.1,2.9-3.2,4.4c-3.6,4.9-10.4,5.9-15.2,2.4
							c-4.9-3.6-5.9-10.4-2.4-15.2c1.1-1.5,2.1-2.9,3.2-4.4C419.1,43.2,425.9,42.1,430.8,45.7z M412.4,52.4c2.3-3.1,6.1-4.8,10-4.4
							c3.9,0.4,7.2,2.9,8.8,6.4c1.6,3.6,1.1,7.7-1.2,10.9c-1.1,1.5-2.1,2.9-3.2,4.4c-3.6,4.9-10.4,5.9-15.2,2.4
							c-4.9-3.6-5.9-10.4-2.4-15.2C410.2,55.4,411.3,53.9,412.4,52.4L412.4,52.4z M409.2,56.8c2.3-3.1,6.1-4.8,10-4.4
							c3.9,0.4,7.2,2.9,8.8,6.4c1.6,3.6,1.1,7.7-1.2,10.9c-1.1,1.5-2.1,2.9-3.2,4.4c-3.6,4.9-10.4,5.9-15.2,2.4
							c-4.9-3.6-5.9-10.4-2.4-15.2C407,59.7,408.1,58.3,409.2,56.8L409.2,56.8z M406,61.2c3.6-4.9,10.4-5.9,15.2-2.4
							c4.9,3.6,5.9,10.4,2.4,15.2c-1.1,1.5-2.1,2.9-3.2,4.4c-3.6,4.9-10.4,5.9-15.2,2.4c-4.9-3.6-5.9-10.4-2.4-15.2
							C403.8,64.1,404.9,62.7,406,61.2L406,61.2z M402.8,65.6c3.6-4.9,10.4-5.9,15.2-2.4c4.9,3.6,5.9,10.4,2.4,15.2
							c-1.1,1.5-2.1,2.9-3.2,4.4c-2.3,3.1-6.1,4.8-10,4.4c-3.9-0.4-7.2-2.9-8.8-6.4c-1.6-3.6-1.1-7.7,1.2-10.9
							C400.6,68.5,401.7,67.1,402.8,65.6L402.8,65.6z M399.6,70c3.6-4.9,10.4-5.9,15.2-2.4c4.9,3.6,5.9,10.4,2.4,15.2
							c-1.1,1.5-2.1,2.9-3.2,4.4c-3.6,4.9-10.4,5.9-15.2,2.4c-4.9-3.6-5.9-10.4-2.4-15.2C397.4,72.9,398.5,71.5,399.6,70L399.6,70z
							 M406.3,70c3.9,0.4,7.2,2.9,8.8,6.4c1.6,3.6,1.1,7.7-1.2,10.9c-1.1,1.5-2.1,2.9-3.2,4.4c-3.6,4.9-10.4,5.9-15.2,2.4
							c-4.9-3.6-5.9-10.4-2.4-15.2c1.1-1.5,2.1-2.9,3.2-4.4C398.6,71.2,402.5,69.5,406.3,70z M393.1,78.8c2.3-3.1,6.1-4.8,10-4.4
							c3.9,0.4,7.2,2.9,8.8,6.4c1.6,3.6,1.1,7.7-1.2,10.9c-1.1,1.5-2.1,2.9-3.2,4.4c-3.6,4.9-10.4,5.9-15.2,2.4
							c-4.9-3.6-5.9-10.4-2.4-15.2C391,81.7,392.1,80.2,393.1,78.8L393.1,78.8z M399.9,78.7c3.9,0.4,7.2,2.9,8.8,6.4
							c1.6,3.6,1.1,7.7-1.2,10.9c-1.1,1.5-2.1,2.9-3.2,4.4c-2.3,3.1-6.1,4.8-10,4.4c-3.9-0.4-7.2-2.9-8.8-6.4
							c-1.6-3.6-1.1-7.7,1.2-10.9c1.1-1.5,2.1-2.9,3.2-4.4C392.2,80,396,78.3,399.9,78.7z M402,85.2c4.9,3.6,5.9,10.4,2.4,15.2
							c-1.1,1.5-2.1,2.9-3.2,4.4c-3.6,4.9-10.4,5.9-15.2,2.4c-4.9-3.6-5.9-10.4-2.4-15.2c1.1-1.5,2.1-2.9,3.2-4.4
							C390.3,82.7,397.1,81.6,402,85.2z M393.5,87.5c3.9,0.4,7.2,2.9,8.8,6.4c1.6,3.6,1.1,7.7-1.2,10.9c-1.1,1.5-2.1,2.9-3.2,4.4
							c-3.6,4.9-10.4,5.9-15.2,2.4c-4.9-3.6-5.9-10.4-2.4-15.2c1.1-1.5,2.1-2.9,3.2-4.4C385.8,88.8,389.6,87.1,393.5,87.5z
							 M380.3,96.3c3.6-4.9,10.4-5.9,15.2-2.4c4.9,3.6,5.9,10.4,2.4,15.2c-1.1,1.5-2.1,2.9-3.2,4.4c-2.3,3.1-6.1,4.8-10,4.4
							c-3.9-0.4-7.2-2.9-8.8-6.4c-1.6-3.6-1.1-7.7,1.2-10.9C378.2,99.2,379.3,97.8,380.3,96.3L380.3,96.3z M392.4,98.3
							c4.9,3.6,5.9,10.4,2.4,15.2c-1.1,1.5-2.1,2.9-3.2,4.4c-2.3,3.1-6.1,4.8-10,4.4c-3.9-0.4-7.2-2.9-8.8-6.4
							c-1.6-3.6-1.1-7.7,1.2-10.9c1.1-1.5,2.1-2.9,3.2-4.4C380.7,95.8,387.5,94.8,392.4,98.3z M373.9,105.1
							c3.6-4.9,10.4-5.9,15.2-2.4c4.9,3.6,5.9,10.4,2.4,15.2c-1.1,1.5-2.1,2.9-3.2,4.4c-2.3,3.1-6.1,4.8-10,4.4s-7.2-2.9-8.8-6.4
							c-1.6-3.6-1.1-7.7,1.2-10.9C371.8,108,372.9,106.6,373.9,105.1L373.9,105.1z M380.7,105.1c3.9,0.4,7.2,2.9,8.8,6.4
							c1.6,3.6,1.1,7.7-1.2,10.9c-1.1,1.5-2.1,2.9-3.2,4.4c-3.6,4.9-10.4,5.9-15.2,2.4c-4.9-3.6-5.9-10.4-2.4-15.2
							c1.1-1.5,2.1-2.9,3.2-4.4C373,106.3,376.8,104.7,380.7,105.1z M367.5,113.9c2.3-3.1,6.1-4.8,10-4.4c3.9,0.4,7.2,2.9,8.8,6.4
							c1.6,3.6,1.1,7.7-1.2,10.9c-1.1,1.5-2.1,2.9-3.2,4.4c-2.3,3.1-6.1,4.8-10,4.4c-3.9-0.4-7.2-2.9-8.8-6.4
							c-1.6-3.6-1.1-7.7,1.2-10.9C365.4,116.8,366.5,115.3,367.5,113.9L367.5,113.9z M379.6,115.9c4.9,3.6,5.9,10.4,2.4,15.2
							c-1.1,1.5-2.1,2.9-3.2,4.4c-2.3,3.1-6.1,4.8-10,4.4c-3.9-0.4-7.2-2.9-8.8-6.4c-1.6-3.6-1.1-7.7,1.2-10.9
							c1.1-1.5,2.1-2.9,3.2-4.4C367.9,113.4,374.7,112.3,379.6,115.9z M376.4,120.3c4.9,3.6,5.9,10.4,2.4,15.2
							c-1.1,1.5-2.1,2.9-3.2,4.4c-3.6,4.9-10.4,5.9-15.2,2.4c-4.9-3.6-5.9-10.4-2.4-15.2c1.1-1.5,2.1-2.9,3.2-4.4
							C364.7,117.8,371.5,116.7,376.4,120.3z M357.9,127c2.3-3.1,6.1-4.8,10-4.4c3.9,0.4,7.2,2.9,8.8,6.4c1.6,3.6,1.1,7.7-1.2,10.9
							c-1.1,1.5-2.1,2.9-3.2,4.4c-2.3,3.1-6.1,4.8-10,4.4c-3.9-0.4-7.2-2.9-8.8-6.4c-1.6-3.6-1.1-7.7,1.2-10.9
							C355.8,130,356.8,128.5,357.9,127L357.9,127z M370,129.1c4.9,3.6,5.9,10.4,2.4,15.2c-1.1,1.5-2.1,2.9-3.2,4.4
							c-2.3,3.1-6.1,4.8-10,4.4c-3.9-0.4-7.2-2.9-8.8-6.4c-1.6-3.6-1.1-7.7,1.2-10.9c1.1-1.5,2.1-2.9,3.2-4.4
							C358.3,126.6,365.1,125.5,370,129.1z M351.5,135.8c2.3-3.1,6.1-4.8,10-4.4c3.9,0.4,7.2,2.9,8.8,6.4s1.1,7.7-1.2,10.9
							c-1.1,1.5-2.1,2.9-3.2,4.4c-2.3,3.1-6.1,4.8-10,4.4c-3.9-0.4-7.2-2.9-8.8-6.4c-1.6-3.6-1.1-7.7,1.2-10.9
							C349.4,138.7,350.4,137.3,351.5,135.8L351.5,135.8z M363.5,137.8c4.9,3.6,5.9,10.4,2.4,15.2c-1.1,1.5-2.1,2.9-3.2,4.4
							c-2.3,3.1-6.1,4.8-10,4.4c-3.9-0.4-7.2-2.9-8.8-6.4c-1.6-3.6-1.1-7.7,1.2-10.9c1.1-1.5,2.1-2.9,3.2-4.4
							C351.9,135.3,358.7,134.3,363.5,137.8z M345.1,144.6c3.6-4.9,10.4-5.9,15.2-2.4c4.9,3.6,5.9,10.4,2.4,15.2
							c-1.1,1.5-2.1,2.9-3.2,4.4c-3.6,4.9-10.4,5.9-15.2,2.4s-5.9-10.4-2.4-15.2C343,147.5,344,146.1,345.1,144.6L345.1,144.6z
							 M357.1,146.6c4.9,3.6,5.9,10.4,2.4,15.2c-1.1,1.5-2.1,2.9-3.2,4.4c-3.6,4.9-10.4,5.9-15.2,2.4c-4.9-3.6-5.9-10.4-2.4-15.2
							c1.1-1.5,2.1-2.9,3.2-4.4C345.4,144.1,352.3,143.1,357.1,146.6z M338.7,153.4c2.3-3.1,6.1-4.8,10-4.4c3.9,0.4,7.2,2.9,8.8,6.4
							s1.1,7.7-1.2,10.9c-1.1,1.5-2.1,2.9-3.2,4.4c-3.6,4.9-10.4,5.9-15.2,2.4c-4.9-3.6-5.9-10.4-2.4-15.2
							C336.6,156.3,337.6,154.8,338.7,153.4L338.7,153.4z M345.5,153.3c3.9,0.4,7.2,2.9,8.8,6.4c1.6,3.6,1.1,7.7-1.2,10.9
							c-1.1,1.5-2.1,2.9-3.2,4.4c-3.6,4.9-10.4,5.9-15.2,2.4c-4.9-3.6-5.9-10.4-2.4-15.2c1.1-1.5,2.1-2.9,3.2-4.4
							C337.8,154.6,341.6,152.9,345.5,153.3z M332.3,162.2c2.3-3.1,6.1-4.8,10-4.4c3.9,0.4,7.2,2.9,8.8,6.4
							c1.6,3.6,1.1,7.7-1.2,10.9c-1.1,1.5-2.1,2.9-3.2,4.4c-3.6,4.9-10.4,5.9-15.2,2.4c-4.9-3.6-5.9-10.4-2.4-15.2
							C330.1,165.1,331.2,163.6,332.3,162.2L332.3,162.2z M329.1,166.5c2.3-3.1,6.1-4.8,10-4.4c3.9,0.4,7.2,2.9,8.8,6.4
							c1.6,3.6,1.1,7.7-1.2,10.9c-1.1,1.5-2.1,2.9-3.2,4.4c-2.3,3.1-6.1,4.8-10,4.4c-3.9-0.4-7.2-2.9-8.8-6.4
							c-1.6-3.6-1.1-7.7,1.2-10.9C326.9,169.5,328,168,329.1,166.5L329.1,166.5z M341.1,168.6c4.9,3.6,5.9,10.4,2.4,15.2
							c-1.1,1.5-2.1,2.9-3.2,4.4c-3.6,4.9-10.4,5.9-15.2,2.4c-4.9-3.6-5.9-10.4-2.4-15.2c1.1-1.5,2.1-2.9,3.2-4.4
							C329.4,166.1,336.3,165,341.1,168.6z M337.9,172.9c4.9,3.6,5.9,10.4,2.4,15.2c-1.1,1.5-2.1,2.9-3.2,4.4
							c-3.6,4.9-10.4,5.9-15.2,2.4c-4.9-3.6-5.9-10.4-2.4-15.2c1.1-1.5,2.1-2.9,3.2-4.4C326.2,170.5,333.1,169.4,337.9,172.9z
							 M329.5,175.3c3.9,0.4,7.2,2.9,8.8,6.4c1.6,3.6,1.1,7.7-1.2,10.9c-1.1,1.5-2.1,2.9-3.2,4.4c-3.6,4.9-10.4,5.9-15.2,2.4
							s-5.9-10.4-2.4-15.2c1.1-1.5,2.1-2.9,3.2-4.4C321.8,176.6,325.6,174.9,329.5,175.3z M316.3,184.1c2.3-3.1,6.1-4.8,10-4.4
							c3.9,0.4,7.2,2.9,8.8,6.4c1.6,3.6,1.1,7.7-1.2,10.9c-1.1,1.5-2.1,2.9-3.2,4.4c-3.6,4.9-10.4,5.9-15.2,2.4
							c-4.9-3.6-5.9-10.4-2.4-15.2C314.1,187,315.2,185.6,316.3,184.1L316.3,184.1z M313.1,188.5c2.3-3.1,6.1-4.8,10-4.4
							c3.9,0.4,7.2,2.9,8.8,6.4c1.6,3.6,1.1,7.7-1.2,10.9c-1.1,1.5-2.1,2.9-3.2,4.4c-3.6,4.9-10.4,5.9-15.2,2.4
							c-4.9-3.6-5.9-10.4-2.4-15.2C310.9,191.4,312,190,313.1,188.5L313.1,188.5z M325.1,190.5c4.9,3.6,5.9,10.4,2.4,15.2
							c-1.1,1.5-2.1,2.9-3.2,4.4c-3.6,4.9-10.4,5.9-15.2,2.4c-4.9-3.6-5.9-10.4-2.4-15.2c1.1-1.5,2.1-2.9,3.2-4.4
							C313.4,188,320.2,186.9,325.1,190.5z M306.7,197.3c2.3-3.1,6.1-4.8,10-4.4s7.2,2.9,8.8,6.4c1.6,3.6,1.1,7.7-1.2,10.9
							c-1.1,1.5-2.1,2.9-3.2,4.4c-3.6,4.9-10.4,5.9-15.2,2.4c-4.9-3.6-5.9-10.4-2.4-15.2C304.5,200.2,305.6,198.7,306.7,197.3
							L306.7,197.3z M318.7,199.3c4.9,3.6,5.9,10.4,2.4,15.2c-1.1,1.5-2.1,2.9-3.2,4.4c-3.6,4.9-10.4,5.9-15.2,2.4
							c-4.9-3.6-5.9-10.4-2.4-15.2c1.1-1.5,2.1-2.9,3.2-4.4C307,196.8,313.8,195.7,318.7,199.3z M315.5,203.7
							c4.9,3.6,5.9,10.4,2.4,15.2c-1.1,1.5-2.1,2.9-3.2,4.4c-3.6,4.9-10.4,5.9-15.2,2.4c-4.9-3.6-5.9-10.4-2.4-15.2
							c1.1-1.5,2.1-2.9,3.2-4.4C303.8,201.2,310.6,200.1,315.5,203.7z M297,210.4c3.6-4.9,10.4-5.9,15.2-2.4
							c4.9,3.6,5.9,10.4,2.4,15.2c-1.1,1.5-2.1,2.9-3.2,4.4c-2.3,3.1-6.1,4.8-10,4.4c-3.9-0.4-7.2-2.9-8.8-6.4
							c-1.6-3.6-1.1-7.7,1.2-10.9C294.9,213.4,296,211.9,297,210.4L297,210.4z M293.8,214.8c3.6-4.9,10.4-5.9,15.2-2.4
							c4.9,3.6,5.9,10.4,2.4,15.2c-1.1,1.5-2.1,2.9-3.2,4.4c-3.6,4.9-10.4,5.9-15.2,2.4c-4.9-3.6-5.9-10.4-2.4-15.2
							C291.7,217.7,292.8,216.3,293.8,214.8L293.8,214.8z M290.6,219.2c3.6-4.9,10.4-5.9,15.2-2.4c4.9,3.6,5.9,10.4,2.4,15.2
							c-1.1,1.5-2.1,2.9-3.2,4.4c-2.3,3.1-6.1,4.8-10,4.4c-3.9-0.4-7.2-2.9-8.8-6.4s-1.1-7.7,1.2-10.9
							C288.5,222.1,289.6,220.7,290.6,219.2L290.6,219.2z M297.4,219.2c3.9,0.4,7.2,2.9,8.8,6.4c1.6,3.6,1.1,7.7-1.2,10.9
							c-1.1,1.5-2.1,2.9-3.2,4.4c-3.6,4.9-10.4,5.9-15.2,2.4c-4.9-3.6-5.9-10.4-2.4-15.2c1.1-1.5,2.1-2.9,3.2-4.4
							C289.7,220.5,293.5,218.8,297.4,219.2z M284.2,228c2.3-3.1,6.1-4.8,10-4.4c3.9,0.4,7.2,2.9,8.8,6.4c1.6,3.6,1.1,7.7-1.2,10.9
							c-1.1,1.5-2.1,2.9-3.2,4.4c-3.6,4.9-10.4,5.9-15.2,2.4c-4.9-3.6-5.9-10.4-2.4-15.2C282.1,230.9,283.2,229.5,284.2,228
							L284.2,228z M281,232.4c3.6-4.9,10.4-5.9,15.2-2.4c4.9,3.6,5.9,10.4,2.4,15.2c-1.1,1.5-2.1,2.9-3.2,4.4
							c-2.3,3.1-6.1,4.8-10,4.4c-3.9-0.4-7.2-2.9-8.8-6.4c-1.6-3.6-1.1-7.7,1.2-10.9C278.9,235.3,280,233.8,281,232.4L281,232.4z
							 M293.1,234.4c4.9,3.6,5.9,10.4,2.4,15.2c-1.1,1.5-2.1,2.9-3.2,4.4c-2.3,3.1-6.1,4.8-10,4.4c-3.9-0.4-7.2-2.9-8.8-6.4
							c-1.6-3.6-1.1-7.7,1.2-10.9c1.1-1.5,2.1-2.9,3.2-4.4C281.4,231.9,288.2,230.8,293.1,234.4z M274.6,241.2
							c3.6-4.9,10.4-5.9,15.2-2.4c4.9,3.6,5.9,10.4,2.4,15.2c-1.1,1.5-2.1,2.9-3.2,4.4c-3.6,4.9-10.4,5.9-15.2,2.4
							c-4.9-3.6-5.9-10.4-2.4-15.2C272.5,244.1,273.6,242.6,274.6,241.2L274.6,241.2z M271.4,245.5c3.6-4.9,10.4-5.9,15.2-2.4
							c4.9,3.6,5.9,10.4,2.4,15.2c-1.1,1.5-2.1,2.9-3.2,4.4c-3.6,4.9-10.4,5.9-15.2,2.4c-4.9-3.6-5.9-10.4-2.4-15.2
							C269.3,248.5,270.4,247,271.4,245.5L271.4,245.5z M268.2,249.9c2.3-3.1,6.1-4.8,10-4.4c3.9,0.4,7.2,2.9,8.8,6.4
							c1.6,3.6,1.1,7.7-1.2,10.9c-1.1,1.5-2.1,2.9-3.2,4.4c-3.6,4.9-10.4,5.9-15.2,2.4c-4.9-3.6-5.9-10.4-2.4-15.2
							C266.1,252.9,267.2,251.4,268.2,249.9L268.2,249.9z M265,254.3c2.3-3.1,6.1-4.8,10-4.4c3.9,0.4,7.2,2.9,8.8,6.4
							c1.6,3.6,1.1,7.7-1.2,10.9c-1.1,1.5-2.1,2.9-3.2,4.4c-3.6,4.9-10.4,5.9-15.2,2.4c-4.9-3.6-5.9-10.4-2.4-15.2
							C262.9,257.3,263.9,255.8,265,254.3L265,254.3z M277.1,256.3c4.9,3.6,5.9,10.4,2.4,15.2c-1.1,1.5-2.1,2.9-3.2,4.4
							c-3.6,4.9-10.4,5.9-15.2,2.4c-4.9-3.6-5.9-10.4-2.4-15.2c1.1-1.5,2.1-2.9,3.2-4.4C265.4,253.8,272.2,252.8,277.1,256.3z
							 M258.6,263.1c2.3-3.1,6.1-4.8,10-4.4c3.9,0.4,7.2,2.9,8.8,6.4c1.6,3.6,1.1,7.7-1.2,10.9c-1.1,1.5-2.1,2.9-3.2,4.4
							c-3.6,4.9-10.4,5.9-15.2,2.4c-4.9-3.6-5.9-10.4-2.4-15.2C256.5,266,257.5,264.6,258.6,263.1L258.6,263.1z M255.4,267.5
							c2.3-3.1,6.1-4.8,10-4.4c3.9,0.4,7.2,2.9,8.8,6.4c1.6,3.6,1.1,7.7-1.2,10.9c-1.1,1.5-2.1,2.9-3.2,4.4
							c-3.6,4.9-10.4,5.9-15.2,2.4c-4.9-3.6-5.9-10.4-2.4-15.2C253.3,270.4,254.3,269,255.4,267.5L255.4,267.5z M267.5,269.5
							c4.9,3.6,5.9,10.4,2.4,15.2c-1.1,1.5-2.1,2.9-3.2,4.4c-3.6,4.9-10.4,5.9-15.2,2.4c-4.9-3.6-5.9-10.4-2.4-15.2
							c1.1-1.5,2.1-2.9,3.2-4.4C255.8,267,262.6,265.9,267.5,269.5z M249,276.3c2.3-3.1,6.1-4.8,10-4.4c3.9,0.4,7.2,2.9,8.8,6.4
							c1.6,3.6,1.1,7.7-1.2,10.9c-1.1,1.5-2.1,2.9-3.2,4.4c-3.6,4.9-10.4,5.9-15.2,2.4c-4.9-3.6-5.9-10.4-2.4-15.2
							C246.9,279.2,247.9,277.7,249,276.3L249,276.3z M245.8,280.7c3.6-4.9,10.4-5.9,15.2-2.4c4.9,3.6,5.9,10.4,2.4,15.2
							c-1.1,1.5-2.1,2.9-3.2,4.4c-3.6,4.9-10.4,5.9-15.2,2.4c-4.9-3.6-5.9-10.4-2.4-15.2C243.7,283.6,244.7,282.1,245.8,280.7
							L245.8,280.7z M242.6,285c3.6-4.9,10.4-5.9,15.2-2.4c4.9,3.6,5.9,10.4,2.4,15.2c-1.1,1.5-2.1,2.9-3.2,4.4
							c-3.6,4.9-10.4,5.9-15.2,2.4c-4.9-3.6-5.9-10.4-2.4-15.2C240.5,288,241.5,286.5,242.6,285L242.6,285z M239.4,289.4
							c2.3-3.1,6.1-4.8,10-4.4c3.9,0.4,7.2,2.9,8.8,6.4c1.6,3.6,1.1,7.7-1.2,10.9c-1.1,1.5-2.1,2.9-3.2,4.4
							c-3.6,4.9-10.4,5.9-15.2,2.4c-4.9-3.6-5.9-10.4-2.4-15.2C237.3,292.4,238.3,290.9,239.4,289.4L239.4,289.4z M236.2,293.8
							c3.6-4.9,10.4-5.9,15.2-2.4c4.9,3.6,5.9,10.4,2.4,15.2c-1.1,1.5-2.1,2.9-3.2,4.4c-3.6,4.9-10.4,5.9-15.2,2.4
							c-4.9-3.6-5.9-10.4-2.4-15.2C234.1,296.8,235.1,295.3,236.2,293.8L236.2,293.8z M248.2,295.8c4.9,3.6,5.9,10.4,2.4,15.2
							c-1.1,1.5-2.1,2.9-3.2,4.4c-3.6,4.9-10.4,5.9-15.2,2.4c-4.9-3.6-5.9-10.4-2.4-15.2c1.1-1.5,2.1-2.9,3.2-4.4
							C236.5,293.3,243.4,292.3,248.2,295.8z M229.8,302.6c3.6-4.9,10.4-5.9,15.2-2.4c4.9,3.6,5.9,10.4,2.4,15.2
							c-1.1,1.5-2.1,2.9-3.2,4.4c-2.3,3.1-6.1,4.8-10,4.4c-3.9-0.4-7.2-2.9-8.8-6.4c-1.6-3.6-1.1-7.7,1.2-10.9
							C227.6,305.5,228.7,304.1,229.8,302.6L229.8,302.6z M226.6,307c2.3-3.1,6.1-4.8,10-4.4c3.9,0.4,7.2,2.9,8.8,6.4
							c1.6,3.6,1.1,7.7-1.2,10.9c-1.1,1.5-2.1,2.9-3.2,4.4c-3.6,4.9-10.4,5.9-15.2,2.4c-4.9-3.6-5.9-10.4-2.4-15.2
							C224.4,309.9,225.5,308.5,226.6,307L226.6,307z M223.4,311.4c2.3-3.1,6.1-4.8,10-4.4c3.9,0.4,7.2,2.9,8.8,6.4
							c1.6,3.6,1.1,7.7-1.2,10.9c-1.1,1.5-2.1,2.9-3.2,4.4c-3.6,4.9-10.4,5.9-15.2,2.4c-4.9-3.6-5.9-10.4-2.4-15.2
							C221.2,314.3,222.3,312.8,223.4,311.4L223.4,311.4z M220.2,315.8c2.3-3.1,6.1-4.8,10-4.4c3.9,0.4,7.2,2.9,8.8,6.4
							c1.6,3.6,1.1,7.7-1.2,10.9c-1.1,1.5-2.1,2.9-3.2,4.4c-2.3,3.1-6.1,4.8-10,4.4c-3.9-0.4-7.2-2.9-8.8-6.4
							c-1.6-3.6-1.1-7.7,1.2-10.9C218,318.7,219.1,317.2,220.2,315.8L220.2,315.8z M217,320.2c3.6-4.9,10.4-5.9,15.2-2.4
							c4.9,3.6,5.9,10.4,2.4,15.2c-1.1,1.5-2.1,2.9-3.2,4.4c-2.3,3.1-6.1,4.8-10,4.4c-3.9-0.4-7.2-2.9-8.8-6.4
							c-1.6-3.6-1.1-7.7,1.2-10.9C214.8,323.1,215.9,321.6,217,320.2L217,320.2z M213.8,324.5c3.6-4.9,10.4-5.9,15.2-2.4
							c4.9,3.6,5.9,10.4,2.4,15.2c-1.1,1.5-2.1,2.9-3.2,4.4c-2.3,3.1-6.1,4.8-10,4.4c-3.9-0.4-7.2-2.9-8.8-6.4
							c-1.6-3.6-1.1-7.7,1.2-10.9C211.6,327.5,212.7,326,213.8,324.5L213.8,324.5z M225.8,326.6c4.9,3.6,5.9,10.4,2.4,15.2
							c-1.1,1.5-2.1,2.9-3.2,4.4c-3.6,4.9-10.4,5.9-15.2,2.4c-4.9-3.6-5.9-10.4-2.4-15.2c1.1-1.5,2.1-2.9,3.2-4.4
							C214.1,324.1,220.9,323,225.8,326.6z M207.4,333.3c2.3-3.1,6.1-4.8,10-4.4c3.9,0.4,7.2,2.9,8.8,6.4c1.6,3.6,1.1,7.7-1.2,10.9
							c-1.1,1.5-2.1,2.9-3.2,4.4c-3.6,4.9-10.4,5.9-15.2,2.4c-4.9-3.6-5.9-10.4-2.4-15.2C205.2,336.3,206.3,334.8,207.4,333.3
							L207.4,333.3z M204.2,337.7c3.6-4.9,10.4-5.9,15.2-2.4c4.9,3.6,5.9,10.4,2.4,15.2c-1.1,1.5-2.1,2.9-3.2,4.4
							c-2.3,3.1-5.8,4.6-9.4,4.5c-1.1-1-2.3-2-3.4-2.9c-2.2-1.8-4.4-3.7-6.6-5.5c-0.7-3-0.1-6.3,1.8-8.9
							C202,340.6,203.1,339.2,204.2,337.7L204.2,337.7z M201,342.1c3.6-4.9,10.4-5.9,15.2-2.4c4.9,3.6,5.9,10.4,2.4,15.2
							c-1.1,1.5-2.1,2.9-3.2,4.4c-0.8,1.2-1.9,2.1-3,2.8c-2.2-1.9-4.4-3.8-6.6-5.7c-2.8-2.4-5.7-4.7-8.5-7c0,0,0,0,0,0
							c-0.3-0.2-0.5-0.4-0.8-0.6c0.3-0.8,0.8-1.6,1.3-2.4C198.8,345,199.9,343.6,201,342.1L201,342.1z M197.7,346.5
							c2.3-3.1,6.1-4.8,10-4.4c3.9,0.4,7.2,2.9,8.8,6.4c1.6,3.6,1.1,7.7-1.2,10.9c-0.8,1.1-1.6,2.2-2.4,3.3
							c-2.4-2.1-4.8-4.2-7.2-6.2c-2.8-2.4-5.7-4.7-8.5-7c0,0,0,0,0,0c-0.3-0.3-0.7-0.5-1-0.8C196.7,347.9,197.2,347.2,197.7,346.5
							L197.7,346.5z"/>
					</g>
				</g>
				<g id="path88_00000114792394450585488520000001034872014952365750_">
					<g class="st11">
						<path class="st12" d="M173.6,343.7c3.9-4.6,10.8-5.2,15.4-1.4c1.3,1.1,2.6,2.2,3.9,3.3c3,2.5,4.4,6.4,3.7,10.3
							c-0.7,3.8-3.3,7-7,8.4c-3.7,1.3-7.8,0.6-10.7-1.9c-1.3-1.1-2.6-2.2-3.9-3.3C170.3,355.2,169.7,348.3,173.6,343.7z M177.5,347
							c3.9-4.6,10.8-5.2,15.4-1.4c1.3,1.1,2.6,2.2,3.9,3.3c3,2.5,4.4,6.4,3.7,10.3c-0.7,3.8-3.3,7-7,8.4c-3.7,1.3-7.8,0.6-10.7-1.9
							c-1.3-1.1-2.6-2.2-3.9-3.3C174.2,358.5,173.6,351.6,177.5,347z M182.8,365.6c-4.6-3.9-5.2-10.8-1.4-15.4
							c3.9-4.6,10.8-5.2,15.4-1.4c1.3,1.1,2.6,2.2,3.9,3.3c4.6,3.9,5.2,10.8,1.4,15.4c-3.9,4.6-10.8,5.2-15.4,1.4
							C185.4,367.8,184.1,366.7,182.8,365.6L182.8,365.6z M182.9,358.7c0.7-3.8,3.3-7,7-8.4c3.7-1.3,7.8-0.6,10.7,1.9
							c1.3,1.1,2.6,2.2,3.9,3.3c4.6,3.9,5.2,10.8,1.4,15.4s-10.8,5.2-15.4,1.4c-1.3-1.1-2.6-2.2-3.9-3.3
							C183.7,366.4,182.3,362.5,182.9,358.7z M190.6,372.2c-4.6-3.9-5.2-10.8-1.4-15.4c3.9-4.6,10.8-5.2,15.4-1.4
							c1.3,1.1,2.6,2.2,3.9,3.3c4.6,3.9,5.2,10.8,1.4,15.4c-3.9,4.6-10.8,5.2-15.4,1.4C193.2,374.4,191.9,373.3,190.6,372.2
							L190.6,372.2z M194.5,375.5c-4.4-3.7-5.2-10.2-1.8-14.8c3.4-4.6,9.9-5.8,14.7-2.7c0.7,0.5,1.4,1,2,1.6c0.3,0.3,0.7,0.6,1,0.9
							c0.7,0.5,1.3,1.1,2,1.6c4.6,3.9,5.2,10.8,1.4,15.4c-3.9,4.6-10.8,5.2-15.4,1.4C197.1,377.7,195.8,376.6,194.5,375.5
							L194.5,375.5z M194.7,368.5c0.7-3.8,3.3-7,7-8.4c3.7-1.3,7.8-0.6,10.7,1.9c1.3,1.1,2.6,2.2,3.9,3.3c4.6,3.9,5.2,10.8,1.4,15.4
							c-3.9,4.6-10.8,5.2-15.4,1.4c-1.3-1.1-2.6-2.2-3.9-3.3C195.4,376.3,194,372.4,194.7,368.5z M202.3,382.1
							c-3-2.5-4.4-6.4-3.7-10.3c0.7-3.8,3.3-7,7-8.4c3.7-1.3,7.8-0.6,10.7,1.9c1.3,1.1,2.6,2.2,3.9,3.3c4.6,3.9,5.2,10.8,1.4,15.4
							c-3.9,4.6-10.8,5.2-15.4,1.4C204.9,384.2,203.6,383.1,202.3,382.1L202.3,382.1z M197.4,379.5c-1-6,3.1-11.6,9-12.5
							c1.7-0.3,3.4-0.5,5-0.8c3.8-0.6,7.7,0.9,10.2,3.9c2.5,3,3.1,7.1,1.7,10.8c-1.4,3.6-4.6,6.3-8.5,6.9c-1.7,0.3-3.4,0.5-5,0.8
							C204,389.5,198.4,385.5,197.4,379.5z M192.4,380.3c-1-6,3.1-11.6,9-12.5c1.7-0.3,3.4-0.5,5-0.8c6-1,11.6,3.1,12.5,9
							c1,6-3.1,11.6-9,12.5c-1.7,0.3-3.4,0.5-5,0.8C198.9,390.3,193.3,386.3,192.4,380.3z M187.3,381.1c-1-6,3.1-11.6,9-12.5
							c1.7-0.3,3.4-0.5,5-0.8c3.8-0.6,7.7,0.9,10.2,3.9c2.5,3,3.1,7.1,1.7,10.8c-1.4,3.6-4.6,6.3-8.5,6.9c-1.7,0.3-3.4,0.5-5,0.8
							C193.9,391.1,188.3,387.1,187.3,381.1z M182.3,381.9c-1-6,3.1-11.6,9-12.5c1.7-0.3,3.4-0.5,5-0.8c6-1,11.6,3.1,12.5,9
							c1,6-3.1,11.6-9,12.5c-1.7,0.3-3.4,0.5-5,0.8C188.9,391.9,183.3,387.9,182.3,381.9z M177.3,382.8c-1-6,3.1-11.6,9-12.5
							c1.7-0.3,3.4-0.5,5-0.8c6-1,11.6,3.1,12.5,9c1,6-3.1,11.6-9,12.5c-1.7,0.3-3.4,0.5-5,0.8C183.8,392.8,178.2,388.7,177.3,382.8
							z M174.5,388.7c-2.5-3-3.1-7.1-1.7-10.8c1.4-3.6,4.6-6.3,8.5-6.9c1.7-0.3,3.4-0.5,5-0.8c3.8-0.6,7.7,0.9,10.2,3.9
							c2.5,3,3.1,7.1,1.7,10.8c-1.4,3.6-4.6,6.3-8.5,6.9c-1.7,0.3-3.4,0.5-5,0.8C180.9,393.2,177,391.7,174.5,388.7z M171.9,377
							c-0.2-6,4.5-11.1,10.5-11.3c6-0.2,11.1,4.5,11.3,10.5c0.1,1.7,0.1,3.5,0.2,5.2c0.2,6-4.5,11.1-10.5,11.3s-11.1-4.5-11.3-10.5
							C172,380.5,172,378.7,171.9,377L171.9,377z M181.6,360.6c5.7-0.6,10.9,3.4,11.8,9.1c0.1,0.9,0.1,1.7,0.2,2.6
							c0,0.4,0,0.9,0,1.3c0,0.9,0.1,1.7,0.1,2.6c0.1,3.9-1.8,7.6-5.1,9.6c-3.3,2.1-7.5,2.2-10.9,0.4c-3.4-1.8-5.6-5.4-5.8-9.3
							c-0.1-1.7-0.1-3.5-0.2-5.2C171.5,366.1,175.9,361.2,181.6,360.6z M182.1,355.4c6-0.2,11.1,4.5,11.3,10.5
							c0.1,1.7,0.1,3.5,0.2,5.2c0.1,3.9-1.8,7.6-5.1,9.6c-3.3,2.1-7.5,2.2-10.9,0.4s-5.6-5.4-5.8-9.3c-0.1-1.7-0.1-3.5-0.2-5.2
							C171.4,360.6,176.1,355.6,182.1,355.4z M176.5,351.8c3.3-2.1,7.5-2.2,10.9-0.4c3.4,1.8,5.6,5.4,5.8,9.3
							c0.1,1.7,0.1,3.5,0.2,5.2c0.1,3.9-1.8,7.6-5.1,9.6c-3.3,2.1-7.5,2.2-10.9,0.4c-3.4-1.8-5.6-5.4-5.8-9.3
							c-0.1-1.7-0.1-3.5-0.2-5.2C171.3,357.6,173.2,353.9,176.5,351.8z M171.2,356.3c-0.2-6,4.5-11.1,10.5-11.3
							c6-0.2,11.1,4.5,11.3,10.5c0.1,1.7,0.1,3.5,0.2,5.2c0.2,6-4.5,11.1-10.5,11.3c-6,0.2-11.1-4.5-11.3-10.5
							C171.3,359.7,171.3,358,171.2,356.3L171.2,356.3z M176.2,341.5c3.3-2.1,7.5-2.2,10.9-0.4c3.4,1.8,5.6,5.4,5.8,9.3
							c0.1,1.7,0.1,3.5,0.2,5.2c0.1,3.9-1.8,7.6-5.1,9.6c-3.3,2.1-7.5,2.2-10.9,0.4c-3.4-1.8-5.6-5.4-5.8-9.3
							c-0.1-1.7-0.1-3.5-0.2-5.2C170.9,347.2,172.9,343.5,176.2,341.5z"/>
					</g>
				</g>
			</g>
		</g>
	</g>
</g>
</svg>
