<?xml version="1.0" encoding="UTF-8" standalone="no"?>
<svg
   xmlns:dc="http://purl.org/dc/elements/1.1/"
   xmlns:cc="http://creativecommons.org/ns#"
   xmlns:rdf="http://www.w3.org/1999/02/22-rdf-syntax-ns#"
   xmlns:svg="http://www.w3.org/2000/svg"
   xmlns="http://www.w3.org/2000/svg"
   viewBox="0 0 793.70135 559.37067"
   height="559.37067"
   width="793.70135"
   xml:space="preserve"
   id="svg2"
   version="1.1"><metadata
     id="metadata8"><rdf:RDF><cc:Work
         rdf:about=""><dc:format>image/svg+xml</dc:format><dc:type
           rdf:resource="http://purl.org/dc/dcmitype/StillImage" /></cc:Work></rdf:RDF></metadata><defs
     id="defs6"><clipPath
       id="clipPath20"
       clipPathUnits="userSpaceOnUse"><path
         id="path18"
         d="M 0,-6.459215e-6 H 595.276 V 419.52799 H 0 Z" /></clipPath></defs><g
     transform="matrix(1.3333333,0,0,-1.3333333,0,559.37067)"
     id="g10"><g
       id="g12" /><g
       id="g14"><g
         clip-path="url(#clipPath20)"
         id="g16"><path
           id="path22"
           style="fill:#ffffff;fill-opacity:1;fill-rule:nonzero;stroke:none"
           d="M 0,-6.459215e-6 H 595.275 V 419.52799 H 0 Z" /></g></g><g
       id="g24"><path
         id="path26"
         style="fill:#000000;fill-opacity:1;fill-rule:nonzero;stroke:none"
         d="m 303.6645,276.3171 c 0.002,-0.6497 0.004,-1.2994 0.006,-1.949 10e-4,-0.3524 0.2875,-0.6371 0.6399,-0.636 0.3518,10e-4 0.6365,0.2874 0.636,0.6393 -0.002,0.5079 -0.003,1.0158 -0.005,1.5238 -0.4438,0.1026 -0.8707,0.2446 -1.2771,0.4219 z" /><g
         transform="matrix(0.5454546,0,0,-0.5454546,22.97169,407.5288)"
         id="g28"><path
           id="path30"
           style="fill:none;stroke:#000000;stroke-width:2.33858299;stroke-linecap:round;stroke-linejoin:round;stroke-miterlimit:10;stroke-dasharray:none;stroke-opacity:1"
           d="m 515.7837,244.1255 c 0.01,3.3124 0.019,6.6248 0.0286,9.9372 0.01,3.3124 0.019,6.6247 0.0285,9.9371 0.01,3.3124 0.0191,6.6247 0.0286,9.9371 0.01,3.3124 0.019,6.6247 0.0285,9.9371 0.01,3.3124 0.0191,6.6248 0.0286,9.9372 0.01,3.3123 0.0191,6.6247 0.0286,9.9371 0.01,3.3123 0.019,6.6247 0.0285,9.9371 0.01,3.3123 0.0191,6.6247 0.0286,9.9371 0.01,3.3124 0.019,6.6247 0.0286,9.9371 0.01,3.3124 0.019,6.6248 0.0285,9.9371 0.01,3.3124 0.0191,6.6248 0.0286,9.9372 0.01,3.3123 0.019,6.6247 0.0286,9.9371 0.01,3.3123 0.019,6.6247 0.0285,9.9371 0.01,3.3124 0.0191,6.6248 0.0286,9.9371 0.01,3.3124 0.019,6.6248 0.0286,9.9371 0.01,3.3124 0.019,6.6248 0.0285,9.9371 0.01,3.3124 0.0191,6.6248 0.0286,9.9371 0.01,3.3124 0.019,6.6248 0.0286,9.9372 0.01,3.3124 0.019,6.6247 0.0285,9.9371 0.01,3.3124 0.0191,6.6247 0.0286,9.9371 0.01,3.3124 0.019,6.6248 0.0285,9.9371 0.01,3.3124 0.0191,6.6248 0.0286,9.9372 0.01,3.3123 0.0191,6.6247 0.0286,9.9371 0.01,3.3123 0.019,6.6247 0.0285,9.9371 0.01,3.3124 0.0191,6.6247 0.0286,9.9371 0.01,3.3124 0.019,6.6248 0.0286,9.9371 0.01,3.3124 0.019,6.6248 0.0285,9.9371" /></g><path
         id="path32"
         style="fill:#000000;fill-opacity:1;fill-rule:nonzero;stroke:none"
         d="m 304.0908,128.021 c 0.004,-1.2067 0.007,-2.4133 0.0105,-3.6201 0.4298,-0.054 0.857,-0.1463 1.2764,-0.2774 -0.004,1.3004 -0.008,2.601 -0.0111,3.9013 -0.001,0.3524 -0.2874,0.6371 -0.6398,0.636 -0.3524,-0.001 -0.6371,-0.2875 -0.636,-0.6398 z" /><path
         id="path34"
         style="fill:#000000;fill-opacity:1;fill-rule:nonzero;stroke:none"
         d="m 82.80413,204.6892 c 0.96226,0.0287 1.92452,0.0574 2.88678,0.0863 0.35237,0.01 0.62891,0.3038 0.618,0.6561 -0.01036,0.3524 -0.30436,0.6284 -0.65563,0.618 -0.98677,-0.029 -1.97376,-0.0582 -2.96069,-0.0876 0.03334,-0.4245 0.07072,-0.8488 0.11154,-1.2728 z" /><g
         transform="matrix(0.5454546,0,0,-0.5454546,0,419.528)"
         id="g36"><path
           id="path38"
           style="fill:none;stroke:#000000;stroke-width:2.33858299;stroke-linecap:round;stroke-linejoin:round;stroke-miterlimit:10;stroke-dasharray:none;stroke-opacity:1"
           d="m 157.066,392.5461 c 3.3122,-0.0983 6.6244,-0.1967 9.9366,-0.2952 3.3122,-0.0983 6.6244,-0.1967 9.9366,-0.2951 3.3122,-0.0984 6.6244,-0.1968 9.9366,-0.2952 3.3122,-0.0984 6.6244,-0.1968 9.9366,-0.2952 3.3122,-0.0984 6.6244,-0.1968 9.9367,-0.2952 3.3121,-0.0984 6.6243,-0.1968 9.9366,-0.2952 3.3122,-0.0984 6.6244,-0.1968 9.9366,-0.2952 3.3122,-0.0984 6.6244,-0.1967 9.9366,-0.2951 3.3122,-0.0984 6.6244,-0.1968 9.9366,-0.2952 3.3122,-0.0984 6.6244,-0.1968 9.9366,-0.2952 3.3122,-0.0984 6.6244,-0.1968 9.9366,-0.2952 3.3122,-0.0984 6.6244,-0.1968 9.9366,-0.2952 3.3122,-0.0984 6.6244,-0.1968 9.9366,-0.2952 3.3123,-0.0984 6.6245,-0.1968 9.9367,-0.2952 3.3122,-0.0984 6.6243,-0.1968 9.9365,-0.2952 3.3122,-0.0983 6.6244,-0.1967 9.9367,-0.2951 3.3122,-0.0984 6.6244,-0.1968 9.9366,-0.2952 3.3122,-0.0984 6.6244,-0.1968 9.9366,-0.2952 3.3122,-0.0984 6.6244,-0.1968 9.9366,-0.2952 3.3122,-0.0984 6.6244,-0.1968 9.9366,-0.2952 3.3122,-0.0984 6.6244,-0.1968 9.9366,-0.2952 3.3122,-0.0984 6.6244,-0.1967 9.9366,-0.2951 3.3123,-0.0984 6.6245,-0.1968 9.9367,-0.2952 3.3122,-0.0984 6.6244,-0.1968 9.9366,-0.2952 3.3122,-0.0984 6.6244,-0.1968 9.9366,-0.2952 3.3122,-0.0984 6.6244,-0.1968 9.9366,-0.2952 3.3122,-0.0984 6.6244,-0.1968 9.9366,-0.2952 3.3122,-0.0984 6.6244,-0.1968 9.9366,-0.2952 3.3122,-0.0983 6.6244,-0.1967 9.9366,-0.2952 3.3122,-0.0984 6.6244,-0.1968 9.9366,-0.2951 3.3122,-0.0984 6.6244,-0.1968 9.9367,-0.2952 3.3122,-0.0984 6.6244,-0.1968 9.9366,-0.2952 3.3122,-0.0984 6.6244,-0.1968 9.9366,-0.2952 3.3121,-0.0984 6.6244,-0.1968 9.9366,-0.2952 3.3122,-0.0984 6.6244,-0.1968 9.9366,-0.2952 3.3122,-0.0984 6.6244,-0.1968 9.9366,-0.2952 3.3122,-0.0984 6.6244,-0.1967 9.9366,-0.2951 3.3122,-0.0984 6.6244,-0.1968 9.9366,-0.2952 3.3122,-0.0984 6.6244,-0.1968 9.9366,-0.2952 3.3122,-0.0984 6.6244,-0.1968 9.9367,-0.2952 3.3122,-0.0984 6.6244,-0.1968 9.9365,-0.2952 3.3123,-0.0984 6.6245,-0.1968 9.9367,-0.2952 3.3122,-0.0984 6.6244,-0.1968 9.9366,-0.2952 3.3122,-0.0983 6.6244,-0.1967 9.9366,-0.2951 3.3122,-0.0985 6.6244,-0.1969 9.9366,-0.2952 3.3122,-0.0984 6.6244,-0.1968 9.9366,-0.2952 3.3122,-0.0984 6.6244,-0.1968 9.9366,-0.2952 3.3122,-0.0984 6.6244,-0.1968 9.9366,-0.2952 3.3122,-0.0984 6.6244,-0.1968 9.9367,-0.2952 3.3121,-0.0984 6.6243,-0.1968 9.9365,-0.2952 3.3123,-0.0984 6.6245,-0.1968 9.9367,-0.2952 3.3122,-0.0984 6.6244,-0.1967 9.9366,-0.2951 3.3122,-0.0984 6.6244,-0.1968 9.9366,-0.2952 3.3122,-0.0984 6.6244,-0.1968 9.9366,-0.2952 3.3122,-0.0984 6.6244,-0.1968 9.9367,-0.2952 3.3122,-0.0984 6.6244,-0.1968 9.9365,-0.2952 3.3122,-0.0984 6.6244,-0.1968 9.9366,-0.2952 3.3122,-0.0984 6.6245,-0.1968 9.9367,-0.2951 3.3122,-0.0984 6.6244,-0.1968 9.9365,-0.2952 3.3123,-0.0985 6.6245,-0.1969 9.9367,-0.2952 3.3122,-0.0984 6.6244,-0.1968 9.9366,-0.2952 3.3122,-0.0984 6.6244,-0.1968 9.9366,-0.2952 3.3122,-0.0984 6.6244,-0.1968 9.9366,-0.2952 3.3122,-0.0984 6.6244,-0.1968 9.9366,-0.2952 3.3122,-0.0984 6.6244,-0.1968 9.9366,-0.2952 3.3123,-0.0983 6.6244,-0.1967 9.9366,-0.2951 3.3122,-0.0984 6.6245,-0.1968 9.9367,-0.2952 3.3121,-0.0984 6.6243,-0.1968 9.9366,-0.2952 3.3122,-0.0984 6.6244,-0.1968 9.9365,-0.2952 3.3123,-0.0984 6.6245,-0.1968 9.9367,-0.2952 3.3122,-0.0984 6.6244,-0.1968 9.9366,-0.2952 3.3122,-0.0984 6.6244,-0.1968 9.9366,-0.2951 3.3122,-0.0985 6.6244,-0.1969 9.9366,-0.2952 3.3122,-0.0984 6.6244,-0.1968 9.9366,-0.2952 3.3122,-0.0984 6.6244,-0.1968 9.9366,-0.2952 3.3122,-0.0984 6.6244,-0.1968 9.9366,-0.2952 3.3122,-0.0984 6.6244,-0.1968 9.9367,-0.2952 3.3121,-0.0984 6.6243,-0.1968 9.9365,-0.2952 3.3123,-0.0984 6.6245,-0.1968 9.9367,-0.2952 3.3122,-0.0983 6.6244,-0.1967 9.9366,-0.2952 3.3122,-0.0983 6.6244,-0.1967 9.9366,-0.2951 3.3122,-0.0984 6.6244,-0.1968 9.9366,-0.2952" /></g><g
         transform="matrix(0.5454546,0,0,-0.5454546,0,419.528)"
         id="g40"><path
           id="path42"
           style="fill:none;stroke:#000000;stroke-width:2.31700611;stroke-linecap:round;stroke-linejoin:round;stroke-miterlimit:10;stroke-dasharray:none;stroke-opacity:1"
           d="M 156.3204,525.5264 944.2416,242.569" /></g><g
         transform="matrix(0.5454546,0,0,-0.5454546,0,419.528)"
         id="g44"><path
           id="path46"
           style="fill:none;stroke:#007aff;stroke-width:4.123559;stroke-linecap:round;stroke-linejoin:round;stroke-miterlimit:10;stroke-dasharray:none;stroke-opacity:1"
           d="m 548.3083,354.8733 19.044,51.7793" /></g><g
         transform="matrix(0.5454546,0,0,-0.5454546,0,419.528)"
         id="g48"><path
           id="path50"
           style="fill:none;stroke:#007aff;stroke-width:4.123559;stroke-linecap:round;stroke-linejoin:round;stroke-miterlimit:10;stroke-dasharray:none;stroke-opacity:1"
           d="m 526.4394,360.6212 c 0.3297,23.8941 6.1045,42.4043 17.3241,55.5307" /></g><g
         transform="matrix(0.5454546,0,0,-0.5454546,0,419.528)"
         id="g52"><path
           id="path54"
           style="fill:none;stroke:#007aff;stroke-width:4.123559;stroke-linecap:round;stroke-linejoin:round;stroke-miterlimit:10;stroke-dasharray:none;stroke-opacity:1"
           d="m 506.0482,364.3891 c -4.0366,29.6298 1.8672,49.5225 17.7112,59.6782" /></g><g
         transform="matrix(0.5454546,0,0,-0.5454546,0,419.528)"
         id="g56"><path
           id="path58"
           style="fill:none;stroke:#007aff;stroke-width:4.123559;stroke-linecap:round;stroke-linejoin:round;stroke-miterlimit:10;stroke-dasharray:none;stroke-opacity:1"
           d="m 488.0297,365.9809 c -7.0587,32.5866 -0.6609,55.1574 19.1933,67.7124" /></g><g
         transform="matrix(0.5454546,0,0,-0.5454546,0,419.528)"
         id="g60"><path
           id="path62"
           style="fill:none;stroke:#007aff;stroke-width:4.123559;stroke-linecap:round;stroke-linejoin:round;stroke-miterlimit:10;stroke-dasharray:none;stroke-opacity:1"
           d="m 468.9736,367.2173 c -6.7273,36.4295 0.5399,61.8572 21.8019,76.283" /></g><g
         transform="matrix(0.5454546,0,0,-0.5454546,0,419.528)"
         id="g64"><path
           id="path66"
           style="fill:none;stroke:#007aff;stroke-width:4.123559;stroke-linecap:round;stroke-linejoin:round;stroke-miterlimit:10;stroke-dasharray:none;stroke-opacity:1"
           d="m 449.4866,367.7386 c -8.0808,41.2706 0.2005,69.718 24.8439,85.3422" /></g><g
         transform="matrix(0.5454546,0,0,-0.5454546,0,419.528)"
         id="g68"><path
           id="path70"
           style="fill:none;stroke:#007aff;stroke-width:4.123559;stroke-linecap:round;stroke-linejoin:round;stroke-miterlimit:10;stroke-dasharray:none;stroke-opacity:1"
           d="m 432.4067,366.9551 c -12.7842,48.0366 -3.3872,80.5105 28.191,97.4217" /></g><g
         transform="matrix(0.5454546,0,0,-0.5454546,0,419.528)"
         id="g72"><path
           id="path74"
           style="fill:none;stroke:#007aff;stroke-width:4.123559;stroke-linecap:round;stroke-linejoin:round;stroke-miterlimit:10;stroke-dasharray:none;stroke-opacity:1"
           d="m 571.9245,347.3448 c 14.0634,15.5825 20.4472,33.249 19.1517,52.9994" /></g><g
         transform="matrix(0.5454546,0,0,-0.5454546,0,419.528)"
         id="g76"><path
           id="path78"
           style="fill:none;stroke:#007aff;stroke-width:4.123559;stroke-linecap:round;stroke-linejoin:round;stroke-miterlimit:10;stroke-dasharray:none;stroke-opacity:1"
           d="m 595.1494,335.8013 c 20.7675,15.8957 27.3831,35.754 19.8468,59.5749" /></g><g
         transform="matrix(0.5454546,0,0,-0.5454546,0,419.528)"
         id="g80"><path
           id="path82"
           style="fill:none;stroke:#007aff;stroke-width:4.123559;stroke-linecap:round;stroke-linejoin:round;stroke-miterlimit:10;stroke-dasharray:none;stroke-opacity:1"
           d="m 614.7385,323.9229 c 20.4387,18.0535 27.6778,40.5884 21.7172,67.6047" /></g><g
         transform="matrix(0.5454546,0,0,-0.5454546,0,419.528)"
         id="g84"><path
           id="path86"
           style="fill:none;stroke:#007aff;stroke-width:4.123559;stroke-linecap:round;stroke-linejoin:round;stroke-miterlimit:10;stroke-dasharray:none;stroke-opacity:1"
           d="m 631.952,312.8318 c 25.7855,20.1913 33.6365,45.9215 23.5529,77.1907" /></g><g
         transform="matrix(0.5454546,0,0,-0.5454546,0,419.528)"
         id="g88"><path
           id="path90"
           style="fill:none;stroke:#007aff;stroke-width:4.123559;stroke-linecap:round;stroke-linejoin:round;stroke-miterlimit:10;stroke-dasharray:none;stroke-opacity:1"
           d="m 647.6683,300.8003 c 33.2405,21.8385 42.9834,51.46 29.2286,88.8644" /></g><g
         transform="matrix(0.5454546,0,0,-0.5454546,0,419.528)"
         id="g92"><path
           id="path94"
           style="fill:none;stroke:#007aff;stroke-width:4.123559;stroke-linecap:round;stroke-linejoin:round;stroke-miterlimit:10;stroke-dasharray:none;stroke-opacity:1"
           d="m 662.1727,288.0755 c 40.3399,22.6241 50.6864,56.1694 31.0397,100.6359" /></g><path
         id="path96"
         style="fill:#d20000;fill-opacity:0.1;fill-rule:nonzero;stroke:none"
         d="m 368.2503,207.5956 0.7767,3.3668 z" /><g
         transform="matrix(0.5454546,0,0,-0.5454546,0,419.528)"
         id="g98"><path
           id="path100"
           style="fill:none;stroke:#d20000;stroke-width:4.15747976;stroke-linecap:round;stroke-linejoin:round;stroke-miterlimit:10;stroke-dasharray:none;stroke-opacity:1"
           d="m 877.0643,281.2703 c 19.2321,21.6092 23.59,48.6231 13.0736,81.0415" /></g><g
         transform="matrix(0.5454546,0,0,-0.5454546,0,419.528)"
         id="g102"><path
           id="path104"
           style="fill:none;stroke:#d20000;stroke-width:4.15747976;stroke-linecap:round;stroke-linejoin:round;stroke-miterlimit:10;stroke-dasharray:none;stroke-opacity:1"
           d="m 875.1302,279.8614 c 0.0162,-0.3998 -0.0911,-0.4874 -0.3221,-0.2628 -0.1691,0.1644 -0.5306,0.9689 -1.0844,2.4132 -0.5538,1.4444 -1.0944,2.8076 -1.6218,4.0899 -0.5273,1.2822 -0.8386,2.1054 -0.9337,2.4696 -0.0952,0.3643 -0.149,0.5702 -0.1615,0.6178 -0.0124,0.0477 -0.003,0.0458 0.0292,-0.006 0.032,-0.0515 0.17,-0.2742 0.4141,-0.668 0.2441,-0.3939 0.5533,-0.9619 0.9276,-1.704 0.3743,-0.7422 0.7174,-1.5208 1.0294,-2.3359 0.3119,-0.8152 0.5461,-1.5576 0.7027,-2.2273 0.1565,-0.6697 0.2453,-1.2528 0.2663,-1.7491 0.0211,-0.4963 0.4226,-0.4708 1.2047,0.0765 0.7821,0.5473 1.3825,0.9342 1.8011,1.1608 0.4186,0.2266 0.8896,0.4545 1.413,0.6836 0.5234,0.2291 1.3102,0.5078 2.3604,0.8362 1.0502,0.3284 1.9635,0.5991 2.7398,0.8122 0.7762,0.2131 1.2184,0.4244 1.3264,0.634 0.1081,0.2096 0.1381,0.4653 0.09,0.7672 -0.048,0.3018 -0.2003,0.608 -0.4568,0.9183 -0.2565,0.3104 -0.5948,0.5562 -1.0148,0.7375 -0.42,0.1813 -1.2337,0.3977 -2.4411,0.6493 -1.2075,0.2517 -2.0568,0.4366 -2.5481,0.5549 -0.4913,0.1183 -1.469,0.4557 -2.9334,1.0124 -1.4643,0.5568 -2.7954,1.0796 -3.9934,1.5685 -1.198,0.4889 -1.9388,0.7829 -2.2225,0.882 -0.2837,0.0991 -0.4343,0.1517 -0.4519,0.1579 -0.0177,0.006 -0.0151,0.002 0.008,-0.0126 0.0229,-0.0145 0.2179,-0.1385 0.5851,-0.3721 0.3671,-0.2336 1.0391,-0.7512 2.016,-1.5527 0.9768,-0.8016 1.7562,-1.5038 2.3379,-2.1068 0.5818,-0.603 1.2713,-1.3425 2.0687,-2.2183 0.7974,-0.8758 1.2859,-1.437 1.4655,-1.6834 0.1797,-0.2465 0.2944,-0.4797 0.344,-0.6998 0.0496,-0.2201 -0.0941,-0.3603 -0.431,-0.4205 -0.3369,-0.0603 -0.6064,-0.0527 -0.8087,0.0229 -0.2023,0.0756 -0.3622,0.196 -0.4796,0.3612 -0.1175,0.1652 0.0189,0.3076 0.4092,0.4272 0.5573,0.1708 2.5708,0.2974 6.0407,0.3796" /></g><g
         transform="matrix(0.5454546,0,0,-0.5454546,0,419.528)"
         id="g106"><path
           id="path108"
           style="fill:none;stroke:#d20000;stroke-width:4.15747976;stroke-linecap:round;stroke-linejoin:round;stroke-miterlimit:10;stroke-dasharray:none;stroke-opacity:1"
           d="m 838.5753,330.5817 c 0.0802,-0.6029 0.2432,-1.2811 0.489,-2.0344 0.1615,-0.4946 0.3765,-1.0253 0.6451,-1.592 0.2685,-0.5668 0.6104,-1.1569 1.0258,-1.7703 0.4154,-0.6134 0.878,-1.1978 1.3878,-1.7532 0.5099,-0.5554 0.9895,-1.0233 1.439,-1.4036 0.4495,-0.3803 0.8478,-0.6857 1.195,-0.9163 0.3471,-0.2306 0.7195,-0.3994 1.117,-0.5064 0.3975,-0.107 0.6249,0.1885 0.6824,0.8866 0.0575,0.6981 0.008,1.4029 -0.1472,2.1144 -0.1555,0.7116 -0.3258,1.5123 -0.5107,2.4024 -0.1849,0.8899 -0.3531,1.8445 -0.5044,2.8637 -0.1513,1.0192 -0.2462,2.0205 -0.2845,3.0039 -0.0384,0.9834 -0.0429,1.8977 -0.0135,2.7429 0.0293,0.8453 0.1916,1.6245 0.4868,2.3377 0.2952,0.7132 0.6617,1.2921 1.0997,1.7369 0.438,0.4448 0.9031,0.744 1.3952,0.8975 0.4921,0.1535 1.0401,0.2077 1.6439,0.1628 0.6038,-0.045 1.2796,-0.2866 2.0274,-0.7249 0.7479,-0.4383 1.6175,-1.0122 2.6089,-1.7218 0.9913,-0.7095 1.9833,-1.5336 2.9757,-2.4721 0.9925,-0.9385 1.9003,-1.9917 2.7236,-3.1595 0.8232,-1.1679 1.53,-2.3716 2.1204,-3.6111 0.5904,-1.2395 1.1028,-2.4037 1.5371,-3.4926 0.4344,-1.089 0.8227,-2.1762 1.165,-3.2617 0.3423,-1.0854 0.6286,-2.238 0.8587,-3.4577 0.2302,-1.2196 0.3618,-2.3915 0.3948,-3.5156 0.033,-1.124 -0.0336,-2.2421 -0.1997,-3.3543 -0.1661,-1.1122 -0.4683,-2.1589 -0.9066,-3.14 -0.4384,-0.9811 -0.9203,-1.8222 -1.4457,-2.5234 -0.5254,-0.7013 -1.1713,-1.2377 -1.9379,-1.6094 -0.7665,-0.3717 -1.5916,-0.5819 -2.4752,-0.6306 -0.8837,-0.0488 -1.8097,0.0751 -2.7781,0.3718 -0.9684,0.2967 -1.8398,0.6524 -2.6141,1.0671 -0.7743,0.4148 -1.4543,0.8725 -2.0398,1.3733 -0.5856,0.5008 -1.0637,1.0174 -1.4344,1.55 -0.3707,0.5325 -0.6593,1.0551 -0.8658,1.5677 -0.2064,0.5125 -0.3449,0.9986 -0.4154,1.4581 -0.0704,0.4595 -0.1091,0.8572 -0.1162,1.1931 -0.007,0.3359 0.1036,0.6112 0.3321,0.8257 0.2284,0.2145 0.6032,0.351 1.1242,0.4096 0.521,0.0586 1.1994,0.0305 2.0352,-0.0843 0.8358,-0.1148 1.7837,-0.3345 2.8437,-0.6591 1.06,-0.3246 2.1145,-0.7026 3.1637,-1.1341 1.5377,-0.6324 3.4412,-1.7109 5.7104,-3.2356" /></g><g
         transform="matrix(0.5454546,0,0,-0.5454546,-0.3858217,420.6958)"
         id="g110"><path
           id="path112"
           style="fill:none;stroke:#d20000;stroke-width:2.33858299;stroke-linecap:round;stroke-linejoin:round;stroke-miterlimit:10;stroke-dasharray:none;stroke-opacity:1"
           d="M 548.3083,354.8733 183.953,485.477" /></g><g
         transform="matrix(0.5454546,0,0,-0.5454546,0,419.528)"
         id="g114"><path
           id="path116"
           style="fill:none;stroke:#d20000;stroke-width:4.15747976;stroke-linecap:round;stroke-linejoin:round;stroke-miterlimit:10;stroke-dasharray:none;stroke-opacity:1"
           d="m 231.7941,470.9349 7.6809,21.1184" /></g><g
         transform="matrix(0.5454546,0,0,-0.5454546,0,419.528)"
         id="g118"><path
           id="path120"
           style="fill:none;stroke:#d20000;stroke-width:4.15747976;stroke-linecap:round;stroke-linejoin:round;stroke-miterlimit:10;stroke-dasharray:none;stroke-opacity:1"
           d="m 227.3061,472.2105 c 0.2885,-0.0939 0.6086,-0.2351 0.9603,-0.4236 0.3517,-0.1885 0.8583,-0.4019 1.5198,-0.6401 0.9718,-0.3501 2.2342,-0.757 3.787,-1.2208" /></g><g
         transform="matrix(0.5454546,0,0,-0.5454546,0,419.528)"
         id="g122"><path
           id="path124"
           style="fill:none;stroke:#d20000;stroke-width:4.15747976;stroke-linecap:round;stroke-linejoin:round;stroke-miterlimit:10;stroke-dasharray:none;stroke-opacity:1"
           d="m 235.3988,494.8264 c 0.2554,2e-4 0.5691,-0.0758 0.941,-0.228 0.2419,-0.0989 0.5478,-0.2053 0.9175,-0.319 0.3698,-0.1137 0.7585,-0.2381 1.1661,-0.3733 0.4075,-0.1352 0.834,-0.2877 1.2794,-0.4576 0.6561,-0.2501 1.4185,-0.6368 2.287,-1.1601" /></g><g
         transform="matrix(0.5454546,0,0,-0.5454546,0,419.528)"
         id="g126"><path
           id="path128"
           style="fill:none;stroke:#d20000;stroke-width:4.15747976;stroke-linecap:round;stroke-linejoin:round;stroke-miterlimit:10;stroke-dasharray:none;stroke-opacity:1"
           d="m 248.4966,473.0819 c -0.0233,-0.4107 -0.0381,-0.5667 -0.0444,-0.4682 -0.005,0.0708 -0.0157,0.2476 -0.0337,0.5305 -0.018,0.2828 -0.027,0.8008 -0.0271,1.5537 -1e-4,0.753 0.0258,1.3485 0.0778,1.7867 0.0519,0.4382 0.1324,0.9068 0.2414,1.4058 0.109,0.4991 0.2505,1.0011 0.4243,1.5063 0.1738,0.5051 0.3805,0.9843 0.6199,1.4375 0.2394,0.4532 0.5205,0.8456 0.8435,1.1773 0.3229,0.3317 0.6599,0.5761 1.0109,0.7331 0.351,0.1569 0.6675,0.2464 0.9497,0.2683 0.2822,0.022 0.5511,-0.031 0.8067,-0.1588 0.2556,-0.1279 0.4776,-0.3345 0.6661,-0.6199 0.1885,-0.2855 0.3602,-0.6213 0.5151,-1.0075 0.1549,-0.3862 0.2921,-0.7906 0.4114,-1.2132 0.1194,-0.4225 0.2083,-0.8081 0.2667,-1.1567 0.0585,-0.3487 0.1005,-0.6574 0.1261,-0.9261 0.0255,-0.2688 0.0361,-0.5464 0.0318,-0.833 -0.004,-0.2865 -0.0102,-0.4104 -0.0175,-0.3717 -0.007,0.0387 -0.0255,0.1355 -0.0547,0.2904 -0.0292,0.155 -0.034,0.3521 -0.0144,0.5914 0.0196,0.2394 0.0662,0.4911 0.1398,0.7551 0.0736,0.2641 0.1758,0.5137 0.3067,0.749 0.1309,0.2352 0.2906,0.4428 0.4792,0.6227 0.1885,0.1798 0.4095,0.3044 0.6629,0.3736 0.2534,0.0693 0.5396,0.1074 0.8585,0.1143 0.319,0.007 0.6404,-0.0574 0.9641,-0.1931 0.3238,-0.1356 0.6316,-0.3177 0.9236,-0.5464 0.292,-0.2286 0.56,-0.4907 0.8041,-0.7862 0.244,-0.2955 0.4597,-0.6012 0.647,-0.9172 0.1874,-0.3159 0.3423,-0.6391 0.4649,-0.9696 0.1226,-0.3305 0.2133,-0.6748 0.2721,-1.033 0.0588,-0.3582 0.0938,-0.7185 0.1051,-1.0807 0.0112,-0.3622 0.001,-0.714 -0.0298,-1.0554 -0.0311,-0.3413 -0.1162,-0.6754 -0.2554,-1.0022 -0.1392,-0.3268 -0.3169,-0.656 -0.5332,-0.9875 -0.2162,-0.3316 -0.4784,-0.6834 -0.7865,-1.0555 -0.308,-0.372 -0.6136,-0.7067 -0.9165,-1.0041 -0.4447,-0.4364 -1.0792,-0.9227 -1.9036,-1.4588" /></g><g
         transform="matrix(0.5454546,0,0,-0.5454546,0,419.528)"
         id="g130"><path
           id="path132"
           style="fill:none;stroke:#d20000;stroke-width:4.15747976;stroke-linecap:round;stroke-linejoin:round;stroke-miterlimit:10;stroke-dasharray:none;stroke-opacity:1"
           d="m 267.0319,474.4892 c -0.0596,-0.3007 -0.091,-0.5864 -0.094,-0.8572 -0.002,-0.1819 0.0227,-0.3732 0.0745,-0.574 0.0517,-0.2008 0.1294,-0.3994 0.233,-0.5958 0.1037,-0.1964 0.226,-0.3951 0.3671,-0.5961 0.141,-0.2009 0.2929,-0.3834 0.4556,-0.5473 0.1628,-0.1639 0.34,-0.3122 0.5317,-0.4449 0.1918,-0.1327 0.3921,-0.2451 0.6011,-0.3372 0.2089,-0.092 0.4411,-0.1589 0.6966,-0.2006 0.2554,-0.0417 0.5481,-0.0647 0.878,-0.0689 0.3299,-0.004 0.6976,0.0461 1.103,0.1507 0.4054,0.1047 0.7877,0.2398 1.1469,0.4053 0.3593,0.1655 0.6965,0.3673 1.0117,0.6051 0.3152,0.238 0.5898,0.5089 0.8236,0.8128 0.2339,0.3039 0.4108,0.6274 0.5309,0.9704 0.1201,0.3431 0.1897,0.7075 0.2088,1.0932 0.0192,0.3857 -0.0159,0.7605 -0.1053,1.1242 -0.0894,0.3637 -0.2854,0.7101 -0.5879,1.0391 -0.3026,0.329 -0.6606,0.6106 -1.074,0.8449 -0.4134,0.2342 -0.8816,0.4312 -1.4046,0.591 -0.523,0.1597 -0.9995,0.2607 -1.4295,0.3029 -0.4301,0.0423 -0.8484,0.0393 -1.2548,-0.009 -0.4065,-0.0484 -0.793,-0.1725 -1.1595,-0.3724 -0.5303,-0.2893 -1.1661,-1.0242 -1.9075,-2.2047" /></g><path
         id="path134"
         style="fill:#000000;fill-opacity:1;fill-rule:nonzero;stroke:none"
         d="m 300.0545,357.869 c -0.0819,-0.1967 -0.0792,-0.4177 7e-4,-0.6141 0,0.0757 0,0.1513 -1e-4,0.227 0,0 0,1e-4 0,1e-4 -2e-4,0.129 -3e-4,0.258 -6e-4,0.387 z" /><g
         transform="matrix(0.5454546,0,0,-0.5454546,0,419.528)"
         id="g136"><path
           id="path138"
           style="fill:none;stroke:#000000;stroke-width:2.33858299;stroke-linecap:round;stroke-linejoin:round;stroke-miterlimit:10;stroke-dasharray:none;stroke-opacity:1"
           d="m 972.4559,362.535 c -0.2052,0.8803 -0.3088,2.6845 -0.3108,5.4124 -0.002,2.728 -0.003,4.1638 -0.003,4.3074 l 5e-4,0.1572 6e-4,-0.0214 c 9e-4,-0.0531 0.009,-0.5837 0.0257,-1.592 0.0163,-1.0082 0.0419,-2.0293 0.0767,-3.0635 0.0349,-1.0342 0.0525,-2.1855 0.0528,-3.4539 4e-4,-1.2683 -0.0804,-2.0529 -0.2423,-2.3538 -0.1619,-0.3009 -0.3493,-0.4576 -0.5621,-0.4703 -0.2128,-0.0127 -0.3232,0.2308 -0.3311,0.7303 -0.008,0.4996 0.1826,0.9568 0.5712,1.3717 0.3887,0.415 0.9233,0.845 1.604,1.2902 0.6806,0.4452 1.5122,0.902 2.4948,1.3705 0.9825,0.4685 1.9874,0.9618 3.0146,1.4799 1.0271,0.5181 1.8231,0.9787 2.3881,1.3818 0.565,0.4031 0.937,0.7338 1.1162,0.992 0.1791,0.2583 -0.2525,0.5882 -1.2949,0.9897 -1.0424,0.4014 -1.9717,0.7746 -2.788,1.1194 -0.8162,0.3448 -1.7487,0.7118 -2.7972,1.1012 -1.0486,0.3893 -1.8221,0.6614 -2.3206,0.8164 -0.4985,0.1549 -0.7637,0.2373 -0.7958,0.2473 -0.032,0.01 -0.0371,0.006 -0.0154,-0.0115 0.0219,-0.0176 0.2024,-0.1636 0.5415,-0.438 0.3392,-0.2743 0.6563,-0.6402 0.9511,-1.0978 0.2948,-0.4575 0.5238,-0.9782 0.6869,-1.562 0.1632,-0.5838 0.2489,-1.298 0.2572,-2.1426 0.008,-0.8446 -0.1838,-1.4958 -0.5762,-1.9534 -0.3924,-0.4576 -0.5993,-0.6989 -0.6207,-0.7239 -0.0215,-0.0249 -0.0198,-0.028 0.005,-0.009 0.0247,0.0188 0.2635,0.2011 0.7163,0.5469 0.4528,0.3457 0.9357,0.617 1.4486,0.8137 0.5129,0.1968 0.9732,0.304 1.3809,0.3216 0.4077,0.0177 0.696,0.0302 0.8647,0.0375 0.1688,0.007 0.1899,-0.0295 0.0632,-0.1103 -0.1266,-0.0808 -0.3428,-0.2188 -0.6487,-0.414 -0.3058,-0.1952 -0.8163,-0.4605 -1.5313,-0.7961 -0.715,-0.3355 -1.1743,-0.5278 -1.3779,-0.5769 -0.2036,-0.0491 -0.3345,-0.0806 -0.3926,-0.0946 -0.0581,-0.0141 -0.0533,0.0149 0.0145,0.0868 0.0678,0.0719 0.2204,0.2339 0.4578,0.4858 0.2374,0.2519 0.5777,0.552 1.0206,0.9001 0.443,0.3482 0.867,0.6316 1.2719,0.8502 0.4049,0.2186 0.6674,0.3832 0.7875,0.4937 0.1202,0.1104 -0.1553,0.2571 -0.8265,0.4398 -0.6712,0.1827 -1.4446,0.3457 -2.3201,0.489 -0.8754,0.1433 -1.4265,0.3069 -1.6533,0.4909 -0.2268,0.184 -0.3351,0.3639 -0.3249,0.5399 0.0101,0.176 0.229,0.2762 0.6566,0.3007 0.4275,0.0245 0.7924,0.005 1.0946,-0.0571 0.3022,-0.0626 0.7652,-0.3161 1.3891,-0.7604 0.6239,-0.4443 1.1195,-0.8618 1.4869,-1.2525 0.3673,-0.3907 0.5592,-0.6788 0.5758,-0.8642 0.0165,-0.1854 -0.1097,-0.2112 -0.3785,-0.0773 -0.2689,0.1339 -0.5449,0.4591 -0.828,0.9758 -0.2832,0.5166 -0.4455,0.844 -0.4869,0.9823 -0.0414,0.1383 0.0182,0.1735 0.1788,0.1057 0.1606,-0.0679 0.401,0.006 0.7213,0.2222 0.3203,0.216 0.7414,0.3721 1.2632,0.4683 0.7296,0.1345 1.0992,-0.13 1.1087,-0.7935" /></g><g
         transform="matrix(0.5454546,0,0,-0.5454546,0,419.528)"
         id="g140"><path
           id="path142"
           style="fill:none;stroke:#000000;stroke-width:2.33858299;stroke-linecap:round;stroke-linejoin:round;stroke-miterlimit:10;stroke-dasharray:none;stroke-opacity:1"
           d="m 978.3242,381.5237 c 0,0.1229 0,0.2459 0,0.3689" /></g><g
         transform="matrix(0.5454546,0,0,-0.5454546,0,419.528)"
         id="g144"><path
           id="path146"
           style="fill:none;stroke:#000000;stroke-width:2.33858299;stroke-linecap:round;stroke-linejoin:round;stroke-miterlimit:10;stroke-dasharray:none;stroke-opacity:1"
           d="m 976.8512,380.5055 c 0.5374,0.7128 1.4285,1.6135 2.6732,2.702 0.7959,0.696 1.4494,1.2422 1.9605,1.6385 0.5111,0.3964 1.2529,0.9281 2.2253,1.5953 0.9725,0.6671 1.7563,1.2002 2.3516,1.5994 0.5953,0.3993 1.1186,0.6944 1.57,0.8855" /></g><g
         transform="matrix(0.5454546,0,0,-0.5454546,0,419.528)"
         id="g148"><path
           id="path150"
           style="fill:none;stroke:#000000;stroke-width:2.33858299;stroke-linecap:round;stroke-linejoin:round;stroke-miterlimit:10;stroke-dasharray:none;stroke-opacity:1"
           d="m 975.9176,388.5378 c 0.4221,-1.1292 0.8889,-2.0676 1.4004,-2.8152 0.3463,-0.5061 0.7788,-1.0417 1.2975,-1.6069 0.7448,-0.8118 2.726,-2.6524 5.9435,-5.5219" /></g><g
         transform="matrix(0.5454546,0,0,-0.5454546,0,419.528)"
         id="g152"><path
           id="path154"
           style="fill:none;stroke:#000000;stroke-width:2.33858299;stroke-linecap:round;stroke-linejoin:round;stroke-miterlimit:10;stroke-dasharray:none;stroke-opacity:1"
           d="m 557.4671,255.8921 c -0.5924,0.7509 -1.2159,1.8734 -1.8705,3.3676 -0.6546,1.4943 -1.3766,3.0703 -2.1659,4.7281 -0.7894,1.6578 -1.2562,2.6383 -1.4006,2.9415 -0.1444,0.3032 -0.2028,0.408 -0.1752,0.3145 0.0275,-0.0936 0.1166,-0.396 0.2673,-0.9075 0.1506,-0.5114 0.5413,-1.3965 1.1719,-2.6552 0.6306,-1.2588 1.2795,-2.6114 1.9468,-4.0578 0.6673,-1.4465 1.1182,-2.3685 1.3527,-2.766 0.2346,-0.3975 0.8728,-0.0101 1.9146,1.162 1.0418,1.1722 2.178,2.3522 3.4085,3.5398 1.2307,1.1877 2.2297,2.1083 2.9972,2.7618 0.7675,0.6534 1.3303,1.1676 1.6884,1.5426 0.3581,0.3749 0.4601,0.7075 0.306,0.9976 -0.1542,0.2902 -0.678,0.5655 -1.5714,0.826 -0.8934,0.2605 -2.0771,0.4201 -3.551,0.4787 -1.4739,0.0587 -2.5713,0.0574 -3.2922,-0.004 -0.7209,-0.0613 -2.0021,-0.4585 -3.8435,-1.1917 -1.8414,-0.7332 -2.8551,-1.1363 -3.0409,-1.2095 -0.1859,-0.0732 -0.2917,-0.1148 -0.3174,-0.125 -0.0257,-0.0101 0.1037,-0.0126 0.3883,-0.007 0.2845,0.005 1.4555,0.0264 3.513,0.0637 2.0574,0.0372 3.878,0.0701 5.4618,0.0986 1.5838,0.0285 2.4175,0.0435 2.5011,0.045 l 0.0777,6e-4 -0.0293,-0.002 c -0.0514,-0.002 -0.5634,-0.0249 -1.5362,-0.068 -0.9727,-0.043 -2.0761,-0.1445 -3.3103,-0.3045 -1.2341,-0.1599 -2.3158,-0.3709 -3.245,-0.633 -0.9292,-0.262 -1.5903,-0.4911 -1.9832,-0.6871 -0.393,-0.196 -0.1389,-0.4778 0.7624,-0.8453 0.9012,-0.3675 2.0986,-0.7654 3.5922,-1.1935 1.4936,-0.4282 2.3148,-0.6636 2.4634,-0.7062 0.1486,-0.0426 0.1691,-0.0649 0.0615,-0.0668 -0.1075,-0.002 -0.7017,-0.0123 -1.7826,-0.0313 -1.0809,-0.019 -1.7082,-0.1255 -1.882,-0.3196 -0.1738,-0.194 -0.2923,-0.3263 -0.3554,-0.3969 -0.0632,-0.0705 0.0212,-0.0693 0.253,0.004 0.2318,0.0731 0.6666,0.2103 1.3045,0.4115 0.6377,0.2012 1.3498,0.4038 2.1361,0.6079 0.7863,0.2041 1.2155,0.3155 1.2876,0.3343 0.0721,0.0187 0.0838,0.0282 0.0351,0.0285 -0.0487,2e-4 -0.3384,0.002 -0.8692,0.005 -0.5309,0.003 -1.1508,-0.106 -1.8598,-0.3268 -0.7089,-0.2209 -1.3498,-0.5725 -1.9227,-1.0546 -0.5728,-0.4822 -0.8359,-0.6728 -0.7893,-0.5719 0.0466,0.1009 0.1631,0.3532 0.3496,0.7569 0.1864,0.4037 0.5654,0.989 1.1369,1.756 0.5715,0.767 0.9195,1.4023 1.0439,1.906 0.1245,0.5038 0.1919,0.7764 0.2021,0.818 0.0103,0.0416 0.0139,0.044 0.0108,0.007 -0.003,-0.0369 -0.0238,-0.2788 -0.0619,-0.7255 -0.0381,-0.4468 -0.227,-0.992 -0.5667,-1.6357 -0.3396,-0.6436 -0.7026,-1.1426 -1.089,-1.4968 -0.3863,-0.3543 -0.6899,-0.5728 -0.9109,-0.6554 -0.2209,-0.0827 -0.295,-0.0747 -0.2222,0.0239 0.0728,0.0986 0.2548,0.3451 0.5461,0.7396 0.2913,0.3944 0.8208,0.7853 1.5886,1.1725 0.7678,0.3871 1.7204,0.7535 2.8577,1.0991 1.1373,0.3456 1.7552,0.5334 1.8537,0.5633 0.0985,0.03 0.0957,0.006 -0.008,-0.0723 -0.1039,-0.0783 -0.7555,-0.5689 -1.955,-1.472 -1.1995,-0.903 -2.21,-1.7126 -3.0317,-2.4287 -0.8217,-0.716 -1.4512,-1.3009 -1.8883,-1.7546 -0.4372,-0.4536 -0.6823,-0.7079 -0.7353,-0.7629 -0.0529,-0.055 -0.0629,-0.0563 -0.0297,-0.004 0.0331,0.0523 0.1863,0.2943 0.4597,0.726 0.2734,0.4317 0.737,0.9559 1.3908,1.5728 0.6539,0.6169 1.5554,1.2319 2.7045,1.8449 1.1491,0.613 1.8383,0.9549 2.0678,1.0256 0.2294,0.0706 0.3745,0.1153 0.4351,0.134 0.0607,0.0186 8e-4,-0.0718 -0.1795,-0.2713 -0.1803,-0.1995 -0.6115,-0.6766 -1.2936,-1.4314 -0.6822,-0.7548 -1.4032,-1.6414 -2.1631,-2.6599 -0.7598,-1.0184 -1.2334,-1.6508 -1.4207,-1.8972 -0.1872,-0.2463 -0.315,-0.4144 -0.3833,-0.5041 -0.0681,-0.0897 -0.0607,-0.0294 0.0223,0.181 0.083,0.2104 0.2385,0.6045 0.4665,1.1823 0.228,0.5778 0.6347,1.351 1.2201,2.3198 0.5855,0.9687 1.2543,1.8179 2.0065,2.5476 0.7523,0.7296 1.3776,1.2609 1.876,1.5937 0.4984,0.3329 0.9102,0.5077 1.2356,0.5244 0.3252,0.0167 0.4491,-0.2962 0.3717,-0.9388 -0.0775,-0.6426 -0.3677,-1.1793 -0.8706,-1.6102 -0.5029,-0.4308 -1.4518,-0.9757 -2.8466,-1.6348 -1.3948,-0.6591 -1.9744,-0.794 -1.7388,-0.4046 0.2356,0.3894 1.3033,1.2547 3.203,2.5958 1.8998,1.3411 3.0661,2.2552 3.499,2.7423 0.4329,0.4871 0.6668,0.8553 0.7017,1.1047 0.0348,0.2493 0.0162,0.3245 -0.0558,0.2254 -0.072,-0.0991 -0.2519,-0.3468 -0.54,-0.7432 l -0.3767,-0.5312 0.008,0.007 c 0.0421,0.0473 0.1303,0.1461 0.2645,0.2967 0.1342,0.1505 0.2185,0.245 0.2527,0.2835 l 0.0243,0.0256 -0.0303,-0.04 c -0.0382,-0.0481 -0.1556,-0.1956 -0.3524,-0.4428 -0.1967,-0.2471 -0.9136,-0.7203 -2.1508,-1.4195 -1.2372,-0.6992 -2.4905,-1.4991 -3.7598,-2.3997 -1.2694,-0.9007 -1.9859,-1.53 -2.1497,-1.8882 -0.1637,-0.3582 -0.2457,-0.88 -0.2461,-1.5656 -3e-4,-0.6856 -0.032,-1.1301 -0.0953,-1.3335 -0.0633,-0.2034 -0.2854,-0.3066 -0.6661,-0.3098 -0.3809,-0.003 -1.0211,1.0862 -1.9208,3.2679 -0.8998,2.1816 -1.743,3.9819 -2.5297,5.4006 -0.7867,1.4187 -1.294,2.4029 -1.522,2.9525 -0.2279,0.5497 -0.3641,0.8782 -0.4086,0.9855 -0.0445,0.1074 -0.0346,0.1365 0.0296,0.0875 0.0643,-0.049 0.2609,-0.1989 0.5899,-0.4497 0.3289,-0.2509 0.7903,-0.3907 1.384,-0.4193 0.5937,-0.0287 1.2593,0.0265 1.9969,0.1656 0.7376,0.1391 2.5938,0.2101 5.5685,0.2129 2.9748,0.003 4.8399,-0.0666 5.5952,-0.2083 0.7554,-0.1416 1.0285,-0.2353 0.8192,-0.2809 -0.2092,-0.0457 -0.7323,-0.1598 -1.5693,-0.3425 -0.8369,-0.1826 -1.959,-0.3701 -3.3661,-0.5626 -1.4071,-0.1925 -2.5839,-0.2914 -3.5305,-0.2968 -0.9465,-0.005 -1.966,0.0376 -3.0583,0.129 -1.0923,0.0913 -1.488,0.2307 -1.1872,0.4181 0.4289,0.2671 2.2399,0.3491 5.4331,0.2458" /></g><g
         transform="matrix(0.5454546,0,0,-0.5454546,0,419.528)"
         id="g156"><path
           id="path158"
           style="fill:none;stroke:#000000;stroke-width:2.33858299;stroke-linecap:round;stroke-linejoin:round;stroke-miterlimit:10;stroke-dasharray:none;stroke-opacity:1"
           d="m 570.762,245.0396 c 0.377,1.0246 0.9899,2.1954 1.8386,3.5126 0.8486,1.3171 1.5826,2.3526 2.2019,3.1065 0.6193,0.7539 1.2037,1.2292 1.7533,1.4259 0.5496,0.1967 1.0423,0.0684 1.4779,-0.385 0.4356,-0.4535 1.2874,-1.8062 2.5555,-4.0584 1.268,-2.2521 1.9425,-3.4658 2.0233,-3.6409 0.0809,-0.1751 0.1242,-0.2689 0.1298,-0.2812 0.006,-0.0123 -0.008,0.009 -0.0416,0.0641 -0.0334,0.0551 -0.2878,0.4742 -0.7631,1.2573 -0.4752,0.7831 -1.0568,1.8876 -1.7447,3.3135 -0.6879,1.426 -1.2209,2.6278 -1.5988,3.6055 -0.378,0.9776 -0.7452,1.9976 -1.1016,3.0597 -0.3564,1.0621 -0.7814,2.4661 -1.2748,4.2121 -0.8479,2.9994 -1.3388,4.8232 -1.4726,5.4713" /></g><g
         transform="matrix(2.967984,0,0,-0.5454546,82.38074,357.6943)"
         id="g160" /></g></g></svg>